<?xml version="1.0" encoding="UTF-8"?>
<svg version="1.1" xmlns="http://www.w3.org/2000/svg" width="500" height="500">
<path d="M0 0 C0.79438558 -0.00495952 1.58877116 -0.00991903 2.40722904 -0.01502883 C5.07364112 -0.02799975 7.73955367 -0.01959556 10.4059782 -0.01129913 C12.33515249 -0.01618733 14.26432384 -0.0223768 16.19349021 -0.02975702 C21.49853901 -0.04618878 26.80343951 -0.04383201 32.10850489 -0.03838205 C37.82848006 -0.03571584 43.54841533 -0.05023601 49.26837444 -0.06247711 C60.47613849 -0.08355082 71.68385084 -0.08807084 82.89163236 -0.08628923 C92.00040109 -0.08498253 101.10915366 -0.088781 110.21791935 -0.09621429 C112.83989435 -0.09831345 115.46186936 -0.10041105 118.08384436 -0.10250711 C119.38880619 -0.10355064 120.69376801 -0.10459417 122.03827413 -0.10566932 C139.71327382 -0.11920625 157.38826592 -0.12679421 175.06327057 -0.12234497 C176.10015388 -0.12208704 176.10015388 -0.12208704 177.15798433 -0.1218239 C180.66155278 -0.120935 184.16512121 -0.11999019 187.66868965 -0.11902589 C188.71242107 -0.11873934 188.71242107 -0.11873934 189.77723798 -0.118447 C191.18435745 -0.11805991 192.59147693 -0.11766958 193.99859641 -0.11727602 C215.89156955 -0.11130649 237.78443698 -0.1267417 259.67738628 -0.15888214 C284.27418099 -0.1949614 308.8709023 -0.21424766 333.46772593 -0.20934343 C346.49121005 -0.20709731 359.51458937 -0.21236289 372.53805256 -0.23723602 C383.62573774 -0.25823144 394.71326067 -0.26185855 405.80095247 -0.24293643 C411.45878728 -0.23376772 417.11631944 -0.23267062 422.77413082 -0.25329208 C427.95388695 -0.27196244 433.13309171 -0.26754248 438.3128266 -0.24474627 C440.18628164 -0.24055058 442.05977863 -0.24479297 443.93318937 -0.25834221 C462.20342824 -0.38147668 462.20342824 -0.38147668 468.97792339 5.38311005 C474.44155788 10.99052439 476.42910811 16.67639848 476.36103344 24.40518665 C476.36599295 25.19957224 476.37095247 25.99395782 476.37606227 26.81241569 C476.38903319 29.47882778 476.380629 32.14474032 476.37233257 34.81116486 C476.37722077 36.74033914 476.38341024 38.6695105 476.39079046 40.59867686 C476.40722222 45.90372566 476.40486545 51.20862617 476.39941549 56.51369154 C476.39674928 62.23366671 476.41126945 67.95360199 476.42351055 73.6735611 C476.44458426 84.88132515 476.44910428 96.08903749 476.44732267 107.29681901 C476.44601597 116.40558774 476.44981444 125.51434031 476.45724773 134.623106 C476.45934689 137.24508101 476.46144449 139.86705601 476.46354055 142.48903102 C476.46510585 144.44647375 476.46510585 144.44647375 476.46670276 146.44346078 C476.48023969 164.11846047 476.48782765 181.79345258 476.48337841 199.46845722 C476.48320646 200.15971276 476.4830345 200.8509683 476.48285734 201.56317098 C476.48196844 205.06673943 476.48102363 208.57030787 476.48005933 212.0738763 C476.47986829 212.76969725 476.47967726 213.4655182 476.47948044 214.18242463 C476.47909335 215.58954411 476.47870302 216.99666358 476.47830946 218.40378306 C476.47233993 240.2967562 476.48777514 262.18962363 476.51991558 284.08257294 C476.55599484 308.67936765 476.5752811 333.27608896 476.57037687 357.87291259 C476.56813074 370.8963967 476.57339633 383.91977602 476.59826946 396.94323921 C476.61926488 408.03092439 476.62289199 419.11844732 476.60396987 430.20613912 C476.59480116 435.86397394 476.59370406 441.5215061 476.61432552 447.17931747 C476.63299588 452.3590736 476.62857592 457.53827837 476.60577971 462.71801325 C476.60158401 464.59146829 476.60582641 466.46496528 476.61937565 468.33837602 C476.74251012 486.60861489 476.74251012 486.60861489 470.97792339 493.38311005 C465.37050905 498.84674454 459.68463496 500.83429476 451.95584679 500.76622009 C451.1614612 500.77117961 450.36707562 500.77613912 449.54861775 500.78124893 C446.88220566 500.79421985 444.21629312 500.78581565 441.54986858 500.77751923 C439.6206943 500.78240742 437.69152294 500.7885969 435.76235658 500.79597712 C430.45730778 500.81240887 425.15240727 500.8100521 419.8473419 500.80460215 C414.12736673 500.80193593 408.40743145 500.8164561 402.68747234 500.8286972 C391.47970829 500.84977091 380.27199595 500.85429093 369.06421443 500.85250932 C359.9554457 500.85120263 350.84669313 500.85500109 341.73792744 500.86243439 C339.11595243 500.86453354 336.49397743 500.86663114 333.87200242 500.86872721 C332.5670406 500.86977073 331.26207878 500.87081426 329.91757265 500.87188941 C312.24257297 500.88542635 294.56758086 500.8930143 276.89257622 500.88856506 C275.85569291 500.88830713 275.85569291 500.88830713 274.79786246 500.88804399 C271.29429401 500.8871551 267.79072557 500.88621028 264.28715714 500.88524598 C263.59133619 500.88505495 262.89551524 500.88486391 262.17860881 500.88466709 C260.77148933 500.88428 259.36436986 500.88388967 257.95725038 500.88349611 C236.06427724 500.87752658 214.17140981 500.89296179 192.2784605 500.92510223 C167.68166579 500.96118149 143.08494448 500.98046776 118.48812085 500.97556353 C105.46463674 500.9733174 92.44125742 500.97858299 79.41779423 501.00345612 C68.33010905 501.02445154 57.24258612 501.02807864 46.15489431 501.00915653 C40.4970595 500.99998781 34.83952734 500.99889071 29.18171597 501.01951218 C24.00195984 501.03818253 18.82275507 501.03376258 13.64302019 501.01096636 C11.76956515 501.00677067 9.89606816 501.01101306 8.02265742 501.0245623 C-10.18680428 501.14728716 -10.18680428 501.14728716 -17.02207661 495.38311005 C-19.17832661 493.25029755 -19.17832661 493.25029755 -20.52207661 491.25811005 C-20.98613911 490.59553192 -21.45020161 489.9329538 -21.92832661 489.25029755 C-24.3174722 485.17168472 -24.16545448 481.29870766 -24.15629768 476.72738361 C-24.15982603 475.54054815 -24.15982603 475.54054815 -24.16342565 474.3297362 C-24.17012707 471.65617377 -24.16965709 468.9826598 -24.16924763 466.30908966 C-24.17254554 464.38179471 -24.17627095 462.45450045 -24.18038911 460.52720708 C-24.19042545 455.21349245 -24.19412852 449.89978913 -24.19677842 444.58606637 C-24.20067661 438.86198134 -24.21025525 433.13790529 -24.21899128 427.41382599 C-24.23876905 413.5817712 -24.2488234 399.74971565 -24.25771907 385.91765025 C-24.26209967 379.40803545 -24.26746706 372.89842146 -24.27270794 366.3888073 C-24.28972125 344.75665462 -24.30424123 323.1245031 -24.31145668 301.49234486 C-24.31193144 300.09312849 -24.31240733 298.69391212 -24.31288434 297.29469575 C-24.31312072 296.60080489 -24.31335709 295.90691402 -24.31360063 295.19199617 C-24.31480184 291.67635509 -24.31601729 288.16071401 -24.31724262 284.64507294 C-24.31748277 283.94738129 -24.31772292 283.24968964 -24.31797035 282.53085582 C-24.32586399 259.90795129 -24.3492969 237.28509917 -24.38179857 214.66221753 C-24.41609199 190.74855212 -24.43580622 166.83492091 -24.43910092 142.92123002 C-24.44126838 129.88376891 -24.45005151 116.84638483 -24.4755621 103.80894661 C-24.49723371 92.70764514 -24.50533694 81.60643941 -24.49559531 70.50511918 C-24.49104041 64.83936188 -24.49300601 59.17380228 -24.51235676 53.5080719 C-24.52991605 48.32215796 -24.52904957 43.136587 -24.51345947 37.95066979 C-24.51107238 36.07377479 -24.51546364 34.19685649 -24.52728812 32.31999723 C-24.54236572 29.76892822 -24.53276372 27.219081 -24.51706123 24.66804218 C-24.52728344 23.93908217 -24.53750565 23.21012215 -24.54803762 22.45907244 C-24.46852031 16.54133951 -22.70703084 11.30539258 -18.64559217 6.88495548 C-12.87372973 1.82246482 -7.57089523 -0.06668396 0 0 Z M-2.27207661 29.82061005 C-5.34969591 34.32712403 -5.8558181 37.98191516 -5.02207661 43.38311005 C-3.31955941 46.45780527 -1.20981152 48.78924259 1.97792339 50.38311005 C8.53291914 51.39258155 15.10300678 51.51181242 21.72011089 51.44561005 C23.05454739 51.43993011 23.05454739 51.43993011 24.41594219 51.43413544 C28.16989902 51.41800832 31.92374054 51.38985606 35.67763042 51.36260223 C45.83621605 51.2953854 55.86376786 51.27929485 65.97792339 52.38311005 C68.72003357 60.08728337 70.64136389 67.90832743 72.50526714 75.8635788 C72.84838816 77.31464926 73.19184264 78.7656409 73.53560162 80.21656036 C74.47015438 84.16629485 75.39927976 88.11728806 76.32728481 92.06856537 C77.12614525 95.4670578 77.92811649 98.86481347 78.72996521 102.26260185 C84.39602232 126.27599431 89.99461758 150.3050077 95.57459164 174.33852386 C99.37077293 190.68786589 103.17221501 207.03598313 106.97792339 223.38311005 C107.27702869 224.66794029 107.576134 225.95277054 107.88430309 227.27653503 C112.01403488 245.01471276 116.15124221 262.75112778 120.30086708 280.48466301 C122.06098637 288.00711526 123.81882123 295.53008441 125.57054424 303.05449677 C127.07183294 309.50314063 128.57781775 315.95066556 130.08970076 322.39683419 C130.87078619 325.72776585 131.64967401 329.05917162 132.42271137 332.39198112 C133.27401788 336.05678935 134.13375114 339.71952499 134.99550152 343.38188934 C135.23961867 344.44172783 135.48373583 345.50156631 135.73525047 346.59352112 C138.79372704 359.49423358 142.38844427 371.71514652 153.97792339 379.38311005 C160.97737062 382.86187954 166.9924072 383.9626117 174.75168133 383.88431549 C175.78983649 383.88984989 176.82799166 383.89538428 177.89760607 383.90108639 C181.35146649 383.91462214 184.80459541 383.89976188 188.25844097 383.88481903 C190.74438565 383.88860464 193.23032822 383.89410668 195.71626568 383.90119171 C201.75125948 383.91368318 207.78596994 383.90760356 213.82093618 383.89251613 C220.85266951 383.87560894 227.88435118 383.87887197 234.91609856 383.88261021 C247.46108188 383.88847977 260.00596461 383.87434987 272.55092144 383.84966278 C284.71957953 383.82571899 296.88810339 383.81866962 309.05678082 383.82915497 C322.32082366 383.84056374 335.58480452 383.84249674 348.84884661 383.82805687 C350.26285596 383.82653107 351.67686531 383.82501071 353.09087467 383.82349586 C354.13437436 383.82235914 354.13437436 383.82235914 355.19895485 383.82119946 C360.0994317 383.81645832 364.99988083 383.81830667 369.90035725 383.82256126 C376.49221717 383.8280013 383.08391805 383.81724957 389.67575359 383.79560661 C392.09732911 383.79003303 394.5189225 383.78957865 396.94049931 383.79455948 C400.24023545 383.80049654 403.53939917 383.78803714 406.83908367 383.7707901 C407.80210819 383.77680015 408.7651327 383.78281019 409.75733978 383.78900236 C414.65675464 383.74228293 418.00574515 383.58359982 421.97792339 380.38311005 C424.70796754 377.49740549 425.42867024 375.46067531 425.47792339 371.50811005 C425.37597052 367.87536804 424.95190763 365.67353449 422.66542339 362.82061005 C419.33017723 359.79561934 417.10633592 359.25954341 412.76525593 359.24723816 C411.90196757 359.24238041 411.03867921 359.23752267 410.1492306 359.23251772 C408.72585794 359.23207374 408.72585794 359.23207374 407.27373028 359.23162079 C406.2660574 359.22738838 405.25838452 359.22315597 404.2201761 359.2187953 C400.82773755 359.20573031 397.43532253 359.19973557 394.0428648 359.19365692 C391.61706682 359.18571755 389.19127027 359.17732984 386.76547527 359.1685257 C381.53371091 359.15044501 376.3019467 359.13532706 371.07016659 359.12274933 C363.5004132 359.10445973 355.93069074 359.0797945 348.36096184 359.05337542 C336.07281058 359.01057077 323.78465078 358.97146031 311.49647808 358.93535614 C310.76080429 358.93319334 310.0251305 358.93103053 309.26716356 358.92880219 C304.04575045 358.91347561 298.82433696 358.89827967 293.60292339 358.88311005 C287.64198562 358.86578884 281.68104803 358.84840293 275.72011089 358.83086395 C274.98593817 358.82870508 274.25176545 358.82654621 273.49534507 358.82432193 C261.25604941 358.78821198 249.0167692 358.7482572 236.77749479 358.70556116 C229.22662659 358.67940798 221.67576307 358.65674809 214.12487136 358.63857758 C208.33981168 358.62441218 202.55477687 358.60528433 196.7697382 358.58432579 C194.39493142 358.57656198 192.02011841 358.5704958 189.64530277 358.56623268 C186.408863 358.56019507 183.17249954 358.54815089 179.93608379 358.5345993 C178.99163013 358.53430332 178.04717647 358.53400733 177.074103 358.53370237 C172.91578752 358.51044394 169.03129535 358.44206428 164.97792339 357.38311005 C164.21714247 355.24107525 163.4701813 353.0941337 162.72792339 350.94561005 C162.10143902 349.15316864 162.10143902 349.15316864 161.46229839 347.3245163 C160.0076506 342.80257782 158.95691909 338.19813378 157.88514996 333.57427216 C157.70106579 332.78574608 157.51698162 331.99722 157.32731915 331.18479919 C156.8761294 329.25122691 156.42683604 327.31721227 155.97792339 325.38311005 C157.20467942 325.38679722 158.43143545 325.39048439 159.69536591 325.39428329 C188.84353175 325.4809932 217.99168554 325.54691134 247.13994964 325.58737136 C250.73087927 325.59237394 254.32180862 325.59755125 257.91273785 325.60283661 C258.62759998 325.60388585 259.34246211 325.60493509 260.07898673 325.60601613 C271.64021375 325.62340146 283.20136087 325.65492877 294.76254056 325.69172123 C306.63336896 325.72918287 318.50415563 325.75135691 330.37504071 325.75946403 C337.03938224 325.76445066 343.70357835 325.776902 350.36787128 325.80603027 C356.64444556 325.83324086 362.92076481 325.84154348 369.19739246 325.83554077 C371.49713052 325.83663847 373.79687736 325.84455839 376.09656429 325.85993195 C395.70140117 326.35037934 395.70140117 326.35037934 412.41542339 317.13311005 C413.5891148 316.07350067 413.5891148 316.07350067 414.78651714 314.99248505 C420.5537943 308.12521028 422.05713211 300.5729126 423.65761089 291.9729538 C424.03589268 290.02645632 424.41417691 288.07995931 424.79253292 286.13347626 C425.34460656 283.27677662 425.88557763 280.41800601 426.42734814 277.55933762 C427.61785658 271.29669889 428.83454063 265.03903654 430.04537106 258.78030205 C430.55015773 256.16868495 431.05332793 253.55675927 431.55650616 250.94483185 C434.30315071 236.71696094 437.15537826 222.51136252 440.02982998 208.30882072 C441.55226627 200.77934492 443.06612998 193.24813913 444.58069324 185.7170763 C445.8374487 179.4720392 447.09960171 173.22818611 448.37337017 166.98659515 C449.58931837 161.02685776 450.79030646 155.06428263 451.98097515 149.09944534 C452.4251055 146.88831088 452.87457884 144.67824153 453.32991314 142.46938705 C458.84835004 116.73389449 458.84835004 116.73389449 451.62245464 92.07842255 C446.64960303 85.01244036 440.55021326 79.36637405 431.97792339 77.38311005 C427.67818427 76.72721764 424.61449545 77.05881862 420.66542339 79.07061005 C417.29443276 81.97122989 415.16505257 83.93706437 414.81386089 88.5276413 C415.00249371 92.90247159 415.58340756 94.91955394 418.47792339 98.32061005 C422.23665322 100.97922383 426.49476415 101.71561745 430.97792339 102.38311005 C434.05809722 110.79562782 433.84641967 116.75243679 431.97792339 125.38311005 C431.62136136 127.45281828 431.27335037 129.52400957 430.93178082 131.59624481 C430.75281765 132.67922348 430.57385448 133.76220215 430.38946819 134.87799835 C430.25365841 135.70468521 430.11784863 136.53137207 429.97792339 137.38311005 C429.36483427 137.38197089 428.75174514 137.38083172 428.12007755 137.37965804 C391.7868451 137.31252997 355.45362181 137.26105348 319.12034005 137.22991406 C314.75817046 137.22616192 310.396001 137.22227895 306.0338316 137.21831512 C305.16539887 137.21752819 304.29696615 137.21674126 303.40221728 137.21593048 C289.3389984 137.20287507 275.2758163 137.17922047 261.21261924 137.15165166 C246.78345939 137.12360126 232.35431881 137.10693456 217.92513281 137.10084456 C209.02089835 137.09672736 200.11676784 137.0837215 191.21256537 137.05936065 C185.10737328 137.04350797 179.00223497 137.03870863 172.89702379 137.04260591 C169.37414674 137.0445282 165.85145138 137.04157264 162.32860661 137.02549362 C158.5080673 137.00818332 154.68776462 137.01414653 150.86719036 137.0223465 C149.7553143 137.01360797 148.64343823 137.00486945 147.49786896 136.99586612 C141.5664399 137.03034364 137.16215909 137.38805723 131.97792339 140.38311005 C129.59849968 143.95224562 129.4458904 145.97008664 129.52089214 150.15654755 C130.06077825 152.78676193 130.76360139 153.66307748 132.79042339 155.38311005 C136.71835065 157.84769185 139.2942583 158.50813563 143.82925224 158.50615788 C144.83495992 158.50814892 145.84066759 158.51013997 146.87685126 158.51219136 C147.9848149 158.50927851 149.09277853 158.50636567 150.23431683 158.50336456 C151.99613103 158.5046462 151.99613103 158.5046462 153.79353744 158.50595373 C157.05902576 158.50731887 160.32447465 158.50418288 163.58995831 158.49917567 C167.10936587 158.49486561 170.62877151 158.49631799 174.14818096 158.49707794 C180.2475729 158.49760282 186.34695417 158.49445975 192.44634342 158.4888401 C201.26508483 158.48072027 210.08382107 158.47810939 218.90256581 158.47685211 C233.20967036 158.47466235 247.51676921 158.46800433 261.82387066 158.4585495 C275.72360995 158.44937342 289.6233477 158.44229354 303.52308941 158.43804169 C304.37956897 158.43777896 305.23604853 158.43751624 306.11848202 158.43724556 C310.41509855 158.43594054 314.7117151 158.43467682 319.00833166 158.43343365 C354.6648663 158.42306341 390.32139432 158.40544716 425.97792339 158.38311005 C425.80957853 159.16541955 425.64123367 159.94772905 425.46778744 160.7537449 C424.69048233 164.36790666 423.91423788 167.98229548 423.13800335 171.59668732 C422.74093662 173.44174575 422.74093662 173.44174575 422.33584833 175.32407808 C419.97840787 186.30722635 417.74111842 197.31224373 415.54612446 208.32884026 C414.87929249 211.67352486 414.20931007 215.01756568 413.53851604 218.36145782 C411.63671625 227.8429435 409.73776589 237.32499036 407.84681988 246.80864716 C406.6777077 252.67094483 405.50301589 258.53210115 404.32474613 264.39256477 C403.88132095 266.60361565 403.43997928 268.81508551 403.00083637 271.02699089 C402.38949451 274.10535624 401.77104598 277.1822164 401.1510191 280.25884247 C400.97486568 281.15497253 400.79871227 282.0511026 400.61722088 282.97438812 C399.76278285 287.17822421 398.79530934 291.33472484 397.59210491 295.45337677 C397.37968246 296.18573201 397.16726 296.91808725 396.9484005 297.67263508 C395.97792339 299.38311005 395.97792339 299.38311005 394.18424326 299.98134816 C391.97258273 300.38408256 389.95287781 300.51363557 387.70632839 300.52177525 C386.85538247 300.52724969 386.00443655 300.53272413 385.12770438 300.53836447 C384.19774626 300.53934258 383.26778814 300.54032068 382.30964947 300.54132843 C380.82219341 300.5487354 380.82219341 300.5487354 379.30468774 300.556292 C375.97278623 300.57168361 372.64090402 300.58003216 369.30897808 300.58843231 C366.9241802 300.59800952 364.53938403 300.60801951 362.15458965 300.61843109 C356.34515595 300.64269041 350.53571947 300.66242669 344.72626254 300.68018384 C337.96655372 300.70108842 331.20687013 300.72754702 324.44718257 300.7543553 C312.39233787 300.80201618 300.33748158 300.84528444 288.28261089 300.88579559 C276.57231525 300.92515817 264.86202991 300.96658623 253.15175152 301.01079559 C252.42994948 301.01351987 251.70814745 301.01624414 250.96447262 301.01905096 C247.34340979 301.03273057 243.72234711 301.04645082 240.1012845 301.06019127 C210.06018559 301.17413242 180.01906456 301.2808739 149.97792339 301.38311005 C149.69870556 299.95816853 149.69870556 299.95816853 149.41384697 298.50444031 C147.85407158 290.61397437 146.20339186 282.76099229 144.35609722 274.93193817 C144.11088361 273.88373366 143.86566999 272.83552916 143.61302567 271.75556087 C142.8059297 268.30795968 141.99543144 264.86116788 141.18495464 261.41436005 C140.60396477 258.93513033 140.02321112 256.45584524 139.44267559 253.97650909 C138.20506887 248.69294405 136.96608059 243.40970636 135.72569561 238.12679291 C132.78233883 225.59076149 129.84437332 213.05346612 126.90641499 200.51616859 C126.23880591 197.66729381 125.5710503 194.81845342 124.90317631 191.96964073 C120.48372944 173.11784114 116.08398848 154.2616353 111.71118641 135.39895248 C110.87074228 131.77392613 110.02971015 128.1490367 109.18847942 124.52419281 C108.64457087 122.18029232 108.10067121 119.83638975 107.55678082 117.49248505 C107.29309169 116.35612673 107.02940256 115.21976841 106.75772285 114.04897499 C105.21215166 107.38635999 103.67059228 100.72283164 102.13176632 94.05865574 C101.17981575 89.94043046 100.22406222 85.82309449 99.26730251 81.70598412 C98.83077223 79.82378226 98.39585842 77.94120456 97.96277523 76.05820656 C92.84464059 50.17379486 92.84464059 50.17379486 76.29042339 30.69561005 C68.5303233 26.13820042 59.73905166 26.08675045 50.95839214 26.1526413 C49.93796322 26.15309952 48.91753429 26.15355774 47.86618328 26.15402985 C45.7207195 26.15703213 43.5752575 26.16485707 41.42982769 26.1772995 C38.18471124 26.19550186 34.9398824 26.19780904 31.69472027 26.19756317 C13.69077138 24.74465977 13.69077138 24.74465977 -2.27207661 29.82061005 Z M144.54042339 168.94561005 C141.84744684 173.14665347 141.57462562 176.46287721 141.97792339 181.38311005 C143.36212665 185.62272689 145.15620882 188.64356693 148.47792339 191.63311005 C153.64007041 194.21418356 160.10794489 197.38311005 165.97792339 197.38311005 C165.97792339 199.03311005 165.97792339 200.68311005 165.97792339 202.38311005 C159.25833479 204.62297291 152.68525595 202.89462161 145.97792339 201.38311005 C145.44601798 202.81655005 144.92777081 204.25506371 144.41542339 205.69561005 C144.12538433 206.49611786 143.83534527 207.29662567 143.53651714 208.1213913 C142.72876714 210.52642745 142.72876714 210.52642745 143.97792339 213.38311005 C153.06917077 216.91778703 162.75049335 217.76459062 171.97792339 214.38311005 C176.40938124 211.95835009 178.71979545 209.87363228 180.97792339 205.38311005 C181.91162361 200.47780091 181.96194606 195.6753489 179.97011089 191.0354538 C174.78800976 183.99485042 165.96047468 181.91299425 157.97792339 179.38311005 C157.97792339 178.06311005 157.97792339 176.74311005 157.97792339 175.38311005 C170.64762727 175.1985998 170.64762727 175.1985998 175.97792339 176.38311005 C176.48407637 175.11471479 176.98261438 173.84327903 177.47792339 172.57061005 C177.75636089 171.86291473 178.03479839 171.15521942 178.32167339 170.4260788 C179.13083959 168.26469789 179.13083959 168.26469789 178.97792339 165.38311005 C167.54600691 160.56967153 153.6257952 159.39432174 144.54042339 168.94561005 Z M212.97792339 165.38311005 C212.97792339 181.88311005 212.97792339 198.38311005 212.97792339 215.38311005 C217.59792339 215.38311005 222.21792339 215.38311005 226.97792339 215.38311005 C228.57697477 213.78405867 228.16165173 212.04535591 228.22401714 209.8323288 C228.25688824 208.90613739 228.28975933 207.97994598 228.32362652 207.02568817 C228.38445709 205.06746157 228.44179193 203.10912302 228.49550152 201.15068817 C228.52966167 200.22062958 228.56382183 199.29057098 228.59901714 198.3323288 C228.6240733 197.47985565 228.64912945 196.62738251 228.67494488 195.74907684 C229.00577379 193.16562562 229.50105857 191.53037193 230.97792339 189.38311005 C234.03967575 188.72702026 236.85013723 188.38311005 239.97792339 188.38311005 C240.74428431 191.84400683 241.1494171 195.14388493 241.29432964 198.6838913 C241.33622417 199.66035614 241.37811871 200.63682098 241.42128277 201.64287567 C241.46059917 202.65027802 241.49991558 203.65768036 241.54042339 204.69561005 C241.58360699 205.72234833 241.62679058 206.74908661 241.67128277 207.80693817 C241.77699164 210.33220574 241.87908807 212.85756567 241.97792339 215.38311005 C244.29036131 215.40996416 246.60288609 215.42943846 248.91542339 215.44561005 C250.20319683 215.45721161 251.49097027 215.46881317 252.81776714 215.4807663 C255.84090742 215.74843554 255.84090742 215.74843554 256.97792339 214.38311005 C257.26069093 211.0794427 257.20989866 207.75990843 257.22792339 204.44561005 C257.24854839 203.53230927 257.26917339 202.61900848 257.29042339 201.67803192 C257.33448657 193.89537275 256.51758507 186.49419559 251.47792339 180.32061005 C248.12690012 177.72356701 245.36982687 177.15785044 241.22792339 176.94561005 C239.99815777 176.85473114 239.99815777 176.85473114 238.74354839 176.7620163 C234.83736111 177.41236014 234.83736111 177.41236014 228.97792339 183.38311005 C228.64792339 176.78311005 228.31792339 170.18311005 227.97792339 163.38311005 C222.09540079 163.21967993 222.09540079 163.21967993 212.97792339 165.38311005 Z M291.10292339 184.32061005 C287.52747804 189.47345776 286.44250959 193.06522718 286.97792339 199.38311005 C288.3681204 205.9043978 291.44167003 209.74807544 296.97792339 213.38311005 C303.29630678 216.54230174 311.518019 216.4065248 318.22792339 214.38311005 C322.94436311 212.36038951 326.09538503 208.52728115 328.97792339 204.38311005 C330.8725641 198.69918793 330.87092964 192.61563774 328.47792339 187.07061005 C325.5164272 181.82695729 320.54240011 179.23793562 314.97792339 177.38311005 C305.47687874 176.59027321 297.71566465 176.92427807 291.10292339 184.32061005 Z M378.97792339 180.38311005 C377.98792339 181.86811005 377.98792339 181.86811005 376.97792339 183.38311005 C376.64792339 181.73311005 376.31792339 180.08311005 375.97792339 178.38311005 C371.02792339 178.38311005 366.07792339 178.38311005 360.97792339 178.38311005 C360.97792339 194.55311005 360.97792339 210.72311005 360.97792339 227.38311005 C365.99132008 226.82606597 371.00230717 226.21237942 375.97792339 225.38311005 C376.30792339 220.10311005 376.63792339 214.82311005 376.97792339 209.38311005 C379.45292339 211.85811005 379.45292339 211.85811005 381.97792339 214.38311005 C387.31946074 216.1636225 392.04880728 216.08820128 397.16542339 213.82061005 C402.25842327 211.01344476 405.16214918 206.83043269 406.97792339 201.38311005 C407.71843104 194.54858861 407.0763987 189.02321369 402.97792339 183.38311005 C399.700407 179.94300146 396.53394729 177.60838673 391.67323589 177.17998505 C384.82321741 177.03526425 384.82321741 177.03526425 378.97792339 180.38311005 Z M158.97792339 229.38311005 C158.97792339 246.54311005 158.97792339 263.70311005 158.97792339 281.38311005 C162.93792339 281.38311005 166.89792339 281.38311005 170.97792339 281.38311005 C170.97792339 272.47311005 170.97792339 263.56311005 170.97792339 254.38311005 C176.60845121 260.01363786 176.60845121 260.01363786 178.91542339 262.90654755 C179.41815777 263.53561005 179.92089214 264.16467255 180.43886089 264.81279755 C180.94675152 265.45475067 181.45464214 266.0967038 181.97792339 266.75811005 C182.48581402 267.3923288 182.99370464 268.02654755 183.51698589 268.67998505 C184.01972027 269.31162567 184.52245464 269.9432663 185.04042339 270.59404755 C185.53832378 271.216987 186.03622417 271.83992645 186.54921246 272.48174286 C187.97792339 274.38311005 187.97792339 274.38311005 189.21132183 276.40166473 C190.50619564 278.60710071 190.50619564 278.60710071 192.97792339 281.38311005 C196.50734216 282.26171312 196.50734216 282.26171312 200.22792339 281.88311005 C201.47057964 281.83154755 202.71323589 281.77998505 203.99354839 281.72686005 C206.8580401 281.71017681 206.8580401 281.71017681 207.97792339 280.38311005 C208.07126045 278.78700023 208.09537712 277.18677577 208.09144878 275.58794403 C208.09137325 274.56696121 208.09129772 273.54597839 208.0912199 272.4940567 C208.08605862 271.38365524 208.08089733 270.27325378 208.07557964 269.1292038 C208.0741647 267.99862045 208.07274975 266.86803711 208.07129192 265.70319366 C208.06567358 262.07563939 208.05311797 258.44814581 208.04042339 254.82061005 C208.03541076 252.36813698 208.03084744 249.91566294 208.02675152 247.46318817 C208.01569819 241.43647191 207.99842127 235.40980128 207.97792339 229.38311005 C203.68792339 229.38311005 199.39792339 229.38311005 194.97792339 229.38311005 C194.64792339 238.29311005 194.31792339 247.20311005 193.97792339 256.38311005 C191.97729839 253.78436005 189.97667339 251.18561005 187.91542339 248.50811005 C187.25840435 247.6659494 186.60138531 246.82378876 185.9244566 245.95610809 C182.76467001 241.87852561 180.08262987 237.85474352 177.60292339 233.32061005 C175.80854839 231.37154755 175.80854839 231.37154755 173.97792339 229.38311005 C169.02792339 229.38311005 164.07792339 229.38311005 158.97792339 229.38311005 Z M376.97792339 229.38311005 C376.54222027 230.30994598 376.10651714 231.23678192 375.65761089 232.1917038 C375.05719832 233.4019104 374.4555717 234.61151522 373.85292339 235.82061005 C373.56932964 236.4322702 373.28573589 237.04393036 372.99354839 237.67412567 C372.09511089 239.4417038 372.09511089 239.4417038 369.97792339 242.38311005 C366.73573589 243.2932663 366.73573589 243.2932663 363.97792339 243.38311005 C363.97792339 246.35311005 363.97792339 249.32311005 363.97792339 252.38311005 C365.62792339 252.38311005 367.27792339 252.38311005 368.97792339 252.38311005 C368.92571636 254.33603973 368.92571636 254.33603973 368.87245464 256.32842255 C368.84430438 258.05497209 368.81700555 259.78153565 368.79042339 261.50811005 C368.76528667 262.36404755 368.74014996 263.21998505 368.71425152 264.10186005 C368.65413492 269.31196507 369.06253738 272.87237963 371.97792339 277.38311005 C376.25553192 281.25969277 380.2003634 281.59632424 385.74745464 281.5510788 C388.44583005 281.34787364 390.57890908 280.62131098 392.97792339 279.38311005 C392.97792339 276.08311005 392.97792339 272.78311005 392.97792339 269.38311005 C390.33792339 269.38311005 387.69792339 269.38311005 384.97792339 269.38311005 C384.64792339 263.77311005 384.31792339 258.16311005 383.97792339 252.38311005 C386.94792339 252.38311005 389.91792339 252.38311005 392.97792339 252.38311005 C392.97792339 249.41311005 392.97792339 246.44311005 392.97792339 243.38311005 C390.00792339 243.38311005 387.03792339 243.38311005 383.97792339 243.38311005 C383.97792339 238.76311005 383.97792339 234.14311005 383.97792339 229.38311005 C381.66792339 229.38311005 379.35792339 229.38311005 376.97792339 229.38311005 Z M241.97792339 251.38311005 C238.74968843 256.28112171 238.1162187 260.67068565 238.97792339 266.38311005 C240.84989851 272.28459092 243.90727243 275.93506739 248.97792339 279.38311005 C255.05892739 282.42361205 263.0212268 282.42975915 269.53261089 280.7073288 C271.38021519 280.0136553 273.18603741 279.21013435 274.97792339 278.38311005 C274.85417339 277.08373505 274.73042339 275.78436005 274.60292339 274.44561005 C274.49850933 273.34926239 274.49850933 273.34926239 274.39198589 272.2307663 C274.18702496 271.31617645 274.18702496 271.31617645 273.97792339 270.38311005 C273.31792339 270.05311005 272.65792339 269.72311005 271.97792339 269.38311005 C270.98792339 269.71311005 269.99792339 270.04311005 268.97792339 270.38311005 C266.98342494 270.57701962 264.98080939 270.6942926 262.97792339 270.75811005 C261.40011089 270.83158661 261.40011089 270.83158661 259.79042339 270.90654755 C256.97792339 270.38311005 256.97792339 270.38311005 255.10292339 267.85967255 C254.73167339 267.04240692 254.36042339 266.2251413 253.97792339 265.38311005 C254.89573589 265.32252411 255.81354839 265.26193817 256.75917339 265.1995163 C263.19643139 264.75999763 269.58728044 264.27780006 275.97792339 263.38311005 C277.43857837 259.13393192 276.64982687 256.31168923 274.99745464 252.31279755 C272.73306465 248.02694063 269.41121271 245.19310406 264.97792339 243.38311005 C255.45158099 242.25978943 248.32140117 243.80617826 241.97792339 251.38311005 Z M307.97792339 247.38311005 C305.13971145 251.64042796 305.23469399 255.3882888 305.97792339 260.38311005 C309.17353396 265.3895666 313.34997027 266.35248167 318.86854839 267.60967255 C319.56464214 267.86490692 320.26073589 268.1201413 320.97792339 268.38311005 C321.30792339 269.37311005 321.63792339 270.36311005 321.97792339 271.38311005 C316.95496335 272.51327606 312.99918265 272.16227097 307.97792339 271.38311005 C307.64792339 274.02311005 307.31792339 276.66311005 306.97792339 279.38311005 C313.58591919 282.31999707 322.12736564 282.75863761 328.97792339 280.25811005 C332.65635729 277.95908886 334.20952295 276.36201105 335.97792339 272.38311005 C336.30917372 269.1448525 336.030085 266.46565918 334.97792339 263.38311005 C330.56895636 258.06973952 325.64226369 257.26554246 318.97792339 256.38311005 C319.30792339 255.06311005 319.63792339 253.74311005 319.97792339 252.38311005 C323.93792339 252.38311005 327.89792339 252.38311005 331.97792339 252.38311005 C332.63792339 250.07311005 333.29792339 247.76311005 333.97792339 245.38311005 C326.63020441 240.73265499 314.52017525 242.05802133 307.97792339 247.38311005 Z M159.44276714 407.3323288 C153.37520312 415.82691843 150.98978708 425.6444268 152.54042339 436.07061005 C154.90209289 446.24054934 159.82076473 453.84965121 167.97792339 460.38311005 C177.54975377 466.34239226 187.82746451 468.15866933 198.95448589 465.73467255 C210.03043908 462.08428797 218.50387905 454.58287103 224.07557964 444.3713913 C227.4965749 436.01779823 227.47549189 424.38717832 224.41542339 415.94561005 C219.38585833 405.53720458 212.03536051 398.72254932 201.32948589 394.2854538 C185.91592136 389.18712091 169.53661952 394.72095089 159.44276714 407.3323288 Z M342.97792339 406.38311005 C338.6019728 413.05798803 336.07383831 419.40846961 335.97792339 427.38311005 C335.91733746 428.25709442 335.85675152 429.1310788 335.79432964 430.03154755 C335.38472837 438.89382962 337.54678873 445.81577791 343.29042339 452.63311005 C344.49753079 453.90442528 345.72647236 455.15542075 346.97792339 456.38311005 C347.54768902 456.95158661 348.11745464 457.52006317 348.70448589 458.1057663 C356.21182449 465.08176358 365.30771269 466.7551165 375.34120464 466.5901413 C385.12126285 465.82222562 394.51714862 461.2989001 401.12245464 454.0198288 C408.48581429 444.0521651 410.17436604 434.71567275 408.97792339 422.38311005 C407.44421723 416.38985826 404.66609914 411.3390962 400.97792339 406.38311005 C400.42104839 405.55811005 399.86417339 404.73311005 399.29042339 403.88311005 C393.21286404 397.31277561 385.12164477 392.84008106 376.14198589 392.17217255 C362.71838014 391.99223145 351.90214379 396.06112019 342.97792339 406.38311005 Z " fill="#2562E9" transform="translate(24.02207660675049,-0.38311004638671875)"/>
<path d="M0 0 C1.48172243 -0.00782324 1.48172243 -0.00782324 2.99337864 -0.01580453 C4.07624621 -0.01134309 5.15911379 -0.00688164 6.27479553 -0.002285 C7.42695273 -0.00540498 8.57910994 -0.00852497 9.76618099 -0.01173949 C12.96471665 -0.01834352 16.16310091 -0.01595714 19.36163282 -0.00976706 C22.81089561 -0.00524819 26.26013767 -0.01222351 29.70939636 -0.0177269 C36.46669164 -0.02662859 43.22394253 -0.02469544 49.98123956 -0.01890162 C55.47215149 -0.01438818 60.96305098 -0.01377084 66.45396423 -0.01594925 C67.23491925 -0.01625572 68.01587427 -0.01656218 68.82049459 -0.01687793 C70.40689954 -0.01751737 71.99330447 -0.0181658 73.57970941 -0.01882312 C88.46178092 -0.02452868 103.34382781 -0.01796497 118.22589529 -0.00722238 C131.0004271 0.00171333 143.77492257 0.00016136 156.54945374 -0.00905991 C171.37761439 -0.01975853 186.20575345 -0.02397934 201.03391743 -0.01783538 C202.61454582 -0.01719827 204.19517421 -0.01656953 205.77580261 -0.01594925 C206.55353891 -0.0156407 207.3312752 -0.01533215 208.13257927 -0.01501425 C213.61804944 -0.01328608 219.10350594 -0.01620502 224.588974 -0.02090836 C231.27227074 -0.02651267 237.95552048 -0.02501024 244.63881183 -0.01434687 C248.04991032 -0.00908407 251.46093041 -0.00704371 254.87202835 -0.01364517 C258.56642175 -0.01908181 262.26059225 -0.01228919 265.95497131 -0.002285 C267.03783889 -0.00674645 268.12070646 -0.01120789 269.23638821 -0.01580453 C270.22420316 -0.01058903 271.21201811 -0.00537354 272.22976685 0 C273.50920969 0.00048706 273.50920969 0.00048706 274.81449986 0.00098395 C277.31581126 0.27357962 278.9527518 0.99591676 281.11488342 2.25168228 C267.17761702 2.4393337 253.24009983 2.60132402 239.30238342 2.75168228 C238.19588566 2.76370682 237.08938789 2.77573135 235.94935989 2.78812027 C200.09785137 3.1729627 164.24950787 3.29312379 128.39613342 3.28293228 C127.38716641 3.28268492 126.37819939 3.28243755 125.33865762 3.28218269 C104.85988581 3.27687843 84.38113405 3.26127533 63.90238726 3.22846937 C56.05627994 3.2159861 48.21017255 3.20651271 40.36405885 3.19906664 C34.87218069 3.19354394 29.38033671 3.18341376 23.88847321 3.16969252 C20.52225396 3.16228034 17.15603998 3.15898263 13.78981364 3.15683651 C12.23781164 3.15498653 10.68581058 3.15140173 9.13381708 3.14594364 C7.02198751 3.13873179 4.91024067 3.13768534 2.79840088 3.13815689 C1.62067706 3.13593628 0.44295324 3.13371567 -0.77045918 3.13142776 C-3.59897461 3.24063456 -6.13653603 3.60105505 -8.88511658 4.25168228 C-8.88511658 3.59168228 -8.88511658 2.93168228 -8.88511658 2.25168228 C-5.79310258 0.4558413 -3.56030852 0.00135533 0 0 Z " fill="#3362C7" transform="translate(166.88511657714844,134.74831771850586)"/>
<path d="M0 0 C4.31462779 2.28421471 7.16960237 4.42400593 9 9 C9.75913492 13.07172364 9.90952594 16.46124227 7.7578125 20.1015625 C4.23032959 24.3661314 1.94195716 25.73668377 -3.6875 26.5 C-8.47959438 26.44675451 -11.09512519 24.18836475 -14.42578125 20.9296875 C-16.63397819 18.22286545 -17.14540766 16.48978388 -17 13 C-16.31268652 8.64701465 -15.37478221 5.98410927 -12.0625 3.125 C-7.91394653 0.24641188 -4.99554596 -0.48975941 0 0 Z " fill="#2563E8" transform="translate(217,416)"/>
<path d="M0 0 C2.5 1.0625 2.5 1.0625 5 3 C5 5.31 5 7.62 5 10 C128.75 10.495 128.75 10.495 255 11 C255 11.66 255 12.32 255 13 C223.76319003 13.04562174 192.52638886 13.08101758 161.28955349 13.10213066 C157.60205253 13.10463208 153.91455164 13.10722073 150.22705078 13.10986328 C149.49293341 13.1103879 148.75881604 13.11091252 148.00245269 13.11145304 C136.11455366 13.12015648 124.22667396 13.13592612 112.33878641 13.15430559 C100.14140479 13.17300633 87.9440333 13.18411709 75.74663794 13.18817699 C68.21974158 13.19092169 60.69289988 13.19959175 53.16602035 13.21583293 C47.39513884 13.22765106 41.62429238 13.2289109 35.85340118 13.22621536 C33.48545876 13.22676637 31.11751431 13.23075496 28.7495842 13.23841095 C25.51985905 13.24834261 22.29036887 13.24597524 19.06063843 13.24050903 C18.1209422 13.24633472 17.18124596 13.2521604 16.21307409 13.25816262 C11.43743648 13.2362753 7.43946952 12.99409446 3 11 C1.7578125 9.16015625 1.7578125 9.16015625 1.125 7.0625 C0.90070313 6.37285156 0.67640625 5.68320312 0.4453125 4.97265625 C0 3 0 3 0 0 Z " fill="#3263C5" transform="translate(185,346)"/>
<path d="M0 0 C3.54913545 2.44186385 5.63856968 4.91570905 7 9 C7.4244898 17.91428571 7.4244898 17.91428571 5 21 C0.92924822 24.57431863 -2.43748839 25.7820952 -7.75 25.50390625 C-11.90698075 24.57291577 -14.53085235 22.41774675 -17 19 C-18.69350922 15.01115597 -19.27624488 11.51934681 -18.5 7.25 C-13.80281732 0.20422599 -8.11409161 -2.24635087 0 0 Z " fill="#2762E3" transform="translate(402,417)"/>
<path d="M0 0 C77.88 0 155.76 0 236 0 C233.32940023 2.67059977 231.32690974 2.24028182 227.69584787 2.25816262 C226.8028645 2.25233693 225.90988112 2.24651125 224.98983765 2.24050903 C224.0448282 2.24221788 223.09981876 2.24392673 222.12617266 2.24568737 C218.93999649 2.24899785 215.75402806 2.23795298 212.56787109 2.22705078 C210.29174301 2.226487 208.01561456 2.22680257 205.73948669 2.22793579 C199.54349014 2.22851161 193.34757041 2.21672029 187.15159178 2.20278788 C180.68265894 2.19031862 174.2137245 2.18911303 167.74478149 2.18673706 C156.88159694 2.18121925 146.01844401 2.16871134 135.15527344 2.15087891 C123.96484519 2.13252833 112.77442462 2.11836781 101.58398438 2.10986328 C100.89451384 2.10933783 100.20504331 2.10881239 99.49467973 2.10827102 C96.03590059 2.10566099 92.57712139 2.10313357 89.11834216 2.10064721 C60.41220898 2.0799048 31.70610559 2.04452223 3 2 C2.67 3.98 2.34 5.96 2 8 C1.67 8 1.34 8 1 8 C0.67 5.36 0.34 2.72 0 0 Z " fill="#3665C7" transform="translate(180,325)"/>
<path d="M0 0 C95.7 0.33 191.4 0.66 290 1 C288.80952452 8.73809063 287.62141261 16.35866185 286 24 C285.67 24 285.34 24 285 24 C284.58050652 15.74996149 286.00554838 10.64262368 288 2 C208.8 2 129.6 2 48 2 C48 2.99 48 3.98 48 5 C47.34 5 46.68 5 46 5 C46 4.34 46 3.68 46 3 C44.35 3 42.7 3 41 3 C41 3.66 41 4.32 41 5 C41.99 4.67 42.98 4.34 44 4 C44 6.31 44 8.62 44 11 C43.505 9.515 43.505 9.515 43 8 C33.85996179 5.00584955 22.49011185 4.02277008 13.5625 8 C12.35941009 8.63810294 11.16413146 9.29331857 10 10 C10.5625 8.1875 10.5625 8.1875 12 6 C14.31 5.01 16.62 4.02 19 3 C12.73 2.67 6.46 2.34 0 2 C0 1.34 0 0.68 0 0 Z " fill="#2B60D4" transform="translate(160,157)"/>
<path d="M0 0 C2.375 1.4375 2.375 1.4375 4 4 C4.62490595 7.13036999 4.63913023 9.87104069 4 13 C1.875 16.125 1.875 16.125 -1 18 C-4.97963376 18.16243403 -6.44873379 17.5077452 -9.375 14.8125 C-11.3064624 11.46958431 -11.55458833 9.80289143 -11 6 C-8.29635806 0.4698233 -6.14604628 -0.61460463 0 0 Z " fill="#2C60D3" transform="translate(336,187)"/>
<path d="M0 0 C3.4375 0.625 3.4375 0.625 5.875 2.75 C7.72805839 6.15962745 8.15338388 7.80695263 7.4375 11.625 C4.98155875 14.94774404 3.5118356 16.40118008 -0.5625 17.25 C-4.6368356 16.40118008 -6.10655875 14.94774404 -8.5625 11.625 C-9.1875 8.625 -9.1875 8.625 -8.5625 5.625 C-5.93038535 1.95599171 -4.47395674 0.78490469 0 0 Z " fill="#2562E9" transform="translate(408.5625,187.375)"/>
<path d="M0 0 C0.495 1.485 0.495 1.485 1 3 C0.67 3.66 0.34 4.32 0 5 C-0.99 5.33 -1.98 5.66 -3 6 C-3.40347656 6.65613281 -3.80695313 7.31226563 -4.22265625 7.98828125 C-6.81622827 10.92386276 -9.7341224 10.87148791 -13.4375 11.1875 C-19.28009242 11.73834839 -19.28009242 11.73834839 -25 13 C-25 13.66 -25 14.32 -25 15 C-24.34 15 -23.68 15 -23 15 C-22.67 15.99 -22.34 16.98 -22 18 C-22.33 18.66 -22.66 19.32 -23 20 C-21.68 20 -20.36 20 -19 20 C-19 20.66 -19 21.32 -19 22 C-20.11375 22.12375 -21.2275 22.2475 -22.375 22.375 C-26.03103677 22.6465813 -26.03103677 22.6465813 -28 25 C-28.1546875 24.0409375 -28.1546875 24.0409375 -28.3125 23.0625 C-28.539375 22.381875 -28.76625 21.70125 -29 21 C-29.99 20.67 -30.98 20.34 -32 20 C-32 19.34 -32 18.68 -32 18 C-30.35 18 -28.7 18 -27 18 C-27 12.39 -27 6.78 -27 1 C-25.02 2.65 -23.04 4.3 -21 6 C-15.45657546 7.84780818 -10.8439663 7.67815423 -5.625 5.1875 C-2.67501385 3.65374226 -1.94114712 2.91172069 0 0 Z " fill="#2B62D8" transform="translate(427,207)"/>
<path d="M0 0 C0.33 0.99 0.66 1.98 1 3 C1.66 3 2.32 3 3 3 C3.33 3.99 3.66 4.98 4 6 C2.375 8 2.375 8 0 10 C-3.25 10.25 -3.25 10.25 -6 10 C-6.33 11.32 -6.66 12.64 -7 14 C-10.42943519 15.18771723 -12.37784675 14.80226223 -15.75 13.5625 C-16.54921875 13.27503906 -17.3484375 12.98757812 -18.171875 12.69140625 C-18.77515625 12.46324219 -19.3784375 12.23507813 -20 12 C-20.38218767 10.34385343 -20.71395102 8.67542976 -21 7 C-19.22631653 5.22631653 -16.71104575 5.8272512 -14.3125 5.8125 C-9.82256034 5.83925769 -6.16091973 6.15070234 -2 8 C-1.34 5.36 -0.68 2.72 0 0 Z " fill="#2B5FD3" transform="translate(202,168)"/>
<path d="M0 0 C0.66 0 1.32 0 2 0 C2 16.17 2 32.34 2 49 C6.455 48.505 6.455 48.505 11 48 C8.875 50.125 8.875 50.125 6 52 C4.02 51.34 2.04 50.68 0 50 C0 33.5 0 17 0 0 Z " fill="#3363C5" transform="translate(383,178)"/>
<path d="M0 0 C0 0.66 0 1.32 0 2 C-1.65 2.33 -3.3 2.66 -5 3 C-4.01 4.32 -3.02 5.64 -2 7 C-5.19306305 8.06435435 -7.64443996 8.20065353 -11 8.25 C-12.5778125 8.28867187 -12.5778125 8.28867187 -14.1875 8.328125 C-17 8 -17 8 -18.875 6.671875 C-20 5 -20 5 -20 2 C-17.79248152 1.66131223 -15.58394089 1.32928311 -13.375 1 C-12.14523437 0.814375 -10.91546875 0.62875 -9.6484375 0.4375 C-6.3833973 0.04597484 -3.28287549 -0.08080924 0 0 Z " fill="#2B60D1" transform="translate(298,263)"/>
<path d="M0 0 C4.3622541 2.18112705 6.42003598 4.70751915 9.25 8.5 C9.93835938 9.39138672 9.93835938 9.39138672 10.640625 10.30078125 C14 14.72995722 14 14.72995722 14 17 C12.35 16.67 10.7 16.34 9 16 C8.67 16.66 8.34 17.32 8 18 C7.34 18 6.68 18 6 18 C4.71428571 10.57142857 4.71428571 10.57142857 6 7 C5.34 7 4.68 7 4 7 C4 6.34 4 5.68 4 5 C3.01 5.495 3.01 5.495 2 6 C1.67 12.6 1.34 19.2 1 26 C0.67 26 0.34 26 0 26 C0 17.42 0 8.84 0 0 Z " fill="#2F5FC9" transform="translate(195,254)"/>
<path d="M0 0 C2.73706304 2.22386372 3.88943111 3.4225847 4.5625 6.9375 C3.80057749 11.08574477 2.36344489 12.51397551 -1 15 C-4 15.625 -4 15.625 -7 15 C-9.875 12.875 -9.875 12.875 -12 10 C-12.3125 6.6875 -12.3125 6.6875 -12 4 C-10.02 4.66 -8.04 5.32 -6 6 C-6 7.65 -6 9.3 -6 11 C-3.69 11.33 -1.38 11.66 1 12 C0.979375 11.195625 0.95875 10.39125 0.9375 9.5625 C1 7 1 7 2 6 C1.01 5.34 0.02 4.68 -1 4 C-0.67 2.68 -0.34 1.36 0 0 Z " fill="#2862D7" transform="translate(412,189)"/>
<path d="M0 0 C0.33 0 0.66 0 1 0 C1.33 6.6 1.66 13.2 2 20 C1.34 20.33 0.68 20.66 0 21 C0 21.99 0 22.98 0 24 C-0.66 24.33 -1.32 24.66 -2 25 C-3.7243411 29.97015965 -4.45033703 34.77820176 -5 40 C-5.66 40 -6.32 40 -7 40 C-6.25235934 31.52989384 -4.58693873 23.26645255 -2.9375 14.9375 C-2.65266001 13.48509166 -2.36815212 12.03261814 -2.08398438 10.58007812 C-1.39314979 7.05262589 -0.6978262 3.52607661 0 0 Z " fill="#2D62D0" transform="translate(476,142)"/>
<path d="M0 0 C1.17949219 0.01804688 2.35898438 0.03609375 3.57421875 0.0546875 C4.92966797 0.08949219 4.92966797 0.08949219 6.3125 0.125 C6.3125 0.785 6.3125 1.445 6.3125 2.125 C2.0225 2.125 -2.2675 2.125 -6.6875 2.125 C-6.6875 11.365 -6.6875 20.605 -6.6875 30.125 C-8.3375 28.475 -9.9875 26.825 -11.6875 25.125 C-10.6975 24.795 -9.7075 24.465 -8.6875 24.125 C-8.73350342 23.46902832 -8.77950684 22.81305664 -8.8269043 22.13720703 C-9.02562063 19.17562492 -9.2005915 16.21310865 -9.375 13.25 C-9.44783203 12.21746094 -9.52066406 11.18492187 -9.59570312 10.12109375 C-9.65048828 9.13496094 -9.70527344 8.14882812 -9.76171875 7.1328125 C-9.81932373 6.22160645 -9.87692871 5.31040039 -9.9362793 4.37158203 C-9.81313354 3.25952393 -9.81313354 3.25952393 -9.6875 2.125 C-6.05554504 -0.29630331 -4.30400652 -0.08522785 0 0 Z " fill="#3561C4" transform="translate(225.6875,226.875)"/>
<path d="M0 0 C0 1.65 0 3.3 0 5 C-0.66 5 -1.32 5 -2 5 C-2.33 6.65 -2.66 8.3 -3 10 C-8.42857143 10.36190476 -8.42857143 10.36190476 -10.875 8.8125 C-12.34781139 6.43963721 -12.22223194 4.74086056 -12 2 C-11.67 2.66 -11.34 3.32 -11 4 C-10.34 4 -9.68 4 -9 4 C-8.67 3.01 -8.34 2.02 -8 1 C-1.125 0 -1.125 0 0 0 Z " fill="#2662E9" transform="translate(339,193)"/>
<path d="M0 0 C0.99 0.33 1.98 0.66 3 1 C3 2.65 3 4.3 3 6 C3.66 6 4.32 6 5 6 C5.25 8.3125 5.25 8.3125 5 11 C3 12.8125 3 12.8125 1 14 C0.34 13.67 -0.32 13.34 -1 13 C-0.67 13.99 -0.34 14.98 0 16 C-4.1969251 16 -8.36639558 15.65036831 -12.55078125 15.35546875 C-15.37507337 15.16049789 -18.16787996 15 -21 15 C-21 14.01 -21 13.02 -21 12 C-19.92621094 12.02320313 -18.85242188 12.04640625 -17.74609375 12.0703125 C-16.30990285 12.08908624 -14.87370435 12.1072847 -13.4375 12.125 C-12.73302734 12.14175781 -12.02855469 12.15851563 -11.30273438 12.17578125 C-6.48108178 12.22022044 -2.57702562 11.52768004 2 10 C1.855625 8.72125 1.71125 7.4425 1.5625 6.125 C1.44068359 5.04605469 1.44068359 5.04605469 1.31640625 3.9453125 C1.08707039 1.92595684 1.08707039 1.92595684 0 0 Z " fill="#2E61D0" transform="translate(296,268)"/>
<path d="M0 0 C-0.99 0.33 -1.98 0.66 -3 1 C-3.33 1.99 -3.66 2.98 -4 4 C-6.97 3.505 -6.97 3.505 -10 3 C-10 4.32 -10 5.64 -10 7 C-10.99 7.495 -10.99 7.495 -12 8 C-13.31745857 11.87918356 -14 14.88375865 -14 19 C-12.68 19 -11.36 19 -10 19 C-9.34 20.98 -8.68 22.96 -8 25 C-11.38552696 23.54905987 -13.68132949 21.8783496 -16 19 C-17.5015768 14.17350316 -16.93741719 10.63295414 -15 6 C-10.5715006 1.07803924 -6.47654215 -0.14392316 0 0 Z " fill="#2B61D1" transform="translate(217,416)"/>
<path d="M0 0 C0.66 1.65 1.32 3.3 2 5 C0.58461283 5.33872513 -0.83237963 5.67074624 -2.25 6 C-3.03890625 6.185625 -3.8278125 6.37125 -4.640625 6.5625 C-7 7 -7 7 -11 7 C-10.64780657 4.39376858 -10.23526531 2.39210885 -8.875 0.125 C-5.87289213 -1.67626472 -3.29820792 -0.68453372 0 0 Z " fill="#355EB6" transform="translate(288,252)"/>
<path d="M0 0 C3.26023324 0.22484367 4.93132641 0.5260489 7.625 2.25 C7.625 3.57 7.625 4.89 7.625 6.25 C9.0416747 8.0011573 9.0416747 8.0011573 10.625 9.25 C10.295 9.91 9.965 10.57 9.625 11.25 C9.07199219 10.7859375 8.51898438 10.321875 7.94921875 9.84375 C4.74807886 7.64868264 1.50142307 7.01169704 -2.23046875 6.09375 C-2.93816406 5.8153125 -3.64585937 5.536875 -4.375 5.25 C-4.705 4.26 -5.035 3.27 -5.375 2.25 C-3.375 0.25 -3.375 0.25 0 0 Z " fill="#345EC5" transform="translate(347.375,250.75)"/>
<path d="M0 0 C12.49867757 -0.40682856 12.49867757 -0.40682856 18 2 C20 4.5 20 4.5 21 7 C20.67 7.66 20.34 8.32 20 9 C18.53515625 7.73046875 17.0703125 6.4609375 15.60546875 5.19140625 C12.57561717 2.94297625 9.70169658 2.83986238 6.0625 2.8125 C4.78052734 2.79123047 4.78052734 2.79123047 3.47265625 2.76953125 C-1.31205975 3.21550004 -3.80200206 5.57357364 -7 9 C-7 7.02 -7 5.04 -7 3 C-3.535 2.505 -3.535 2.505 0 2 C0 1.34 0 0.68 0 0 Z " fill="#3261C3" transform="translate(407,175)"/>
<path d="M0 0 C0.66 0.33 1.32 0.66 2 1 C1.525625 2.134375 1.05125 3.26875 0.5625 4.4375 C-2.60744216 13.04162872 -1.95688157 20.15382304 0 29 C0.33598824 30.66613348 0.67012759 32.33264489 1 34 C-2.96831026 31.35445983 -3.02359029 29.6103119 -4 25 C-4.25690658 22.13819591 -4.28063176 19.30922757 -4.25 16.4375 C-4.25773438 15.70853516 -4.26546875 14.97957031 -4.2734375 14.22851562 C-4.25739185 9.77183661 -3.67116317 6.19780272 -2 2 C-1.34 2 -0.68 2 0 2 C0 1.34 0 0.68 0 0 Z " fill="#3462C6" transform="translate(179,412)"/>
<path d="M0 0 C2 2 2 2 2.23046875 5.22265625 C2.21628906 6.48980469 2.20210938 7.75695312 2.1875 9.0625 C2.18105469 10.33222656 2.17460937 11.60195312 2.16796875 12.91015625 C2 16 2 16 1 17 C0.83964641 18.49663346 0.72235494 19.99795239 0.625 21.5 C0.17103265 26.66480886 -1.14773274 31.17711543 -3 36 C-3.33 36 -3.66 36 -4 36 C-3.59990159 31.05141436 -3.10425669 26.22054428 -2 21.375 C-0.49094474 14.34775757 -0.33755959 7.15981656 0 0 Z " fill="#3262C5" transform="translate(481,106)"/>
<path d="M0 0 C1.52036025 3.04072051 2.36826591 5.03176451 3.0703125 8.22265625 C3.33134766 9.40118164 3.33134766 9.40118164 3.59765625 10.60351562 C3.85869141 11.82071289 3.85869141 11.82071289 4.125 13.0625 C4.30675781 13.87783203 4.48851562 14.69316406 4.67578125 15.53320312 C5.38598909 18.78253751 6 21.66079974 6 25 C5.34 25 4.68 25 4 25 C3.9175 24.0925 3.835 23.185 3.75 22.25 C2.89073449 18.52651612 1.72010026 17.55009399 -1 15 C-1.75 12.75 -1.75 12.75 -2 11 C-1.34 11 -0.68 11 0 11 C0 7.37 0 3.74 0 0 Z " fill="#2D60CC" transform="translate(139,257)"/>
<path d="M0 0 C0.66 0 1.32 0 2 0 C2 1.98 2 3.96 2 6 C2.66 6 3.32 6 4 6 C5.125 11.625 5.125 11.625 4 15 C4.66 15 5.32 15 6 15 C6 17.97 6 20.94 6 24 C6.66 24.33 7.32 24.66 8 25 C8 27.97 8 30.94 8 34 C7.67 34 7.34 34 7 34 C5.99738393 29.80211662 5.00064571 25.60289389 4.00927734 21.40234375 C3.67136357 19.97422878 3.33186021 18.54648895 2.99072266 17.11914062 C2.50002088 15.06477399 2.0150938 13.00911616 1.53125 10.953125 C1.23798828 9.71723633 0.94472656 8.48134766 0.64257812 7.20800781 C0 4 0 4 0 0 Z " fill="#3160C9" transform="translate(159,235)"/>
<path d="M0 0 C3.54807402 3.54807402 3.13233375 8.49961942 3.375 13.3125 C3.35876178 19.23945036 1.3195234 23.19854652 -2 28 C-3.32 27.67 -4.64 27.34 -6 27 C-5.195625 26.21625 -4.39125 25.4325 -3.5625 24.625 C0.6978448 20.26074436 0.32211806 16.91740831 0.30078125 11 C-0.11115509 6.89133625 -1.2949318 5.04320172 -4 2 C-2.68 2.33 -1.36 2.66 0 3 C0 2.01 0 1.02 0 0 Z " fill="#325FC8" transform="translate(204,185)"/>
<path d="M0 0 C1.98 0.99 1.98 0.99 4 2 C4 2.66 4 3.32 4 4 C4.99 3.67 5.98 3.34 7 3 C7.66 3.33 8.32 3.66 9 4 C9.12375 5.6396875 9.12375 5.6396875 9.25 7.3125 C9.60245537 11.25269541 9.60245537 11.25269541 13.0625 13.0625 C14.031875 13.701875 15.00125 14.34125 16 15 C16.375 18.25 16.375 18.25 16 21 C12.03048663 17.25180842 8.87046675 13.28298905 5.75 8.8125 C5.30398437 8.18408203 4.85796875 7.55566406 4.3984375 6.90820312 C1.16071429 2.32142857 1.16071429 2.32142857 0 0 Z " fill="#2D61CE" transform="translate(198,230)"/>
<path d="M0 0 C3.375 0.25 3.375 0.25 7 1 C8.4375 3.0625 8.4375 3.0625 9 5 C5.5858765 7.27608233 4.84289339 7.16488977 0.9375 6.6875 C0.05964844 6.58824219 -0.81820313 6.48898437 -1.72265625 6.38671875 C-4 6 -4 6 -6 5 C-6 4.34 -6 3.68 -6 3 C-5.01 3 -4.02 3 -3 3 C-3 3.66 -3 4.32 -3 5 C-2.01 4.67 -1.02 4.34 0 4 C0 2.68 0 1.36 0 0 Z " fill="#2D5ECB" transform="translate(338,266)"/>
<path d="M0 0 C0.99 0.33 1.98 0.66 3 1 C3.66 1 4.32 1 5 1 C6.10844919 4.32534757 5.84454356 6.62182575 5 10 C1.22272911 8.18690997 -2.37269822 6.0926741 -6 4 C-4.03617993 2.49440461 -2.21736634 1.10868317 0 0 Z " fill="#2961DA" transform="translate(234,392)"/>
<path d="M0 0 C0.33 0.66 0.66 1.32 1 2 C0.00390625 4.1640625 0.00390625 4.1640625 -1.4375 6.625 C-1.91058594 7.44226563 -2.38367188 8.25953125 -2.87109375 9.1015625 C-3.24363281 9.72804687 -3.61617188 10.35453125 -4 11 C-5.98 11 -7.96 11 -10 11 C-10 13.97 -10 16.94 -10 20 C-10.33 20 -10.66 20 -11 20 C-11 16.7 -11 13.4 -11 10 C-9.02 10 -7.04 10 -5 10 C-5 8.35 -5 6.7 -5 5 C-5.99 4.67 -6.98 4.34 -8 4 C-8 3.01 -8 2.02 -8 1 C-6.865625 1.020625 -5.73125 1.04125 -4.5625 1.0625 C-1.18424326 1.41577477 -1.18424326 1.41577477 0 0 Z " fill="#3063D0" transform="translate(398,232)"/>
<path d="M0 0 C0 0.66 0 1.32 0 2 C-0.928125 2.3403125 -0.928125 2.3403125 -1.875 2.6875 C-4.23871582 3.85311983 -4.23871582 3.85311983 -5 6.5625 C-5.33 7.366875 -5.66 8.17125 -6 9 C-7.9375 9.5625 -7.9375 9.5625 -10 10 C-11.03145371 11.30915279 -12.03542166 12.64082143 -13 14 C-13.66 14 -14.32 14 -15 14 C-13.1403353 8.25194546 -10.03335919 4.19609364 -4.8125 1.125 C-2 0 -2 0 0 0 Z " fill="#2B63D6" transform="translate(16,1)"/>
<path d="M0 0 C-1.423125 0.6496875 -1.423125 0.6496875 -2.875 1.3125 C-6.20041937 2.79302201 -6.20041937 2.79302201 -8 6 C-8.48412438 9.37198263 -8.46540366 12.62582344 -8 16 C-6.29039594 18.54645504 -6.29039594 18.54645504 -4 20 C-3.34 20.66 -2.68 21.32 -2 22 C-4.64 21.67 -7.28 21.34 -10 21 C-10 15.39 -10 9.78 -10 4 C-9.34 4 -8.68 4 -8 4 C-8 3.01 -8 2.02 -8 1 C-3.375 -1.125 -3.375 -1.125 0 0 Z " fill="#3260C7" transform="translate(339,244)"/>
<path d="M0 0 C13.81776765 -0.55353075 13.81776765 -0.55353075 19 3 C19 5.31 19 7.62 19 10 C18.01 10 17.02 10 16 10 C16.33 8.02 16.66 6.04 17 4 C14.1599454 3.05331513 12.54968291 2.92014518 9.625 3 C6.27033353 3.04378031 3.26946503 2.84373291 0 2 C0 1.34 0 0.68 0 0 Z " fill="#3262C9" transform="translate(340,241)"/>
<path d="M0 0 C0.33 0 0.66 0 1 0 C1.17015625 0.80824219 1.3403125 1.61648437 1.515625 2.44921875 C3.16295423 10.54896627 3.16295423 10.54896627 8 17 C11.11662908 18.80979141 11.11662908 18.80979141 14 20 C14 20.33 14 20.66 14 21 C6.5263755 20.50992626 6.5263755 20.50992626 4 18.0625 C3 16 3 16 3 14 C2.34 14 1.68 14 1 14 C0.04738513 9.23692563 -0.08333357 4.8333472 0 0 Z " fill="#335EC5" transform="translate(310,193)"/>
<path d="M0 0 C10.05598201 -0.10055982 19.98707052 -0.09945892 30 1 C30 1.99 30 2.98 30 4 C27.89551062 3.85890014 25.7914123 3.71195825 23.6875 3.5625 C22.51574219 3.48128906 21.34398437 3.40007813 20.13671875 3.31640625 C17 3 17 3 14 2 C11.60745424 1.77439324 9.21071877 1.59151405 6.8125 1.4375 C5.54019531 1.35371094 4.26789063 1.26992188 2.95703125 1.18359375 C1.98121094 1.12300781 1.00539062 1.06242187 0 1 C0 0.67 0 0.34 0 0 Z " fill="#325FC4" transform="translate(60,50)"/>
<path d="M0 0 C0.66 0 1.32 0 2 0 C1.54775239 5.91492272 0.8417395 11.35199888 -1 17 C-1.99 16.67 -2.98 16.34 -4 16 C-5.1875 13.4375 -5.1875 13.4375 -6 11 C-5.34 10.34 -4.68 9.68 -4 9 C-2.68 9 -1.36 9 0 9 C0 6.03 0 3.06 0 0 Z " fill="#2961D6" transform="translate(455,120)"/>
<path d="M0 0 C0.33 0 0.66 0 1 0 C1.08741124 3.56234428 1.14052896 7.12441108 1.1875 10.6875 C1.22520508 12.19860352 1.22520508 12.19860352 1.26367188 13.74023438 C1.35661003 23.12698842 1.35661003 23.12698842 -2 27 C-4.1875 28.3125 -4.1875 28.3125 -6 29 C-5.731875 28.360625 -5.46375 27.72125 -5.1875 27.0625 C-4.795625 26.051875 -4.40375 25.04125 -4 24 C-3.74734375 23.40316406 -3.4946875 22.80632812 -3.234375 22.19140625 C-0.45411289 14.981805 -0.2920121 7.64266163 0 0 Z " fill="#3260C3" transform="translate(433,422)"/>
<path d="M0 0 C1.47906892 -0.02689216 2.95827483 -0.04634621 4.4375 -0.0625 C5.26121094 -0.07410156 6.08492188 -0.08570313 6.93359375 -0.09765625 C9 0 9 0 10 1 C10.56223522 4.37341134 11 7.57770311 11 11 C9 13 9 13 5.875 13.125 C4.92625 13.08375 3.9775 13.0425 3 13 C6 11 6 11 8 11 C8 7.7 8 4.4 8 1 C6.576875 1.309375 6.576875 1.309375 5.125 1.625 C4.09375 1.74875 3.0625 1.8725 2 2 C1.34 1.34 0.68 0.68 0 0 Z " fill="#3162CB" transform="translate(409,268)"/>
<path d="M0 0 C6.625 -0.25 6.625 -0.25 10 2 C11.49470029 6.48410087 11.09166185 11.32524567 11 16 C10.67 16 10.34 16 10 16 C9.74476563 14.98679688 9.74476563 14.98679688 9.484375 13.953125 C7.64040309 7.16573903 5.92517107 3.95011405 0 0 Z " fill="#2960CE" transform="translate(270,177)"/>
<path d="M0 0 C3 1 3 1 5 4 C5.61510662 8.83039614 5.50957387 13.73372443 3 18 C1.125 19.875 1.125 19.875 -1 21 C-3.25 20.6875 -3.25 20.6875 -5 20 C-4.21625 19.566875 -3.4325 19.13375 -2.625 18.6875 C0.21698375 17.10779753 0.21698375 17.10779753 2 14 C2.3168217 11.62244051 2.3168217 11.62244051 2.25 9.0625 C2.25515625 8.20785156 2.2603125 7.35320312 2.265625 6.47265625 C1.98713633 3.88025433 1.30669172 2.23485766 0 0 Z " fill="#2E5FC3" transform="translate(446,362)"/>
<path d="M0 0 C2.73706304 2.22386372 3.88943111 3.4225847 4.5625 6.9375 C3.80057749 11.08574477 2.36344489 12.51397551 -1 15 C-4.3125 15.3125 -4.3125 15.3125 -7 15 C-3.93882432 12.37613513 -3.26826873 12 1 12 C0.979375 11.195625 0.95875 10.39125 0.9375 9.5625 C1 7 1 7 2 6 C1.01 5.34 0.02 4.68 -1 4 C-0.67 2.68 -0.34 1.36 0 0 Z " fill="#3061CC" transform="translate(412,189)"/>
<path d="M0 0 C1.32 0 2.64 0 4 0 C3.41509121 6.14154225 2.45933748 12.00679849 1 18 C0.67 18 0.34 18 0 18 C0 12 0 6 0 0 Z " fill="#2B64D3" transform="translate(423,272)"/>
<path d="M0 0 C1.65 0.33 3.3 0.66 5 1 C4.01 1.33 3.02 1.66 2 2 C1.7834375 2.928125 1.7834375 2.928125 1.5625 3.875 C0.80448687 6.73860516 -0.51696612 7.49513098 -3 9 C-3.66 9 -4.32 9 -5 9 C-5 7.02 -5 5.04 -5 3 C-3.68 3 -2.36 3 -1 3 C-0.67 2.01 -0.34 1.02 0 0 Z " fill="#2C61DA" transform="translate(375,393)"/>
<path d="M0 0 C1.98 1.65 3.96 3.3 6 5 C6.99 5.66 7.98 6.32 9 7 C6.69 7.33 4.38 7.66 2 8 C1.67 10.64 1.34 13.28 1 16 C0.67 16 0.34 16 0 16 C0 10.72 0 5.44 0 0 Z " fill="#305EC9" transform="translate(400,208)"/>
<path d="M0 0 C0.33 0 0.66 0 1 0 C1 4.62 1 9.24 1 14 C4.465 13.505 4.465 13.505 8 13 C5.33333333 15.66666667 2.66666667 18.33333333 0 21 C0 14.07 0 7.14 0 0 Z " fill="#2F5FC5" transform="translate(252,164)"/>
<path d="M0 0 C2 3 2 3 2 7 C2.66 7 3.32 7 4 7 C5.22899346 13.06815522 6.27560214 18.79895188 6 25 C3.6952522 21.09646319 2.87669922 16.87037658 1.875 12.5 C1.69324219 11.74074219 1.51148438 10.98148438 1.32421875 10.19921875 C0.49012744 6.61827036 0 3.72626421 0 0 Z " fill="#3061C3" transform="translate(151,201)"/>
<path d="M0 0 C0.33 0.99 0.66 1.98 1 3 C-4.75 8 -4.75 8 -7 8 C-7 8.66 -7 9.32 -7 10 C-15.42857143 13.42857143 -15.42857143 13.42857143 -20 13 C-17.8936903 11.93228541 -15.78216898 10.90078983 -13.6328125 9.921875 C-8.01036909 7.29456499 -4.1128575 4.65402296 0 0 Z " fill="#3061C8" transform="translate(440,312)"/>
<path d="M0 0 C0.66 0 1.32 0 2 0 C2.12117188 0.61488281 2.24234375 1.22976562 2.3671875 1.86328125 C2.53476562 2.67152344 2.70234375 3.47976562 2.875 4.3125 C3.03742188 5.11300781 3.19984375 5.91351563 3.3671875 6.73828125 C3.94478999 9.25301118 3.94478999 9.25301118 6 12 C5.236875 11.690625 4.47375 11.38125 3.6875 11.0625 C1.81210323 10.32106407 -0.08684652 9.63771783 -2 9 C-1.34 6.03 -0.68 3.06 0 0 Z " fill="#2C61D4" transform="translate(437,86)"/>
<path d="M0 0 C1.66611905 -0.042721 3.33382885 -0.04063832 5 0 C5.33 0.33 5.66 0.66 6 1 C8.32817964 1.36760731 10.6618385 1.70241581 13 2 C13 2.66 13 3.32 13 4 C11.88625 4.12375 10.7725 4.2475 9.625 4.375 C5.96896323 4.6465813 5.96896323 4.6465813 4 7 C3.896875 6.360625 3.79375 5.72125 3.6875 5.0625 C3.460625 4.381875 3.23375 3.70125 3 3 C2.01 2.67 1.02 2.34 0 2 C0 1.34 0 0.68 0 0 Z " fill="#2F62CB" transform="translate(395,225)"/>
<path d="M0 0 C0.66 0 1.32 0 2 0 C2 0.66 2 1.32 2 2 C2.66 2 3.32 2 4 2 C4 2.66 4 3.32 4 4 C3.01 4.33 2.02 4.66 1 5 C0.67 10.28 0.34 15.56 0 21 C-0.33 21 -0.66 21 -1 21 C-1.02888146 17.68751813 -1.04675799 14.37506833 -1.0625 11.0625 C-1.07087891 10.11697266 -1.07925781 9.17144531 -1.08789062 8.19726562 C-1.09111328 7.29814453 -1.09433594 6.39902344 -1.09765625 5.47265625 C-1.10289307 4.64000244 -1.10812988 3.80734863 -1.11352539 2.94946289 C-1 1 -1 1 0 0 Z " fill="#2A61DF" transform="translate(197,259)"/>
<path d="M0 0 C0 0.66 0 1.32 0 2 C-7.92 3.485 -7.92 3.485 -16 5 C-16 4.01 -16 3.02 -16 2 C-10.61972975 0.80911014 -5.54708616 -0.2919519 0 0 Z " fill="#275DC4" transform="translate(252,161)"/>
<path d="M0 0 C1.98 0 3.96 0 6 0 C6.66 2.97 7.32 5.94 8 9 C8.66 9 9.32 9 10 9 C10 10.65 10 12.3 10 14 C7.51077325 10.76400522 5.26403756 7.39605634 3 4 C2.01133494 2.65824027 1.0161846 1.32103998 0 0 Z " fill="#2B5FC8" transform="translate(421,402)"/>
<path d="M0 0 C0.66 0 1.32 0 2 0 C2 0.66 2 1.32 2 2 C3.32 2.33 4.64 2.66 6 3 C6 4.65 6 6.3 6 8 C6.66 8 7.32 8 8 8 C8 9.98 8 11.96 8 14 C7.34 13.01 6.68 12.02 6 11 C5.50242188 10.27683594 5.00484375 9.55367188 4.4921875 8.80859375 C3.95851562 8.02613281 3.42484375 7.24367188 2.875 6.4375 C2.33617187 5.65246094 1.79734375 4.86742187 1.2421875 4.05859375 C0 2 0 2 0 0 Z " fill="#3160CC" transform="translate(241,404)"/>
<path d="M0 0 C0.33 0 0.66 0 1 0 C1.33 4.29 1.66 8.58 2 13 C0.02 13.99 0.02 13.99 -2 15 C-1.03644647 4.44191344 -1.03644647 4.44191344 0 0 Z " fill="#295DD1" transform="translate(458,233)"/>
<path d="M0 0 C0.66 0 1.32 0 2 0 C1.6889315 2.06271639 1.37608484 4.12516466 1.0625 6.1875 C0.88847656 7.33605469 0.71445312 8.48460937 0.53515625 9.66796875 C0.08620687 12.46325212 -0.42082162 15.22933586 -1 18 C-1.33 18 -1.66 18 -2 18 C-2.3690205 5.33029613 -2.3690205 5.33029613 0 0 Z " fill="#3364CB" transform="translate(437,213)"/>
<path d="M0 0 C2.784293 2.784293 2.94910069 5.886863 3.625 9.625 C3.7590625 10.33140625 3.893125 11.0378125 4.03125 11.765625 C4.36110025 13.50911918 4.68146056 15.25440389 5 17 C4.01 16.34 3.02 15.68 2 15 C1.8125 11.875 1.8125 11.875 2 9 C1.34 9 0.68 9 0 9 C0 6.03 0 3.06 0 0 Z " fill="#325FC5" transform="translate(91,54)"/>
<path d="M0 0 C0 0.99 0 1.98 0 3 C-3.35725691 6.25851406 -6.5221629 7.75037104 -11 9 C-9.6875 7 -9.6875 7 -8 5 C-7.01 5 -6.02 5 -5 5 C-5 4.01 -5 3.02 -5 2 C-3.35 1.34 -1.7 0.68 0 0 Z " fill="#3560CE" transform="translate(495,490)"/>
<path d="M0 0 C1.98 0 3.96 0 6 0 C6.33 0.99 6.66 1.98 7 3 C4.04335481 4.4783226 1.25770263 4.06032783 -2 4 C-1.34 2.68 -0.68 1.36 0 0 Z " fill="#2562E6" transform="translate(281,253)"/>
<path d="M0 0 C0.33 0 0.66 0 1 0 C1.02717692 2.06242617 1.0464758 4.12495703 1.0625 6.1875 C1.07410156 7.33605469 1.08570313 8.48460937 1.09765625 9.66796875 C1.01192832 12.59300586 0.67849023 15.16316291 0 18 C-0.33 18 -0.66 18 -1 18 C-1.16834933 16.22932584 -1.33461909 14.45845388 -1.5 12.6875 C-1.5928125 11.70136719 -1.685625 10.71523437 -1.78125 9.69921875 C-2.10514296 5.70261092 -1.93008918 3.49828665 0 0 Z " fill="#2D63D7" transform="translate(444,173)"/>
<path d="M0 0 C2.31 1.98 4.62 3.96 7 6 C5.68 7.32 4.36 8.64 3 10 C1.4375 8.75 1.4375 8.75 0 7 C0.375 5 0.375 5 1 3 C0.67 2.01 0.34 1.02 0 0 Z " fill="#285ED0" transform="translate(185,453)"/>
<path d="M0 0 C0.66 0.33 1.32 0.66 2 1 C1.67 1.680625 1.34 2.36125 1 3.0625 C-0.71481897 8.09978073 -0.23890079 12.88953425 1 18 C-1.35559127 16.16645869 -1.96621481 15.15395784 -2.6171875 12.1875 C-2.70226562 11.135625 -2.78734375 10.08375 -2.875 9 C-2.97554687 7.948125 -3.07609375 6.89625 -3.1796875 5.8125 C-3 3 -3 3 -1.5078125 1.125 C-1.01023438 0.75375 -0.51265625 0.3825 0 0 Z " fill="#3061C3" transform="translate(167,168)"/>
<path d="M0 0 C1.9609375 0.3046875 1.9609375 0.3046875 4.375 0.875 C5.16648437 1.05804688 5.95796875 1.24109375 6.7734375 1.4296875 C8.53566943 1.8810662 10.27422954 2.42474318 12 3 C12.6875 5.0625 12.6875 5.0625 13 7 C12.34 6.67 11.68 6.34 11 6 C11 5.34 11 4.68 11 4 C10.07767578 4.05220703 10.07767578 4.05220703 9.13671875 4.10546875 C8.32847656 4.13253906 7.52023437 4.15960938 6.6875 4.1875 C5.48673828 4.23970703 5.48673828 4.23970703 4.26171875 4.29296875 C1.52148416 3.93801608 0.70828921 3.10633718 -1 1 C-0.67 0.67 -0.34 0.34 0 0 Z " fill="#315FD1" transform="translate(443,99)"/>
<path d="M0 0 C2.5 1.0625 2.5 1.0625 5 3 C5.25 6.5625 5.25 6.5625 5 10 C5.33 10.66 5.66 11.32 6 12 C3 11 3 11 2.05078125 9.2578125 C1.80714844 8.55398438 1.56351563 7.85015625 1.3125 7.125 C1.06113281 6.42632812 0.80976563 5.72765625 0.55078125 5.0078125 C0 3 0 3 0 0 Z " fill="#315FCD" transform="translate(185,346)"/>
<path d="M0 0 C6.93 0.495 6.93 0.495 14 1 C14 1.66 14 2.32 14 3 C12.04233719 3.08082094 10.08373272 3.13910778 8.125 3.1875 C6.48917969 3.23970703 6.48917969 3.23970703 4.8203125 3.29296875 C3.88960938 3.19628906 2.95890625 3.09960938 2 3 C1.34 2.01 0.68 1.02 0 0 Z " fill="#3361C7" transform="translate(324,214)"/>
<path d="M0 0 C0.99 0.66 1.98 1.32 3 2 C3.328125 4.09375 3.328125 4.09375 3.25 6.5 C3.23453125 7.2940625 3.2190625 8.088125 3.203125 8.90625 C3 11 3 11 2 13 C1.34 13 0.68 13 0 13 C0 11.68 0 10.36 0 9 C0.66 9 1.32 9 2 9 C1.73323796 7.01508358 1.73323796 7.01508358 1 5 C0.01 4.67 -0.98 4.34 -2 4 C-1.34 2.68 -0.68 1.36 0 0 Z " fill="#2D62CD" transform="translate(337,189)"/>
<path d="M0 0 C3.68754757 0.49831724 5.60490662 1.10067643 8 4 C7.67 4.99 7.34 5.98 7 7 C4.13302508 5.71480435 2.02392288 4.42870746 0 2 C0 1.34 0 0.68 0 0 Z " fill="#2A61D4" transform="translate(385,434)"/>
<path d="M0 0 C1.32 0 2.64 0 4 0 C5.20568053 4.67201205 5.09382426 9.21496292 5 14 C4.34 13.67 3.68 13.34 3 13 C2.73722045 11.02915339 2.48088412 9.05675585 2.28515625 7.078125 C1.9329944 4.51168523 1.09601698 2.33816955 0 0 Z " fill="#3163C7" transform="translate(297,249)"/>
<path d="M0 0 C1.62974564 0.76074843 3.25366648 1.53398433 4.875 2.3125 C5.77992188 2.74175781 6.68484375 3.17101562 7.6171875 3.61328125 C10 5 10 5 12 8 C10.68 7.67 9.36 7.34 8 7 C8 6.34 8 5.68 8 5 C6.88625 4.896875 5.7725 4.79375 4.625 4.6875 C2.830625 4.3471875 2.830625 4.3471875 1 4 C0.34 3.01 -0.32 2.02 -1 1 C-0.67 0.67 -0.34 0.34 0 0 Z " fill="#3361CD" transform="translate(483,0)"/>
<path d="M0 0 C1.32 0 2.64 0 4 0 C3.67 3.96 3.34 7.92 3 12 C0.8008587 7.60171741 0.48144941 4.81449408 0 0 Z " fill="#2A60CD" transform="translate(182,334)"/>
<path d="M0 0 C0.99 0 1.98 0 3 0 C4.60546875 1.96875 4.60546875 1.96875 6.1875 4.5 C6.71730469 5.3353125 7.24710938 6.170625 7.79296875 7.03125 C8.19128906 7.6809375 8.58960938 8.330625 9 9 C7.68 9 6.36 9 5 9 C5 7.68 5 6.36 5 5 C4.34 5 3.68 5 3 5 C3 4.34 3 3.68 3 3 C2.01 3.33 1.02 3.66 0 4 C0 2.68 0 1.36 0 0 Z " fill="#2D5AC9" transform="translate(196,256)"/>
<path d="M0 0 C0.99 0.33 1.98 0.66 3 1 C2.67 5.29 2.34 9.58 2 14 C0.06604999 10.13209997 -0.23289353 8.8499541 -0.125 4.75 C-0.09792969 3.41195312 -0.09792969 3.41195312 -0.0703125 2.046875 C-0.04710937 1.37140625 -0.02390625 0.6959375 0 0 Z " fill="#2A62D8" transform="translate(157,220)"/>
<path d="M0 0 C-0.66 1.32 -1.32 2.64 -2 4 C-2.94875 3.979375 -3.8975 3.95875 -4.875 3.9375 C-7.90666283 3.77448174 -7.90666283 3.77448174 -10 5 C-7.62417533 -0.26075462 -5.61350876 -0.1220328 0 0 Z " fill="#2A61D2" transform="translate(411,188)"/>
<path d="M0 0 C2.97 0.495 2.97 0.495 6 1 C4.02 5.455 4.02 5.455 2 10 C1.67 10 1.34 10 1 10 C0.67 6.7 0.34 3.4 0 0 Z " fill="#2F61D0" transform="translate(310,182)"/>
<path d="M0 0 C1.32 0.33 2.64 0.66 4 1 C1.15240273 4.04398329 -0.69846555 5.88998401 -5.04296875 6.09765625 C-5.75066406 6.08605469 -6.45835937 6.07445312 -7.1875 6.0625 C-9.0746875 6.0315625 -9.0746875 6.0315625 -11 6 C-11 5.67 -11 5.34 -11 5 C-7.7 4.34 -4.4 3.68 -1 3 C-0.67 2.01 -0.34 1.02 0 0 Z " fill="#3460C6" transform="translate(220,436)"/>
<path d="M0 0 C2 2 2 2 2.265625 4.09375 C2.26046875 4.8878125 2.2553125 5.681875 2.25 6.5 C2.25515625 7.2940625 2.2603125 8.088125 2.265625 8.90625 C2 11 2 11 0 13 C0 12.34 0 11.68 0 11 C-0.66 10.67 -1.32 10.34 -2 10 C-1.01 9.67 -0.02 9.34 1 9 C0.67 8.401875 0.34 7.80375 0 7.1875 C-1 5 -1 5 -1 2 C-0.67 1.34 -0.34 0.68 0 0 Z " fill="#3061D6" transform="translate(224,423)"/>
<path d="M0 0 C0.99 0.33 1.98 0.66 3 1 C3.33 2.98 3.66 4.96 4 7 C2.35 7 0.7 7 -1 7 C-0.67 4.69 -0.34 2.38 0 0 Z " fill="#2763EB" transform="translate(181,196)"/>
<path d="M0 0 C1.98 0 3.96 0 6 0 C6.33 1.32 6.66 2.64 7 4 C4.36 3.67 1.72 3.34 -1 3 C-0.67 2.01 -0.34 1.02 0 0 Z " fill="#2461E2" transform="translate(345,252)"/>
<path d="M0 0 C0 3 0 3 -2.0625 5.25 C-5.83273798 7.49609922 -7.82015699 6.98349247 -12 6 C-9.64313365 4.73091812 -7.43690039 3.81980812 -4.875 3 C-1.91349276 2.20386671 -1.91349276 2.20386671 0 0 Z " fill="#2963D5" transform="translate(350,209)"/>
<path d="M0 0 C1.485 0.99 1.485 0.99 3 2 C3.29296875 4.6015625 3.29296875 4.6015625 3.1875 7.625 C3.16042969 8.62789062 3.13335937 9.63078125 3.10546875 10.6640625 C3.07066406 11.43492187 3.03585938 12.20578125 3 13 C1.32889958 10.03821227 0.67317248 7.62928808 0.375 4.25 C0.30023438 3.45078125 0.22546875 2.6515625 0.1484375 1.828125 C0.09945312 1.22484375 0.05046875 0.6215625 0 0 Z " fill="#2E61CB" transform="translate(148,187)"/>
<path d="M0 0 C0.33 0 0.66 0 1 0 C1.08114106 1.77007714 1.13925505 3.54122098 1.1875 5.3125 C1.23970703 6.79169922 1.23970703 6.79169922 1.29296875 8.30078125 C1 11 1 11 -0.51171875 12.85546875 C-1.00285156 13.23316406 -1.49398438 13.61085938 -2 14 C-1.03644647 4.58997722 -1.03644647 4.58997722 0 0 Z " fill="#3360C9" transform="translate(448,284)"/>
<path d="M0 0 C4.75 0.875 4.75 0.875 7 2 C6.67 3.98 6.34 5.96 6 8 C3.87961365 5.38485683 1.86908256 2.80362384 0 0 Z " fill="#2B5ECF" transform="translate(107,36)"/>
<path d="M0 0 C0.66 0.33 1.32 0.66 2 1 C1.4375 2.9375 1.4375 2.9375 0 5 C-3.625 5.75 -3.625 5.75 -7 6 C-6.21625 5.38125 -5.4325 4.7625 -4.625 4.125 C-2.03162353 2.10141339 -2.03162353 2.10141339 0 0 Z " fill="#3062CA" transform="translate(421,456)"/>
<path d="M0 0 C-0.7425 0.556875 -1.485 1.11375 -2.25 1.6875 C-4.91707995 3.93027178 -6.91556232 6.22074975 -9 9 C-9.36337162 5.72965541 -9.28544288 4.39116247 -7.3125 1.6875 C-4.60883753 -0.28544288 -3.27034459 -0.36337162 0 0 Z " fill="#335FC7" transform="translate(448,77)"/>
<path d="M0 0 C1.09658936 3.28976808 0.79953138 4.71303767 0 8 C2.97 8.495 2.97 8.495 6 9 C5.360625 9.12375 4.72125 9.2475 4.0625 9.375 C3.381875 9.58125 2.70125 9.7875 2 10 C1.67 10.66 1.34 11.32 1 12 C-1.44576827 8.33134759 -1.23607254 6.32799657 -1 2 C-0.67 1.34 -0.34 0.68 0 0 Z " fill="#3C65C0" transform="translate(331,271)"/>
<path d="M0 0 C0 0.99 0 1.98 0 3 C0.99 3 1.98 3 3 3 C2.67 3.99 2.34 4.98 2 6 C0.02 5.01 -1.96 4.02 -4 3 C-4 2.34 -4 1.68 -4 1 C-2 0 -2 0 0 0 Z " fill="#2E5FD2" transform="translate(14,494)"/>
<path d="M0 0 C0.33 0 0.66 0 1 0 C1.66 3.96 2.32 7.92 3 12 C2.01 11.34 1.02 10.68 0 10 C-0.29296875 7.6171875 -0.29296875 7.6171875 -0.1875 4.875 C-0.16042969 3.96492188 -0.13335937 3.05484375 -0.10546875 2.1171875 C-0.07066406 1.41851562 -0.03585938 0.71984375 0 0 Z " fill="#2F5FC2" transform="translate(155,325)"/>
<path d="M0 0 C0.6875 1.75 0.6875 1.75 1 4 C-0.3125 6.25 -0.3125 6.25 -2 8 C-2.66 8 -3.32 8 -4 8 C-2.87548273 5.0280615 -1.77706209 2.66559313 0 0 Z " fill="#3963C7" transform="translate(5,7)"/>
<path d="M0 0 C-1.39789678 2.79579355 -3.2628997 3.59807058 -6 5 C-6.66 4.67 -7.32 4.34 -8 4 C-7.67 3.01 -7.34 2.02 -7 1 C-4.53721199 -0.231394 -2.7204945 -0.07159196 0 0 Z " fill="#2E63CA" transform="translate(276,243)"/>
<path d="M0 0 C2.97 0.495 2.97 0.495 6 1 C5.34 2.32 4.68 3.64 4 5 C2.68 4.67 1.36 4.34 0 4 C0 2.68 0 1.36 0 0 Z " fill="#1F62E5" transform="translate(190,177)"/>
<path d="M0 0 C2.31 0 4.62 0 7 0 C7 0.66 7 1.32 7 2 C5.35 2 3.7 2 2 2 C1.67 2.66 1.34 3.32 1 4 C0.67 2.68 0.34 1.36 0 0 Z " fill="#325CC0" transform="translate(278,265)"/>
<path d="M0 0 C2.64 0 5.28 0 8 0 C8 0.66 8 1.32 8 2 C4.71023192 3.09658936 3.28696233 2.79953138 0 2 C0 1.34 0 0.68 0 0 Z " fill="#3D6CC7" transform="translate(340,241)"/>
<path d="M0 0 C0.99 0 1.98 0 3 0 C4.75 2.375 4.75 2.375 6 5 C5.67 5.66 5.34 6.32 5 7 C2.5 5.1875 2.5 5.1875 0 3 C0 2.01 0 1.02 0 0 Z " fill="#305AD4" transform="translate(422,177)"/>
<path d="M0 0 C0 2.31 0 4.62 0 7 C-0.33 6.01 -0.66 5.02 -1 4 C-2.65 3.67 -4.3 3.34 -6 3 C-4.1132732 1.1132732 -2.83087714 0 0 0 Z " fill="#245CC7" transform="translate(204,161)"/>
<path d="M0 0 C0.66 0 1.32 0 2 0 C2 0.66 2 1.32 2 2 C2.99 2 3.98 2 5 2 C5.33 2.99 5.66 3.98 6 5 C5.01 6.485 5.01 6.485 4 8 C2.68 5.36 1.36 2.72 0 0 Z " fill="#3162CB" transform="translate(473,88)"/>
<path d="" fill="#FFFFFF" transform="translate(0,0)"/>
<path d="" fill="#FFFFFF" transform="translate(0,0)"/>
<path d="" fill="#FFFFFF" transform="translate(0,0)"/>
<path d="" fill="#FFFFFF" transform="translate(0,0)"/>
<path d="" fill="#FFFFFF" transform="translate(0,0)"/>
<path d="" fill="#FFFFFF" transform="translate(0,0)"/>
<path d="" fill="#FFFFFF" transform="translate(0,0)"/>
<path d="" fill="#FFFFFF" transform="translate(0,0)"/>
<path d="" fill="#FFFFFF" transform="translate(0,0)"/>
<path d="" fill="#FFFFFF" transform="translate(0,0)"/>
<path d="" fill="#FFFFFF" transform="translate(0,0)"/>
<path d="" fill="#FFFF00" transform="translate(0,0)"/>
<path d="" fill="#FFFFFF" transform="translate(0,0)"/>
<path d="" fill="#FFFFFF" transform="translate(0,0)"/>
<path d="" fill="#FFFFFF" transform="translate(0,0)"/>
<path d="" fill="#FFFFFF" transform="translate(0,0)"/>
<path d="" fill="#FFFFFF" transform="translate(0,0)"/>
<path d="" fill="#FFFFFF" transform="translate(0,0)"/>
<path d="" fill="#FFFFFF" transform="translate(0,0)"/>
</svg>
