<?xml version="1.0" encoding="UTF-8"?>
<svg version="1.1" xmlns="http://www.w3.org/2000/svg" width="500" height="500">
<path d="M0 0 C1.34202371 -0.00330316 2.68404644 -0.00702967 4.02606791 -0.01114148 C7.70381759 -0.02111849 11.38155094 -0.02487132 15.05931222 -0.02753079 C19.03026604 -0.03144673 23.00120709 -0.04102421 26.97215271 -0.04974365 C36.55783503 -0.06947301 46.14351835 -0.07957036 55.72921589 -0.08847144 C60.25011849 -0.09286063 64.77101993 -0.09822585 69.29192162 -0.10346031 C84.33260384 -0.12047001 99.37328535 -0.13496196 114.41397572 -0.14220905 C118.31396295 -0.14411876 122.21395017 -0.14603912 126.11393738 -0.147995 C127.08318831 -0.14847874 128.05243924 -0.14896248 129.05106141 -0.14946087 C144.73598579 -0.15775295 160.42083371 -0.18307713 176.10572473 -0.21557567 C192.23131173 -0.24871321 208.35685997 -0.2666639 224.48248118 -0.26985329 C233.52733809 -0.27201233 242.57208353 -0.2806717 251.61690712 -0.30631447 C259.32339095 -0.32811323 267.02973623 -0.33602712 274.7362474 -0.32634769 C278.66157586 -0.32182922 282.586619 -0.32354428 286.51190758 -0.34310913 C324.47272722 -0.52188169 324.47272722 -0.52188169 340.74015808 7.89717102 C341.43520447 8.24223694 342.13025085 8.58730286 342.84635925 8.94282532 C366.24177052 20.8307924 383.95861547 39.78914868 393.86515808 64.14717102 C394.23511902 65.0520929 394.60507996 65.95701477 394.98625183 66.88935852 C399.19236861 77.76671546 400.16174206 88.2035452 400.13258362 99.807724 C400.13632791 101.15803892 400.14093251 102.50835167 400.14631426 103.85866106 C400.15846368 107.54072926 400.1582934 111.22270605 400.15592551 114.90478969 C400.15551529 118.88724948 400.16657606 122.86968077 400.17604065 126.85212708 C400.19260765 134.64420275 400.19814826 142.43624816 400.19926541 150.22833999 C400.20021799 156.5670857 400.20433875 162.90582149 400.21066666 169.24456406 C400.22826785 187.24417251 400.23750736 205.24375718 400.23600571 223.2433743 C400.2359258 224.21242312 400.23584588 225.18147193 400.23576355 226.17988586 C400.23568179 227.15012772 400.23560003 228.12036957 400.23551579 229.12001269 C400.23470336 244.83446232 400.25383317 260.54881601 400.28204028 276.26323791 C400.31082199 292.42624243 400.32457765 308.58920023 400.32285273 324.752231 C400.32219062 333.81543367 400.32760401 342.87853576 400.34920883 351.94171524 C400.36749042 359.65984953 400.37171107 367.37783764 400.35818999 375.0959843 C400.35169514 379.02728643 400.3514155 382.95830871 400.36889648 386.88958359 C400.44676981 405.56106734 400.30651335 423.14502843 392.17765808 440.39717102 C391.83517029 441.14112122 391.4926825 441.88507141 391.13981628 442.65156555 C379.05141369 468.0642807 357.67034837 485.36561564 332.02140808 495.82295227 C321.46703684 499.45580409 310.93987616 500.58934091 299.84384155 500.53485107 C298.49093557 500.53903631 297.13803311 500.54452027 295.785137 500.55117089 C292.10980047 500.56548866 288.43469078 500.56142419 284.75934255 500.55400407 C280.77897372 500.54924039 276.79865175 500.56181035 272.81829834 500.57202148 C265.0366427 500.58915295 257.255068 500.59006124 249.47339841 500.58480858 C243.14330174 500.58075484 236.81322886 500.58222469 230.48313332 500.58755684 C229.57961998 500.58830526 228.67610664 500.58905368 227.74521411 500.58982478 C225.90927701 500.59135638 224.07333992 500.59289473 222.23740283 500.59443975 C205.04863266 500.60814451 187.85990809 500.60274151 170.67113898 500.59125454 C154.97627549 500.58132573 139.28152996 500.59426036 123.58668467 500.61818873 C107.4371399 500.64262316 91.28764996 500.65217686 75.13808709 500.64553601 C66.08499586 500.64205324 57.03199525 500.64421323 47.97891808 500.66178703 C40.27182802 500.67656353 32.56489242 500.67707378 24.85780521 500.65971612 C20.93256367 500.65124806 17.0075974 500.64895259 13.08237076 500.66436768 C-5.61233623 500.73257172 -23.19225569 500.58014534 -40.44734192 492.39717102 C-41.19387024 492.0521051 -41.94039856 491.70703918 -42.70954895 491.35151672 C-54.45225337 485.77632671 -63.94647234 478.20483833 -73.13484192 469.14717102 C-74.23118958 468.0701593 -74.23118958 468.0701593 -75.34968567 466.97138977 C-83.61869393 458.27665039 -89.35964526 447.56300926 -94.00984192 436.58467102 C-94.28384827 435.94980774 -94.55785461 435.31494446 -94.84016418 434.6608429 C-99.32774075 423.5108233 -100.58086964 412.02673289 -100.51579285 400.10566711 C-100.51925977 398.75062371 -100.52403121 397.39558313 -100.52997458 396.04054832 C-100.54237239 392.3594129 -100.53636613 388.67851406 -100.52701592 384.99737835 C-100.52017918 381.01093722 -100.5307294 377.02453449 -100.53895569 373.0381012 C-100.55224624 365.24541496 -100.54943624 357.45281576 -100.54071777 349.66012621 C-100.53392313 343.32285381 -100.53303217 336.98560569 -100.53628922 330.64833069 C-100.53674891 329.74395118 -100.53720861 328.83957167 -100.53768224 327.90778673 C-100.53864149 326.07015243 -100.53961413 324.23251815 -100.54060002 322.39488387 C-100.54914021 305.19189471 -100.53934134 287.98895363 -100.52319892 270.78597236 C-100.50979699 256.04762389 -100.51212547 241.30934633 -100.5259552 226.57099915 C-100.54203528 209.42659909 -100.54831636 192.28224109 -100.53911841 175.13783455 C-100.53816283 173.30722682 -100.53721972 171.47661909 -100.53628922 169.64601135 C-100.53582639 168.74548298 -100.53536356 167.84495461 -100.53488671 166.9171375 C-100.5323041 160.59266162 -100.53665204 154.26821257 -100.54372787 147.94374084 C-100.55217011 140.22889795 -100.54980576 132.51414654 -100.53388564 124.79931402 C-100.5260394 120.86841393 -100.52284849 116.93766599 -100.5328331 113.00676727 C-100.54185688 109.39939643 -100.53672275 105.79231693 -100.52090044 102.18497205 C-100.51602972 100.28125476 -100.52567991 98.37751679 -100.53607213 96.47382164 C-100.37873651 73.10861179 -90.89232644 50.30310107 -75.13484192 33.14717102 C-74.69156555 32.65619934 -74.24828918 32.16522766 -73.7915802 31.65937805 C-59.90674097 16.42133486 -40.61673735 4.71822195 -20.13484192 1.14717102 C-18.72483146 0.88960132 -18.72483146 0.88960132 -17.28633595 0.62682819 C-11.55781116 -0.17581637 -5.77210672 -0.00085842 0 0 Z " fill="#2563E9" transform="translate(100.13484191894531,-0.1471710205078125)"/>
<path d="M0 0 C1.0607222 0.00022659 2.1214444 0.00045319 3.21430969 0.00068665 C4.34781357 0.0161705 5.48131744 0.03165436 6.64916992 0.04760742 C7.81848557 0.05185226 8.98780121 0.05609711 10.19255066 0.06047058 C13.92181567 0.07724333 17.65053739 0.11489425 21.37963867 0.15307617 C23.91022982 0.16812477 26.44082945 0.18181286 28.97143555 0.1940918 C35.17018816 0.22714234 41.36862459 0.27732847 47.56713867 0.34057617 C47.24479248 1.42250244 46.92244629 2.50442871 46.59033203 3.61914062 C43.95401107 13.20764943 44.73080118 22.80807915 49.02807617 31.75073242 C53.72572747 39.65566342 60.82838171 44.27315171 69.57885742 46.95776367 C78.79982486 48.73311693 87.71559236 46.71212124 95.81713867 42.15307617 C108.32649794 33.60584464 116.55831341 12.60602038 123.56713867 0.34057617 C178.01713867 0.34057617 232.46713867 0.34057617 288.56713867 0.34057617 C293.84713867 9.58057617 299.12713867 18.82057617 304.56713867 28.34057617 C311.61476869 38.40861906 316.067892 43.66720571 327.56713867 47.34057617 C337.32914552 48.72668637 346.24563148 47.09870272 354.33276367 41.38745117 C359.88221532 36.74668167 363.45549013 32.28643899 365.56713867 25.34057617 C365.75791992 24.7347168 365.94870117 24.12885742 366.14526367 23.50463867 C366.73185308 20.49565228 366.73804131 17.59194867 366.75463867 14.52807617 C366.76881836 13.34600586 366.78299805 12.16393555 366.79760742 10.94604492 C366.55531101 7.15554342 365.65837067 3.96621272 364.56713867 0.34057617 C371.86275321 0.23902592 379.15818496 0.16904726 386.4543457 0.12084961 C388.93553478 0.10075376 391.41667662 0.07347233 393.89770508 0.03881836 C397.46732249 -0.00978676 401.03631283 -0.03241355 404.60620117 -0.05004883 C405.71266998 -0.07069397 406.81913879 -0.09133911 407.95913696 -0.11260986 C413.96677183 -0.11435405 417.97099093 0.03048045 422.56713867 4.34057617 C426.00043832 8.47294963 426.00659048 12.54696221 425.96557617 17.71166992 C425.96844635 18.5116188 425.97131653 19.31156769 425.97427368 20.13575745 C425.97630927 21.82260854 425.97081481 23.50948352 425.95825195 25.19628906 C425.94221147 27.76641131 425.95810609 30.33495612 425.97729492 32.9050293 C425.97531199 34.54891295 425.97146727 36.19279563 425.96557617 37.83666992 C425.97164886 38.59934677 425.97772156 39.36202362 425.98397827 40.14781189 C425.92184845 44.90570586 425.29986929 48.28029532 422.56713867 52.34057617 C418.93355259 55.25457197 416.20275137 55.70420098 411.61010742 55.63354492 C410.49829102 55.62387695 409.38647461 55.61420898 408.2409668 55.60424805 C407.09047852 55.57911133 405.93999023 55.55397461 404.75463867 55.52807617 C402.99990234 55.50777344 402.99990234 55.50777344 401.2097168 55.48706055 C398.32838667 55.45177895 395.44799963 55.40247897 392.56713867 55.34057617 C392.32737305 56.57549805 392.08760742 57.81041992 391.84057617 59.08276367 C390.49801066 65.08358941 388.35674995 70.71983328 386.19213867 76.46557617 C385.19060044 79.15592945 384.193705 81.84800151 383.19604492 84.53979492 C382.91883102 85.28598587 382.64161713 86.03217682 382.35600281 86.80097961 C378.65507863 96.77358462 375.03302996 106.77497794 371.4024353 116.77334595 C370.11995591 120.3047383 368.83649581 123.83577273 367.55273438 127.36669922 C363.53063197 138.42976902 359.51103106 149.49374343 355.49513245 160.55906677 C353.7173758 165.45694559 351.93867967 170.35448297 350.15988159 175.25198364 C349.32308385 177.55672301 348.48674047 179.86162741 347.65090942 182.16671753 C345.34940652 188.5138232 343.03684212 194.85670807 340.7131958 201.19573975 C339.51703779 204.47805544 338.3395172 207.76673765 337.16235352 211.0559082 C336.37461551 213.22520179 335.58638414 215.3943163 334.79760742 217.56323242 C334.44612137 218.55922958 334.09463531 219.55522675 333.73249817 220.58140564 C329.38271215 232.43278944 329.38271215 232.43278944 323.56713867 235.34057617 C322.2117611 235.435639 320.85184172 235.46972701 319.49313641 235.47200394 C318.63532249 235.47584508 317.77750858 235.47968623 316.8937003 235.48364377 C315.9457633 235.48277729 314.9978263 235.48191081 314.02116394 235.48101807 C312.51706159 235.48547475 312.51706159 235.48547475 310.98257333 235.49002147 C307.60084136 235.49873784 304.21914467 235.50021919 300.83740234 235.50170898 C298.42160465 235.50633507 296.00580769 235.51135945 293.5900116 235.51675415 C287.01149255 235.52990014 280.43298087 235.5363638 273.85445189 235.54076481 C269.74806765 235.54352569 265.64168577 235.54776277 261.53530312 235.55226898 C250.16976539 235.5644632 238.80422955 235.57476205 227.43868542 235.57814407 C226.34712894 235.57847342 226.34712894 235.57847342 225.23352082 235.57880943 C224.50405712 235.5790277 223.77459341 235.57924598 223.02302474 235.57947087 C221.54480946 235.57991434 220.06659418 235.58036091 218.58837891 235.58081055 C217.48850589 235.58114269 217.48850589 235.58114269 216.36641321 235.58148155 C204.48441423 235.58542978 192.60247656 235.60288388 180.72050127 235.62617007 C168.52644754 235.64987528 156.33242459 235.66234555 144.13834745 235.66351199 C137.28981616 235.66442925 130.44136476 235.6701942 123.59285545 235.6883316 C117.15215418 235.70532862 110.71156417 235.7069914 104.27084541 235.6981926 C101.90409311 235.69741962 99.53733281 235.70179903 97.17060089 235.71165085 C93.94490585 235.72429291 90.71975501 235.71853551 87.49406433 235.70806885 C86.08219708 235.72015345 86.08219708 235.72015345 84.64180726 235.73248219 C79.7999324 235.69562241 76.48540169 235.52298728 72.56713867 232.34057617 C68.11342636 225.79315214 66.38717328 216.88873108 64.06713867 209.39916992 C63.6347635 208.01748822 63.20190952 206.63595627 62.76861572 205.25456238 C61.60421961 201.53771147 60.44640462 197.81884074 59.28981018 194.09955597 C58.07203493 190.18762558 56.84807949 186.27762974 55.62475586 182.36743164 C53.60161709 175.89807513 51.58203769 169.42761787 49.56518555 162.95629883 C46.72281089 153.83643898 43.87261699 144.71903793 41.02026367 135.60229492 C37.353516 123.8808814 33.68767238 112.15918669 30.03210449 100.4342804 C28.19013847 94.52817172 26.34308094 88.62378696 24.48358536 82.72317696 C23.54501743 79.74414417 22.60851427 76.76446401 21.67214203 73.78474045 C21.2194472 72.34624534 20.76572923 70.90807179 20.31095123 69.47023392 C19.68123162 67.47907671 19.05497247 65.48686168 18.42944336 63.49438477 C18.06937195 62.352789 17.70930054 61.21119324 17.33831787 60.03500366 C16.56713867 57.34057617 16.56713867 57.34057617 16.56713867 55.34057617 C15.90182129 55.36676025 15.23650391 55.39294434 14.55102539 55.41992188 C11.51497332 55.52433077 8.47929957 55.58903965 5.44213867 55.65307617 C4.39541992 55.6949707 3.34870117 55.73686523 2.27026367 55.7800293 C-6.46428459 55.91823417 -6.46428459 55.91823417 -10.05004883 53.13354492 C-14.33058305 48.11619743 -14.74952465 43.62114058 -14.76879883 37.18823242 C-14.77545563 36.41047958 -14.78211243 35.63272675 -14.78897095 34.83140564 C-14.7990647 33.19166417 -14.80378898 31.55188188 -14.8034668 29.91210938 C-14.80784173 27.41426496 -14.84419768 24.91818673 -14.88208008 22.4206543 C-14.88794879 20.82235301 -14.89191782 19.22404338 -14.89379883 17.62573242 C-14.90816986 16.88492935 -14.92254089 16.14412628 -14.93734741 15.38087463 C-14.89214938 10.20858544 -13.78660881 7.26116936 -10.43286133 3.34057617 C-6.83566408 0.77045845 -4.401772 -0.03151627 0 0 Z " fill="#FDFEFE" transform="translate(44.432861328125,203.659423828125)"/>
<path d="M0 0 C3.97090935 1.80360929 7.18910408 3.68229412 9.5 7.4375 C11.65593777 18.48668105 4.13597811 27.67174212 -1.3125 36.875 C-6.60624926 45.88058839 -11.83142011 54.92225237 -17 64 C-22.60736381 73.84315315 -28.27598262 83.64843806 -33.9987793 93.42504883 C-37.64334192 99.656945 -41.24432569 105.91159668 -44.8125 112.1875 C-50.4051613 122.02049877 -56.12328023 131.77823683 -61.86254883 141.52612305 C-62.37444511 142.3967614 -62.37444511 142.3967614 -62.89668274 143.2849884 C-63.57767467 144.4423615 -64.26002854 145.59893437 -64.94377136 146.75468445 C-66.70874227 149.74941903 -68.4263615 152.76127062 -70.08398438 155.81689453 C-70.4289093 156.44463272 -70.77383423 157.07237091 -71.12921143 157.71913147 C-72.0799831 159.45564814 -73.01750505 161.19940057 -73.95410156 162.94360352 C-76.58196085 166.86939952 -79.60681242 170.08495769 -84.125 171.8125 C-89.01736759 172.30173676 -92.01582874 171.8975791 -96 169 C-98.97391663 165.41652282 -100.5779985 161.92387519 -100.45068359 157.1640625 C-99.38527663 152.04826222 -96.24707694 147.57638609 -93.625 143.125 C-92.98232178 142.00730225 -92.33964355 140.88960449 -91.67749023 139.73803711 C-89.80051138 136.48268487 -87.9039257 133.23964776 -86 130 C-85.12355267 128.4987827 -84.2472297 126.99749279 -83.37109375 125.49609375 C-81.81469477 122.83851812 -80.24753879 120.18757807 -78.67578125 117.5390625 C-75.31854576 111.86671457 -72.03834602 106.14995795 -68.75 100.4375 C-63.88233204 91.98329026 -58.98954641 83.54473423 -54.0625 75.125 C-49.33264875 67.03824212 -44.65606045 58.92243226 -40.01675415 50.7835083 C-34.49215447 41.09270017 -28.95978403 31.40627174 -23.375 21.75 C-22.81941406 20.780625 -22.26382813 19.81125 -21.69140625 18.8125 C-9.87167439 -1.54849794 -9.87167439 -1.54849794 0 0 Z " fill="#FAFCFD" transform="translate(209,60)"/>
<path d="M0 0 C0.91523438 -0.0309375 1.83046875 -0.061875 2.7734375 -0.09375 C7.85913105 0.96518893 10.45928196 3.77088633 13.26269531 7.92919922 C15.09671638 10.981166 16.83905566 14.07176146 18.5625 17.1875 C19.21748255 18.3503242 19.87375839 19.51242077 20.53125 20.67382812 C21.89417136 23.08364724 23.25151429 25.49647978 24.60498047 27.91162109 C27.72652852 33.47083191 30.93010924 38.98273735 34.125 44.5 C35.374098 46.6638316 36.62279466 48.82789492 37.87109375 50.9921875 C38.48968262 52.06436523 39.10827148 53.13654297 39.74560547 54.24121094 C41.63480166 57.51699566 43.52264109 60.79355893 45.41015625 64.0703125 C51.4324735 74.52206236 57.47174164 84.96296702 63.5625 95.375 C69.38953423 105.33897988 75.14265551 115.34422076 80.83959961 125.38305664 C83.86400417 130.70717202 86.91105509 136.01139634 90.08203125 141.25 C90.60063721 142.11455811 91.11924316 142.97911621 91.65356445 143.86987305 C92.59884684 145.43907004 93.55608032 147.00116337 94.52807617 148.55395508 C97.21355922 153.0339456 98.23671388 156.12755636 97.625 161.5 C96.375 164.1875 96.375 164.1875 94.625 166.5 C94.08875 167.2425 93.5525 167.985 93 168.75 C89.42878317 171.38142293 86.00943605 171.79076539 81.625 171.5 C72.32919375 167.49004436 67.46141591 154.92952247 62.6875 146.5625 C61.69507862 144.8326544 60.70265235 143.10281157 59.70993042 141.37313843 C58.68735909 139.59060128 57.66609866 137.80731803 56.64501953 136.02392578 C53.485301 130.50810231 50.30393132 125.00476433 47.125 119.5 C45.8761843 117.33600547 44.6274867 115.17194277 43.37890625 113.0078125 C42.76031738 111.93563477 42.14172852 110.86345703 41.50439453 109.75878906 C39.61519834 106.48300434 37.72735891 103.20644107 35.83984375 99.9296875 C29.25544837 88.50244934 22.64169171 77.09358253 15.98217773 65.70996094 C10.6328148 56.54826068 5.37109035 47.33723196 0.12915039 38.11376953 C-0.50128174 37.00630371 -1.13171387 35.89883789 -1.78125 34.7578125 C-2.38461182 33.69755859 -2.98797363 32.63730469 -3.60961914 31.54492188 C-5.73609702 27.87718129 -7.9575882 24.27371244 -10.22241211 20.68994141 C-12.12532146 17.07437333 -12.71677271 13.55466712 -12.375 9.5 C-10.11209378 3.06858232 -6.87309554 0.07700947 0 0 Z " fill="#F9FCFD" transform="translate(294.375,60.5)"/>
<path d="M0 0 C4.82443793 2.50870773 7.40496248 5.25418915 10 10 C10.54767273 12.86184502 10.53769898 15.64924818 10.50170898 18.55639648 C10.50711197 19.39458923 10.51251495 20.23278198 10.51808167 21.09637451 C10.53054369 23.85497837 10.51409359 26.61253328 10.49609375 29.37109375 C10.49624881 31.29631098 10.49773898 33.22152852 10.50050354 35.14674377 C10.50188645 39.1774784 10.48934856 43.20785674 10.46655273 47.23852539 C10.43818767 52.39445959 10.44090175 57.54980116 10.45364285 62.70577908 C10.46061252 66.68045576 10.45279569 70.65499652 10.44038582 74.62965584 C10.4358825 76.53017721 10.43552469 78.43071323 10.43945122 80.33123589 C10.4423756 82.99252882 10.42579752 85.65301788 10.40405273 88.31420898 C10.40855438 89.09313004 10.41305603 89.87205109 10.41769409 90.67457581 C10.33389461 96.87607818 9.04088289 101.5880475 4.9375 106.4375 C0.62366963 108.73209062 -3.21945923 108.89491723 -8 108 C-11.85694591 106.00448402 -14.51841004 103.07503544 -16 99 C-16.19638567 96.0891127 -16.28345944 93.27426522 -16.2746582 90.36352539 C-16.27976913 89.4931514 -16.28488007 88.6227774 -16.29014587 87.72602844 C-16.30404221 84.84983437 -16.3030851 81.9738799 -16.30078125 79.09765625 C-16.3046681 77.09752819 -16.30900274 75.09740095 -16.31376648 73.09727478 C-16.32122874 68.90507329 -16.32093731 64.71295601 -16.31567383 60.52075195 C-16.30987859 55.14937964 -16.32681156 49.77835209 -16.3500185 44.40703678 C-16.36475231 40.27634161 -16.36562803 36.14572954 -16.36250877 32.01501274 C-16.36302214 30.03467564 -16.3682628 28.05433391 -16.37832069 26.07402229 C-16.39066112 23.30441017 -16.38390783 20.53547055 -16.37231445 17.76586914 C-16.37995819 16.94856323 -16.38760193 16.13125732 -16.39547729 15.28918457 C-16.35291337 10.68730064 -15.92113434 7.77249495 -13 4 C-9.12997182 0.72968563 -5.07006257 -0.86298937 0 0 Z " fill="#2965E8" transform="translate(224,296)"/>
<path d="M0 0 C3.72044133 2.21259727 6.51639515 4.89694058 8 9 C8.19614796 11.84517297 8.28347875 14.59206295 8.2746582 17.43701172 C8.2823246 18.71090256 8.2823246 18.71090256 8.29014587 20.01052856 C8.30404174 22.81698664 8.30308495 25.62319911 8.30078125 28.4296875 C8.30466849 30.38257946 8.30900322 32.33547058 8.31376648 34.2883606 C8.32122891 38.38220967 8.32093746 42.47597252 8.31567383 46.56982422 C8.30988251 51.81106512 8.32680197 57.05195226 8.3500185 62.29313469 C8.3647654 66.3269354 8.36562617 70.36065114 8.36250877 74.39447403 C8.36302161 76.32653631 8.36825235 78.25860339 8.37832069 80.1906395 C8.39068474 82.89539166 8.38389338 85.59945768 8.37231445 88.30419922 C8.38378006 89.49671295 8.38378006 89.49671295 8.39547729 90.71331787 C8.33900303 96.6947246 6.94159687 100.76422179 2.9375 105.375 C-1.36814902 107.75684839 -5.19041773 107.89265847 -10 107 C-13.29620919 105.35526576 -15.39425953 103.13972864 -17.13809204 99.85862732 C-18.28648281 96.04984335 -18.29501759 92.39025162 -18.29052734 88.44946289 C-18.29724457 87.6000563 -18.30396179 86.75064972 -18.31088257 85.87550354 C-18.32984247 83.07449455 -18.33378552 80.27372537 -18.3359375 77.47265625 C-18.34236602 75.52119346 -18.34909442 73.56973164 -18.35610962 71.61827087 C-18.36807678 67.53040329 -18.37179094 63.44262019 -18.37060547 59.35473633 C-18.37040213 54.12128505 -18.39772239 48.88837589 -18.43214989 43.65505314 C-18.45440421 39.62553934 -18.45844348 35.59615641 -18.45738602 31.56658745 C-18.45974348 29.63730435 -18.46857522 27.70801772 -18.48405075 25.77879524 C-18.50368425 23.07878907 -18.49788362 20.37995741 -18.48583984 17.67993164 C-18.49707886 16.88649353 -18.50831787 16.09305542 -18.51989746 15.27557373 C-18.4609258 10.06330711 -17.4085299 7.15395911 -14 3 C-9.36145889 -1.11143416 -5.77575033 -2.0019533 0 0 Z " fill="#2563E9" transform="translate(343,297)"/>
<path d="M0 0 C4.08254254 2.432153 5.6293699 4.51550872 7 9 C7.19293607 11.94875428 7.28361086 14.80217379 7.2746582 17.75 C7.2823246 19.05578003 7.2823246 19.05578003 7.29014587 20.38793945 C7.3040193 23.25869668 7.30308702 26.12921328 7.30078125 29 C7.30466895 30.99869882 7.30900377 32.99739682 7.31376648 34.99609375 C7.3212235 39.18231893 7.3209408 43.36845977 7.31567383 47.5546875 C7.3098749 52.91818409 7.32682299 58.28133583 7.3500185 63.64477539 C7.36475087 67.77117937 7.3656283 71.89750016 7.36250877 76.02392578 C7.36302207 78.0014718 7.36826137 79.97902247 7.37832069 81.95654297 C7.39066029 84.72125681 7.38390868 87.48529691 7.37231445 90.25 C7.38378006 91.47360229 7.38378006 91.47360229 7.39547729 92.72192383 C7.35288129 97.31850056 6.92818148 100.24066391 4 104 C0.30635737 107.15045989 -3.08477861 107.51984525 -7.78125 107.35546875 C-11.26723014 106.79697545 -13.38200616 105.29872629 -16 103 C-18.75612194 99.15845025 -18.30279647 94.72625879 -18.30639648 90.19580078 C-18.31472 89.30752594 -18.32304352 88.4192511 -18.33161926 87.50405884 C-18.35571371 84.56776547 -18.3644905 81.63169424 -18.37109375 78.6953125 C-18.38006014 76.6527398 -18.38918199 74.61016778 -18.39845276 72.56759644 C-18.41494355 68.28544519 -18.42264311 64.00337214 -18.42553711 59.72119141 C-18.43092251 54.23763661 -18.46860898 48.7548179 -18.51428127 43.27147102 C-18.54404168 39.05237145 -18.55126044 34.83344941 -18.55226326 30.614254 C-18.55646718 28.59284975 -18.56890832 26.57144505 -18.58978081 24.5501442 C-18.61667521 21.72054331 -18.61187569 18.89265226 -18.59936523 16.06298828 C-18.61419952 15.23057617 -18.62903381 14.39816406 -18.64431763 13.54052734 C-18.59215458 9.39164154 -18.25154574 6.79733773 -15.58973694 3.51998901 C-10.51831061 -1.41485145 -6.72990193 -1.65844012 0 0 Z " fill="#2663E7" transform="translate(285,297)"/>
<path d="M0 0 C3.55250926 2.1919738 5.55680764 4.10658123 7 8 C7.19626226 10.87541151 7.2834695 13.65358429 7.2746582 16.52880859 C7.2823246 17.81732979 7.2823246 17.81732979 7.29014587 19.13188171 C7.30404269 21.97080458 7.30308488 24.80948467 7.30078125 27.6484375 C7.30466843 29.6237497 7.30900315 31.59906106 7.31376648 33.57437134 C7.32122911 37.71529855 7.32093731 41.85614051 7.31567383 45.99707031 C7.30988243 51.2988438 7.3268021 56.60026758 7.3500185 61.90198326 C7.36476466 65.98210688 7.36562628 70.06214648 7.36250877 74.14229202 C7.36302165 76.09668291 7.36825304 78.05107855 7.37832069 80.00544357 C7.39068331 82.74132617 7.3838942 85.47653027 7.37231445 88.21240234 C7.38378006 89.41894218 7.38378006 89.41894218 7.39547729 90.64985657 C7.33936613 96.66011612 5.96273627 100.73987944 1.9375 105.375 C-2.35005232 107.74683745 -6.20588456 107.78850583 -11 107 C-14.62398893 104.88600646 -16.5524533 102.90098261 -18 99 C-18.20669449 96.03453745 -18.30403951 93.16194282 -18.30639648 90.19580078 C-18.31472 89.30752594 -18.32304352 88.4192511 -18.33161926 87.50405884 C-18.35571371 84.56776547 -18.3644905 81.63169424 -18.37109375 78.6953125 C-18.38006014 76.6527398 -18.38918199 74.61016778 -18.39845276 72.56759644 C-18.41494355 68.28544519 -18.42264311 64.00337214 -18.42553711 59.72119141 C-18.43092251 54.23763661 -18.46860898 48.7548179 -18.51428127 43.27147102 C-18.54404168 39.05237145 -18.55126044 34.83344941 -18.55226326 30.614254 C-18.55646718 28.59284975 -18.56890832 26.57144505 -18.58978081 24.5501442 C-18.61667521 21.72054331 -18.61187569 18.89265226 -18.59936523 16.06298828 C-18.61419952 15.23057617 -18.62903381 14.39816406 -18.64431763 13.54052734 C-18.59215458 9.39164154 -18.25154574 6.79733773 -15.58973694 3.51998901 C-10.52450122 -1.40882757 -6.72405646 -1.66900687 0 0 Z " fill="#2563E9" transform="translate(168,297)"/>
<path d="M0 0 C0.5625 1.9375 0.5625 1.9375 1 4 C0.67 4.33 0.34 4.66 0 5 C-0.1252097 7.79908707 -0.18608723 10.57470329 -0.20532227 13.37524414 C-0.21522186 14.25321152 -0.22512146 15.13117889 -0.23532104 16.03575134 C-0.26703427 18.95219175 -0.29173211 21.86864848 -0.31640625 24.78515625 C-0.33696731 26.80155371 -0.35796354 28.81794677 -0.37937927 30.83433533 C-0.43468759 36.15260266 -0.4840581 41.47090945 -0.53222656 46.78924561 C-0.5823778 52.21174651 -0.63809707 57.63418982 -0.69335938 63.05664062 C-0.80104802 73.70437793 -0.90246906 84.35216515 -1 95 C-0.34 95 0.32 95 1 95 C2.01866229 96.65532623 3.01810813 98.32260138 4 100 C6.52475462 101.26237731 8.31200466 101.09856404 11.125 101.0625 C12.03507812 101.05347656 12.94515625 101.04445313 13.8828125 101.03515625 C14.58148438 101.02355469 15.28015625 101.01195312 16 101 C16.33 99.68 16.66 98.36 17 97 C17.66 97.33 18.32 97.66 19 98 C19 97.01 19 96.02 19 95 C19.66 95 20.32 95 21 95 C20.89233861 83.64706162 20.7796731 72.29418491 20.66066074 60.94135952 C20.60555192 55.66950444 20.55215155 50.39764371 20.50268555 45.12573242 C20.45486393 40.03582661 20.40251541 34.94598546 20.34705925 29.8561573 C20.32671611 27.91657184 20.30799015 25.97696869 20.29092598 24.03735161 C20.26670311 21.31577055 20.23667416 18.59430974 20.20532227 15.87280273 C20.19668907 14.67625565 20.19668907 14.67625565 20.18788147 13.45553589 C20.12814655 8.87834781 19.74719628 4.51760391 19 0 C22.05514003 2.92230786 22.96639412 4.15269663 23.14044189 8.54095459 C23.1525405 10.09725829 23.15897494 11.6536117 23.16113281 13.20996094 C23.16609772 14.05892944 23.17106262 14.90789795 23.17617798 15.78259277 C23.19081916 18.59986168 23.19760562 21.41707425 23.203125 24.234375 C23.2088758 26.19012453 23.21463355 28.14587404 23.22039795 30.10162354 C23.23091416 34.20740014 23.23675245 38.31315713 23.24023438 42.41894531 C23.24571377 47.67591401 23.26972735 52.93262301 23.29820633 58.18951035 C23.31684783 62.2318802 23.32203917 66.27418778 23.32357025 70.31659698 C23.32659499 72.25424872 23.33461749 74.19189941 23.34775543 76.12950897 C23.36484391 78.8440258 23.3629286 81.55791188 23.35644531 84.27246094 C23.3656601 85.07061218 23.37487488 85.86876343 23.3843689 86.69110107 C23.33960239 92.68608904 21.95124888 96.75310735 17.9375 101.375 C13.63185098 103.75684839 9.80958227 103.89265847 5 103 C1.70400343 101.35537185 -0.39362321 99.13940449 -2.13908386 95.85961914 C-3.28774494 92.04422638 -3.28692587 88.38034046 -3.2746582 84.43359375 C-3.27976913 83.58258087 -3.28488007 82.73156799 -3.29014587 81.85476685 C-3.30401687 79.04893919 -3.30308721 76.24335781 -3.30078125 73.4375 C-3.30466908 71.48364165 -3.30900393 69.52978415 -3.31376648 67.57592773 C-3.32122298 63.48385882 -3.32094119 59.3918762 -3.31567383 55.29980469 C-3.3098749 50.05737333 -3.32682322 44.81529477 -3.3500185 39.57292175 C-3.36475203 35.53916359 -3.36562814 31.50549051 -3.36250877 27.47171021 C-3.36302201 25.53882141 -3.36826019 23.60592786 -3.37832069 21.67306519 C-3.39066261 18.97061221 -3.38390736 16.26884826 -3.37231445 13.56640625 C-3.38378006 12.37085617 -3.38378006 12.37085617 -3.39547729 11.15115356 C-3.35219343 6.58419361 -2.76290633 3.67569117 0 0 Z " fill="#4C77D4" transform="translate(328,301)"/>
<path d="M0 0 C2.22743206 0.89097283 3.69363599 1.57690536 5.11663818 3.542099 C6.42265169 7.17600284 6.27777358 10.76343165 6.25878906 14.57641602 C6.26404602 15.87216553 6.26404602 15.87216553 6.26940918 17.1940918 C6.27820679 20.04744518 6.27238479 22.90055037 6.265625 25.75390625 C6.26697209 27.7364049 6.26891299 29.71890324 6.27142334 31.70140076 C6.27437183 35.85492093 6.2700853 40.00835506 6.26074219 44.16186523 C6.24934041 49.49077218 6.25591349 54.81947783 6.26788712 60.14837742 C6.27510677 64.24124169 6.27281742 68.33405806 6.26763153 72.42692375 C6.26629571 74.39216066 6.26794038 76.35740189 6.27259064 78.32263374 C6.27765838 81.0661996 6.26994245 83.80943717 6.25878906 86.55297852 C6.26283752 87.36812424 6.26688599 88.18326996 6.27105713 89.02311707 C6.24197847 92.8757802 6.18787661 94.71818508 4 98 C3.99453156 96.28444916 3.99453156 96.28444916 3.98895264 94.53424072 C3.95203325 83.76309793 3.89429408 72.99224185 3.81609726 62.22131729 C3.77656509 56.6836655 3.74440475 51.14617409 3.72900391 45.60839844 C3.71387518 40.26547126 3.67949693 34.92298485 3.63169098 29.5802536 C3.61683809 27.54052305 3.60895676 25.50072958 3.60811615 23.46094513 C3.6057565 20.60662173 3.57875786 17.75352641 3.54589844 14.89941406 C3.5509288 14.05352722 3.55595917 13.20764038 3.56114197 12.33612061 C3.4896796 7.50288227 3.4896796 7.50288227 0.96588135 3.44378662 C0.3171405 2.96733704 -0.33160034 2.49088745 -1 2 C-0.67 1.34 -0.34 0.68 0 0 Z " fill="#3663C8" transform="translate(169,299)"/>
<path d="M0 0 C55.11 0 110.22 0 167 0 C167.99 1.98 167.99 1.98 169 4 C168.34 4.33 167.68 4.66 167 5 C166.67 3.68 166.34 2.36 166 1 C111.55 1 57.1 1 1 1 C0.34 2.65 -0.32 4.3 -1 6 C-1.98482022 8.00751815 -2.98152514 10.00934459 -4 12 C-4.33 12 -4.66 12 -5 12 C-5 9.69 -5 7.38 -5 5 C-3.68 4.67 -2.36 4.34 -1 4 C-0.67 2.68 -0.34 1.36 0 0 Z " fill="#3464CA" transform="translate(167,203)"/>
<path d="M0 0 C0.33 0 0.66 0 1 0 C1 30.03 1 60.06 1 91 C0.01 90.67 -0.98 90.34 -2 90 C-1.89267217 78.41305088 -1.7800747 66.8261663 -1.66066074 55.23933506 C-1.60538561 49.85969196 -1.55195842 44.48004348 -1.50268555 39.1003418 C-1.45510952 33.91320329 -1.40276944 28.72613315 -1.34705925 23.53907585 C-1.32660495 21.55545684 -1.30789708 19.57181906 -1.29092598 17.58816719 C-1.26694977 14.81985784 -1.23688636 12.05167898 -1.20532227 9.28344727 C-1.1995668 8.45482681 -1.19381134 7.62620636 -1.18788147 6.7724762 C-1.11405216 1.11405216 -1.11405216 1.11405216 0 0 Z " fill="#D4E6FF" transform="translate(266,304)"/>
<path d="M0 0 C0.99 0.33 1.98 0.66 3 1 C1.52944335 5.57317617 -1.07669442 8.81152397 -4.1875 12.375 C-4.68290283 12.94935791 -5.17830566 13.52371582 -5.6887207 14.11547852 C-11.49501071 20.79569131 -17.43967711 27.25524563 -25 32 C-25.66 32 -26.32 32 -27 32 C-26.75 29.625 -26.75 29.625 -26 27 C-23.9375 25.6875 -23.9375 25.6875 -22 25 C-22 24.34 -22 23.68 -22 23 C-22.99 22.34 -23.98 21.68 -25 21 C-22.84267191 18.84267191 -21.88177557 18.51705175 -19 17.8125 C-18.29875 17.63332031 -17.5975 17.45414062 -16.875 17.26953125 C-15 17 -15 17 -13 18 C-13 17.34 -13 16.68 -13 16 C-12.01 16 -11.02 16 -10 16 C-10 15.34 -10 14.68 -10 14 C-9.01 14 -8.02 14 -7 14 C-6.67 12.02 -6.34 10.04 -6 8 C-5.01 8 -4.02 8 -3 8 C-3 6.68 -3 5.36 -3 4 C-2.01 4 -1.02 4 0 4 C0 2.68 0 1.36 0 0 Z " fill="#2C62DD" transform="translate(482,451)"/>
<path d="M0 0 C0.66 0.33 1.32 0.66 2 1 C0.125 7.75 0.125 7.75 -1 10 C-1.11908403 12.61719217 -1.17833416 15.20860723 -1.19287109 17.8269043 C-1.20104858 18.63525223 -1.20922607 19.44360016 -1.21765137 20.27644348 C-1.24251863 22.95902768 -1.25902692 25.64155882 -1.2734375 28.32421875 C-1.27876118 29.24038279 -1.28408485 30.15654682 -1.28956985 31.1004734 C-1.31631033 35.95198353 -1.33568023 40.80346787 -1.35009766 45.6550293 C-1.36672571 50.66098454 -1.4114853 55.6662789 -1.4624691 60.67198467 C-1.49616876 64.52481317 -1.5076782 68.37748555 -1.51332474 72.23044777 C-1.52003231 74.07520394 -1.53524156 75.91995002 -1.55921555 77.76456261 C-1.59092197 80.35229199 -1.5908958 82.93824951 -1.58349609 85.52612305 C-1.59990143 86.28327606 -1.61630676 87.04042908 -1.63320923 87.82052612 C-1.56522368 93.6520157 0.21979425 96.57087846 4 101 C6.29629994 102.14814997 8.07698086 102.30769809 10.625 102.5625 C11.85089844 102.68818359 11.85089844 102.68818359 13.1015625 102.81640625 C13.72804687 102.87699219 14.35453125 102.93757813 15 103 C15 103.33 15 103.66 15 104 C5.3239409 104.86051909 5.3239409 104.86051909 1.5 101.75 C-3.03387338 96.76273928 -3.29468656 92.98729226 -3.2746582 86.36352539 C-3.27976913 85.4931514 -3.28488007 84.6227774 -3.29014587 83.72602844 C-3.30404221 80.84983437 -3.3030851 77.9738799 -3.30078125 75.09765625 C-3.3046681 73.09752819 -3.30900274 71.09740095 -3.31376648 69.09727478 C-3.32122874 64.90507329 -3.32093731 60.71295601 -3.31567383 56.52075195 C-3.30987859 51.14937964 -3.32681156 45.77835209 -3.3500185 40.40703678 C-3.36475231 36.27634161 -3.36562803 32.14572954 -3.36250877 28.01501274 C-3.36302214 26.03467564 -3.3682628 24.05433391 -3.37832069 22.07402229 C-3.39066112 19.30441017 -3.38390783 16.53547055 -3.37231445 13.76586914 C-3.37995819 12.94856323 -3.38760193 12.13125732 -3.39547729 11.28918457 C-3.35281641 6.67681736 -2.88469315 3.81336053 0 0 Z " fill="#4A74D5" transform="translate(211,300)"/>
<path d="M0 0 C1.18142578 0.13148438 1.18142578 0.13148438 2.38671875 0.265625 C3.02222656 0.42546875 3.65773437 0.5853125 4.3125 0.75 C4.6425 1.41 4.9725 2.07 5.3125 2.75 C3.518125 2.4096875 3.518125 2.4096875 1.6875 2.0625 C-2.608617 1.53784146 -5.06737406 2.22433074 -8.6875 4.75 C-12.27916528 9.22982173 -12.09825135 13.28278846 -12.02807617 18.76293945 C-12.02851425 19.66099808 -12.02895233 20.5590567 -12.02940369 21.48432922 C-12.02731847 24.44420326 -12.00399984 27.40350651 -11.98046875 30.36328125 C-11.97487185 32.41879466 -11.9706022 34.47431208 -11.96760559 36.52983093 C-11.95616424 41.93367609 -11.926703 47.33727845 -11.89349365 52.74102783 C-11.86277757 58.25765702 -11.84909695 63.77432553 -11.83398438 69.29101562 C-11.80183277 80.11078362 -11.75064485 90.9303716 -11.6875 101.75 C-14.72099949 98.71650051 -13.99068963 95.24322056 -13.99389648 91.17285156 C-14.00222 90.28486877 -14.01054352 89.39688599 -14.01911926 88.48199463 C-14.04329147 85.53482729 -14.05200122 82.58788109 -14.05859375 79.640625 C-14.06755632 77.5951938 -14.07667809 75.5497633 -14.08595276 73.5043335 C-14.10246614 69.21022954 -14.11014684 64.91620376 -14.11303711 60.62207031 C-14.11841585 55.12276397 -14.15606506 49.62419396 -14.20178127 44.12509537 C-14.23154732 39.89741344 -14.23876061 35.66990865 -14.23976326 31.44213104 C-14.24396834 29.41514472 -14.25641411 27.388158 -14.27728081 25.36127472 C-14.30417857 22.52187838 -14.29937394 19.68418584 -14.28686523 16.84472656 C-14.30169952 16.00917236 -14.31653381 15.17361816 -14.33181763 14.31274414 C-14.27974829 10.15589773 -13.94421159 7.55197393 -11.27626038 4.26849365 C-7.46525775 0.56093307 -5.30508628 -0.66642406 0 0 Z " fill="#2F62CF" transform="translate(163.6875,296.25)"/>
<path d="M0 0 C7.43814362 -0.02538517 14.87627603 -0.04288172 22.31445312 -0.05493164 C24.84407977 -0.05995589 27.37370351 -0.06677638 29.90332031 -0.07543945 C33.54232499 -0.08758853 37.18129122 -0.09324746 40.8203125 -0.09765625 C41.94865509 -0.10281754 43.07699768 -0.10797882 44.23953247 -0.11329651 C45.30017914 -0.11337204 46.36082581 -0.11344757 47.45361328 -0.11352539 C48.84593674 -0.11685631 48.84593674 -0.11685631 50.26638794 -0.12025452 C53.28775204 0.01265852 56.05898806 0.27832222 59 1 C62.28516747 6.28434631 62.40849388 11.11958762 62.29296875 17.21484375 C62.28872391 18.07058487 62.28447906 18.92632599 62.28010559 19.80799866 C62.26342789 22.5181642 62.22579705 25.22756248 62.1875 27.9375 C62.17243902 29.7844944 62.1587531 31.63150056 62.14648438 33.47851562 C62.11356026 37.98596884 62.06185469 42.49285472 62 47 C61.67 47 61.34 47 61 47 C60.98541748 45.90534424 60.97083496 44.81068848 60.95581055 43.68286133 C60.89771261 39.61043095 60.82048073 35.53854685 60.73754883 31.46655273 C60.70435346 29.70622645 60.67630476 27.94579512 60.65356445 26.18530273 C60.6199188 23.65042475 60.5675994 21.11650477 60.51171875 18.58203125 C60.50532883 17.79850784 60.4989389 17.01498444 60.49235535 16.2077179 C60.37043382 11.6473069 59.94120492 8.55340142 57 5 C53.44738556 2.49258579 50.99069525 1.62032476 46.65893555 1.56762695 C45.6182341 1.54783279 44.57753265 1.52803864 43.5052948 1.50764465 C42.3936647 1.50125473 41.28203461 1.49486481 40.13671875 1.48828125 C38.41603935 1.46135445 38.41603935 1.46135445 36.66059875 1.43388367 C33.00293636 1.379776 29.34540453 1.34588249 25.6875 1.3125 C23.20505996 1.27932744 20.72263714 1.24483785 18.24023438 1.20898438 C12.16027331 1.1240491 6.08029537 1.05570094 0 1 C0 0.67 0 0.34 0 0 Z " fill="#3362C9" transform="translate(409,203)"/>
<path d="M0 0 C0 3 0 3 -0.9848175 6.14938354 C-2.12006085 10.45539425 -2.27513504 14.18911825 -2.24291992 18.60986328 C-2.24481827 19.44166107 -2.24671661 20.27345886 -2.24867249 21.13046265 C-2.25235587 23.86051066 -2.24171175 26.59028842 -2.23046875 29.3203125 C-2.22927555 31.22647063 -2.22882408 33.13262936 -2.2290802 35.03878784 C-2.2275196 39.02475693 -2.21926136 43.01063566 -2.20581055 46.99658203 C-2.18879833 52.10208114 -2.18499715 57.20748131 -2.18575573 62.31300545 C-2.18548368 66.24552349 -2.17999721 70.17801998 -2.17275429 74.11053085 C-2.16957611 75.99317131 -2.1676022 77.87581419 -2.16686058 79.75845718 C-2.16468931 82.38865564 -2.15592867 85.0187498 -2.14526367 87.64892578 C-2.14571686 88.4241156 -2.14617004 89.19930542 -2.14663696 89.99798584 C-2.12419496 93.78853876 -1.91465601 97.31459556 -1 101 C-4.18028595 97.87578506 -4.36204685 95.05885941 -4.41769409 90.71942139 C-4.41319244 89.88138977 -4.4086908 89.04335815 -4.40405273 88.17993164 C-4.41091599 87.29005051 -4.41777924 86.40016937 -4.42485046 85.48332214 C-4.44314977 82.54210447 -4.43927644 79.60141863 -4.43359375 76.66015625 C-4.43815411 74.61518683 -4.44345925 72.57021894 -4.44947815 70.5252533 C-4.45841546 66.2388588 -4.4559791 61.95265054 -4.44604492 57.66625977 C-4.43455572 52.17371059 -4.45476305 46.68180434 -4.48396206 41.18933964 C-4.50230997 36.96597714 -4.50203437 32.7427691 -4.49632454 28.51937675 C-4.49617115 26.49438004 -4.50223034 24.46937298 -4.51461601 22.44441414 C-4.52949708 19.61235374 -4.51887005 16.78148601 -4.50170898 13.94946289 C-4.51137695 13.11345551 -4.52104492 12.27744812 -4.53100586 11.41610718 C-4.46659837 6.33906212 -3.77968564 3.72595673 0 0 Z " fill="#3763C7" transform="translate(271,299)"/>
<path d="M0 0 C0.75 1.625 0.75 1.625 1 4 C-1.98224127 9.63312241 -1.98224127 9.63312241 -4.82592773 10.65820312 C-7.26414938 11.04152826 -9.6304696 11.1964778 -12.09765625 11.28125 C-13.06380859 11.31863281 -14.02996094 11.35601562 -15.02539062 11.39453125 C-17.05403176 11.46497924 -19.08267762 11.53529122 -21.11132812 11.60546875 C-22.07619141 11.64285156 -23.04105469 11.68023437 -24.03515625 11.71875 C-25.35592163 11.76418945 -25.35592163 11.76418945 -26.70336914 11.81054688 C-29.16089948 11.92187558 -29.16089948 11.92187558 -32 13 C-31.67 14.98 -31.34 16.96 -31 19 C-31.99 19.33 -32.98 19.66 -34 20 C-34.73323796 22.01508358 -34.73323796 22.01508358 -35 24 C-35.66 23.67 -36.32 23.34 -37 23 C-35.35 18.38 -33.7 13.76 -32 9 C-29.37998047 8.92652344 -29.37998047 8.92652344 -26.70703125 8.8515625 C-24.40883852 8.77651947 -22.1106622 8.7009723 -19.8125 8.625 C-18.66201172 8.5940625 -17.51152344 8.563125 -16.32617188 8.53125 C-14.65844727 8.47324219 -14.65844727 8.47324219 -12.95703125 8.4140625 C-11.93585205 8.3826416 -10.91467285 8.3512207 -9.86254883 8.31884766 C-6.8615846 7.98458247 -4.66798669 7.41196069 -2 6 C-0.62810173 2.97017694 -0.62810173 2.97017694 0 0 Z " fill="#3566D6" transform="translate(469,250)"/>
<path d="M0 0 C1.12101105 0.00007553 2.24202209 0.00015106 3.39700317 0.00022888 C4.61161224 0.00539017 5.82622131 0.01055145 7.07763672 0.01586914 C8.31778534 0.01728409 9.55793396 0.01869904 10.83566284 0.02015686 C14.13350555 0.02481443 17.43129968 0.033801 20.72912598 0.04486084 C24.09398808 0.05508808 27.4588573 0.0596573 30.82373047 0.06469727 C37.42661415 0.0757427 44.02946521 0.09249292 50.63232422 0.11352539 C51.25732422 1.92602539 51.25732422 1.92602539 51.63232422 4.11352539 C50.97232422 5.10352539 50.31232422 6.09352539 49.63232422 7.11352539 C48.6585232 11.43744689 48.52471035 15.56736589 48.56982422 19.98852539 C48.57884766 21.14094727 48.58787109 22.29336914 48.59716797 23.48071289 C48.60876953 24.34954102 48.62037109 25.21836914 48.63232422 26.11352539 C46.14622689 22.38437939 46.33311545 20.31165895 46.31982422 15.86352539 C46.30306641 14.57961914 46.28630859 13.29571289 46.26904297 11.97290039 C46.67714647 7.63734917 47.8506657 5.04371509 49.63232422 1.11352539 C42.15743583 1.23113566 34.68269314 1.35596707 27.20800781 1.48583984 C24.66474141 1.52917438 22.1214462 1.57085052 19.578125 1.61083984 C15.92422803 1.66857797 12.27047591 1.73226264 8.61669922 1.79711914 C7.47803406 1.81383163 6.3393689 1.83054413 5.16619873 1.84776306 C3.57500214 1.87768089 3.57500214 1.87768089 1.95166016 1.90820312 C1.0190033 1.92374741 0.08634644 1.93929169 -0.87457275 1.95530701 C-3.1712144 2.10105747 -5.16468705 2.46992869 -7.36767578 3.11352539 C-7.36767578 2.45352539 -7.36767578 1.79352539 -7.36767578 1.11352539 C-4.77439735 -0.18311382 -2.9035951 -0.0065103 0 0 Z " fill="#3866CD" transform="translate(42.36767578125,202.886474609375)"/>
<path d="M0 0 C2.18985962 2.18985962 2.61313185 3.40237497 3.52807617 6.31030273 C3.81144333 7.20140244 4.09481049 8.09250214 4.38676453 9.01060486 C4.68581192 9.97519119 4.98485931 10.93977753 5.29296875 11.93359375 C5.75839836 13.41690941 5.75839836 13.41690941 6.23323059 14.93019104 C6.88775911 17.02318618 7.53901364 19.11720754 8.18725586 21.2121582 C9.18341252 24.4243197 10.19553853 27.63114809 11.20898438 30.83789062 C11.84212312 32.86948736 12.47431655 34.90137898 13.10546875 36.93359375 C13.41058884 37.89615585 13.71570892 38.85871796 14.03007507 39.85044861 C14.30398575 40.74470047 14.57789642 41.63895233 14.86010742 42.56030273 C15.10500412 43.34702866 15.34990082 44.13375458 15.60221863 44.94432068 C16 47 16 47 15 50 C14.67 50 14.34 50 14 50 C13.76925781 49.2471875 13.53851563 48.494375 13.30078125 47.71875 C12.41122247 44.82153089 11.51876717 41.9252201 10.625 39.02929688 C10.19401888 37.62995506 9.76441422 36.23018882 9.3359375 34.83007812 C8.66434414 32.6358205 7.98872307 30.44283467 7.3125 28.25 C6.99116089 27.19522461 6.99116089 27.19522461 6.66333008 26.11914062 C5.82591015 22.79224101 5.82591015 22.79224101 4 20 C3.6515437 18.44512357 3.34609995 16.88050305 3.0625 15.3125 C2.48940772 12.29191588 1.85033834 9.55101503 0.875 6.625 C0 4 0 4 0 0 Z " fill="#4470D0" transform="translate(63,268)"/>
<path d="M0 0 C0.33 0.66 0.66 1.32 1 2 C0.0625 4.625 0.0625 4.625 -1 7 C-1.66 7 -2.32 7 -3 7 C-2.773125 7.598125 -2.54625 8.19625 -2.3125 8.8125 C-2 11 -2 11 -3.3125 12.75 C-5 14 -5 14 -7 14 C-7 15.32 -7 16.64 -7 18 C-7.66 18 -8.32 18 -9 18 C-9.12375 18.804375 -9.12375 18.804375 -9.25 19.625 C-10.05405385 22.17117051 -11.2938519 24.03823811 -12.8203125 26.2109375 C-14.70683769 29.07195915 -16.2573432 32.11348372 -17.8515625 35.14453125 C-19 37 -19 37 -21 38 C-19.72354987 33.80589444 -18.142596 30.2187809 -15.91796875 26.4453125 C-15.01401367 24.90423828 -15.01401367 24.90423828 -14.09179688 23.33203125 C-13.46337891 22.27371094 -12.83496094 21.21539062 -12.1875 20.125 C-11.57068359 19.07441406 -10.95386719 18.02382812 -10.31835938 16.94140625 C-6.96121905 11.24033267 -3.53671264 5.59137426 0 0 Z " fill="#3868D2" transform="translate(156,185)"/>
<path d="M0 0 C3.05569498 4.58354247 4.33052674 9.7455991 5.99609375 14.96948242 C6.6224494 16.92951849 7.2599298 18.88569066 7.8984375 20.84179688 C8.29546875 22.07865234 8.6925 23.31550781 9.1015625 24.58984375 C9.46588379 25.72284912 9.83020508 26.85585449 10.20556641 28.02319336 C11 31 11 31 11 35 C10.34 35 9.68 35 9 35 C9 33.35 9 31.7 9 30 C8.34 30 7.68 30 7 30 C6.32550034 27.60612843 5.66023359 25.21030779 5 22.8125 C4.80921875 22.13896484 4.6184375 21.46542969 4.421875 20.77148438 C3.4174164 17.09444844 2.76295259 13.8149818 3 10 C2.34 10 1.68 10 1 10 C0.67 6.7 0.34 3.4 0 0 Z " fill="#3E6ED4" transform="translate(80,322)"/>
<path d="M0 0 C2.17788326 3.2668249 3.19583867 6.44049627 4.3125 10.15234375 C4.52688721 10.84888565 4.74127441 11.54542755 4.9621582 12.26307678 C5.64608044 14.48649316 6.32360175 16.71178414 7 18.9375 C7.67687491 21.15948873 8.35521534 23.38098265 9.0378418 25.60121155 C9.46205325 26.98136341 9.88294061 28.36254261 10.30004883 29.74485779 C11.29519243 32.98665816 12.35441207 36.02864303 14 39 C13.34 39 12.68 39 12 39 C12 38.34 12 37.68 12 37 C11.34 37 10.68 37 10 37 C9.16142312 34.39741676 8.32896656 31.79314353 7.5 29.1875 C7.26152344 28.44951172 7.02304688 27.71152344 6.77734375 26.95117188 C5.80059864 23.86744804 5 21.25504191 5 18 C4.34 18 3.68 18 3 18 C2.49490792 15.75113762 1.99610821 13.50086131 1.5 11.25 C1.2215625 9.99703125 0.943125 8.7440625 0.65625 7.453125 C0 4 0 4 0 0 Z " fill="#426ED1" transform="translate(104,398)"/>
<path d="M0 0 C1.07765625 0.00902344 2.1553125 0.01804688 3.265625 0.02734375 C4.08546875 0.03894531 4.9053125 0.05054688 5.75 0.0625 C5.75 0.7225 5.75 1.3825 5.75 2.0625 C6.74 2.0625 7.73 2.0625 8.75 2.0625 C8.75 2.7225 8.75 3.3825 8.75 4.0625 C10.07 4.7225 11.39 5.3825 12.75 6.0625 C12.42 7.0525 12.09 8.0425 11.75 9.0625 C11.37230469 8.629375 10.99460937 8.19625 10.60546875 7.75 C6.9193124 4.02068022 4.37916439 2.61951517 -0.9375 2.5625 C-4.5211557 2.68415168 -7.2339013 3.04722863 -10.25 5.0625 C-10.58 6.0525 -10.91 7.0425 -11.25 8.0625 C-12.25 5.0625 -12.25 5.0625 -11.5625 2.9375 C-10.25 1.0625 -10.25 1.0625 -8.55859375 0.44921875 C-5.67455644 -0.0338941 -2.92309473 -0.03177277 0 0 Z " fill="#4976D8" transform="translate(295.25,58.9375)"/>
<path d="M0 0 C17.16 0 34.32 0 52 0 C52 0.33 52 0.66 52 1 C35.83 1 19.66 1 3 1 C3 2.98 3 4.96 3 7 C1 4 1 4 0 0 Z " fill="#EAFAFF" transform="translate(409,204)"/>
<path d="M0 0 C17.49 0 34.98 0 53 0 C52.67 1.32 52.34 2.64 52 4 C51.34 4 50.68 4 50 4 C50 3.01 50 2.02 50 1 C33.5 1 17 1 0 1 C0 0.67 0 0.34 0 0 Z " fill="#EAFAFE" transform="translate(39,204)"/>
<path d="M0 0 C6.16259181 -0.22615016 11.51972719 0.55850102 17.5 2 C18.32242187 2.19078125 19.14484375 2.3815625 19.9921875 2.578125 C21.99662407 3.04427304 23.99858863 3.52102976 26 4 C26.33 5.32 26.66 6.64 27 8 C24.03 7.505 24.03 7.505 21 7 C21 6.34 21 5.68 21 5 C19.35 5 17.7 5 16 5 C16 4.34 16 3.68 16 3 C15.26394531 3.02320313 14.52789062 3.04640625 13.76953125 3.0703125 C12.79371094 3.08835938 11.81789063 3.10640625 10.8125 3.125 C9.84957031 3.14820313 8.88664062 3.17140625 7.89453125 3.1953125 C4.87187222 2.9913544 2.73230015 2.26874632 0 1 C0 0.67 0 0.34 0 0 Z " fill="#4976D7" transform="translate(406,0)"/>
<path d="M0 0 C1.18719263 4.36503148 0.67009018 7.53273214 0 12 C-0.66 12 -1.32 12 -2 12 C-2.15855469 12.60585938 -2.31710937 13.21171875 -2.48046875 13.8359375 C-4.28640587 20.32134705 -6.81240153 26.07837438 -10 32 C-11 30 -11 30 -10.10375977 27.01904297 C-9.64080549 25.75719073 -9.1694217 24.49841159 -8.69140625 23.2421875 C-8.44583481 22.57913605 -8.20026337 21.91608459 -7.94725037 21.23294067 C-7.15944754 19.11089844 -6.36112219 16.99299112 -5.5625 14.875 C-5.02729832 13.43906148 -4.49278415 12.00286651 -3.95898438 10.56640625 C-2.64728906 7.04124294 -1.32614182 3.51975274 0 0 Z " fill="#3D6CD4" transform="translate(411,331)"/>
<path d="M0 0 C0.66 0.33 1.32 0.66 2 1 C1.11711712 7.55855856 1.11711712 7.55855856 0.4921875 9.9140625 C-0.27290264 13.15658737 -0.38978341 16.44072378 -0.62109375 19.7578125 C-1 22 -1 22 -3 24 C-4.00067145 18.79650845 -3.83916085 14.89625977 -2.625 9.75 C-2.34914062 8.54859375 -2.07328125 7.3471875 -1.7890625 6.109375 C-1 3 -1 3 0 0 Z " fill="#4E79D4" transform="translate(4,69)"/>
<path d="M0 0 C0.66 1.98 1.32 3.96 2 6 C1.52691406 5.69964844 1.05382812 5.39929688 0.56640625 5.08984375 C-4.03328025 2.44479985 -7.58227399 1.32735131 -12.87890625 2.171875 C-16.69065735 3.66007248 -18.7862883 6.67509184 -21 10 C-21.33 8.68 -21.66 7.36 -22 6 C-21.34 6 -20.68 6 -20 6 C-20 5.01 -20 4.02 -20 3 C-13.45841601 -0.65111665 -7.36120371 -0.29887594 0 0 Z " fill="#3666D2" transform="translate(215,59)"/>
<path d="M0 0 C0.66 0.33 1.32 0.66 2 1 C1.53862901 8.3819359 -1.27376534 13.57668031 -6.8125 18.5 C-7.534375 18.995 -8.25625 19.49 -9 20 C-9 18.35 -9 16.7 -9 15 C-8.34 14.67 -7.68 14.34 -7 14 C-6.34 14.33 -5.68 14.66 -5 15 C-5 13.35 -5 11.7 -5 10 C-4.01 10.33 -3.02 10.66 -2 11 C-2.33 9.35 -2.66 7.7 -3 6 C-2.34 5.67 -1.68 5.34 -1 5 C-0.34444881 2.47266765 -0.34444881 2.47266765 0 0 Z " fill="#3365D8" transform="translate(409,224)"/>
<path d="M0 0 C3 3.36 3 3.36 3 6 C1.5757623 8.84847539 -0.39897842 10.22369258 -3 12 C-3.66 12 -4.32 12 -5 12 C-5 12.66 -5 13.32 -5 14 C-5.66 14 -6.32 14 -7 14 C-5.53967505 8.68972746 -3.01679014 4.53669968 0 0 Z " fill="#3367DC" transform="translate(164,171)"/>
<path d="M0 0 C1 2 1 2 0.36328125 4.20703125 C-1.60375615 9.08440651 -3.4926648 13.00889443 -7 17 C-7.33 17.99 -7.66 18.98 -8 20 C-8.66 20 -9.32 20 -10 20 C-10.33 20.99 -10.66 21.98 -11 23 C-11.66 22.67 -12.32 22.34 -13 22 C-8.71 14.74 -4.42 7.48 0 0 Z " fill="#E0F0FD" transform="translate(183,87)"/>
<path d="M0 0 C0.99 0.33 1.98 0.66 3 1 C1.53416665 5.54071365 -1.04531733 8.76266969 -4.125 12.3125 C-4.82689453 13.13717773 -4.82689453 13.13717773 -5.54296875 13.97851562 C-6.68952483 15.32396409 -7.84397451 16.662679 -9 18 C-9.33 16.68 -9.66 15.36 -10 14 C-9.01 14 -8.02 14 -7 14 C-6.67 12.02 -6.34 10.04 -6 8 C-5.01 8 -4.02 8 -3 8 C-3 6.68 -3 5.36 -3 4 C-2.01 4 -1.02 4 0 4 C0 2.68 0 1.36 0 0 Z " fill="#2F62D9" transform="translate(482,451)"/>
<path d="M0 0 C0.75 1.625 0.75 1.625 1 4 C-0.625 7.1875 -0.625 7.1875 -3 10 C-6.63003857 11.0833221 -9.97690742 11.05993494 -13.73828125 10.87890625 C-15.33833008 10.80639648 -15.33833008 10.80639648 -16.97070312 10.73242188 C-18.62489258 10.64831055 -18.62489258 10.64831055 -20.3125 10.5625 C-21.43462891 10.51029297 -22.55675781 10.45808594 -23.71289062 10.40429688 C-26.47556709 10.2749801 -29.23784918 10.14002857 -32 10 C-32 9.67 -32 9.34 -32 9 C-31.26885986 8.98018066 -30.53771973 8.96036133 -29.78442383 8.93994141 C-26.46009731 8.84447086 -23.13638014 8.73488034 -19.8125 8.625 C-18.66201172 8.5940625 -17.51152344 8.563125 -16.32617188 8.53125 C-14.65844727 8.47324219 -14.65844727 8.47324219 -12.95703125 8.4140625 C-11.93585205 8.3826416 -10.91467285 8.3512207 -9.86254883 8.31884766 C-6.8615846 7.98458247 -4.66798669 7.41196069 -2 6 C-0.62810173 2.97017694 -0.62810173 2.97017694 0 0 Z " fill="#668CDE" transform="translate(469,250)"/>
<path d="M0 0 C0.33 0 0.66 0 1 0 C1.07440448 5.15947346 1.12872191 10.31863151 1.16479492 15.47851562 C1.17983995 17.23215173 1.20028104 18.98575047 1.22631836 20.73925781 C1.26289121 23.26637009 1.2797692 25.79298296 1.29296875 28.3203125 C1.30845261 29.09867462 1.32393646 29.87703674 1.33988953 30.6789856 C1.34137782 35.5414689 0.57589309 38.72764214 -2 43 C-2.625 41.1875 -2.625 41.1875 -3 39 C-2.34 38.01 -1.68 37.02 -1 36 C-0.75926865 33.24781023 -0.62717312 30.58782534 -0.5859375 27.83203125 C-0.56657135 27.03721848 -0.5472052 26.2424057 -0.5272522 25.42350769 C-0.46750558 22.88661405 -0.42109117 20.34967491 -0.375 17.8125 C-0.33681565 16.09177716 -0.29776365 14.37107335 -0.2578125 12.65039062 C-0.16180821 8.43374835 -0.07775924 4.2170166 0 0 Z " fill="#E9F9FE" transform="translate(469,213)"/>
<path d="M0 0 C0.33 0.66 0.66 1.32 1 2 C-0.21484375 4.8203125 -0.21484375 4.8203125 -1.9375 8.125 C-2.50339844 9.22070312 -3.06929687 10.31640625 -3.65234375 11.4453125 C-4.09707031 12.28835937 -4.54179687 13.13140625 -5 14 C-5.66 14 -6.32 14 -7 14 C-7.66 16.64 -8.32 19.28 -9 22 C-10.32 22.33 -11.64 22.66 -13 23 C-8.82758112 15.23593849 -4.47813934 7.59163858 0 0 Z " fill="#3B6BD2" transform="translate(190,126)"/>
<path d="M0 0 C0.33 0 0.66 0 1 0 C1.042721 1.66611905 1.04063832 3.33382885 1 5 C0.67 5.33 0.34 5.66 0 6 C-0.29301566 8.93015662 -0.50161723 11.14671492 0 14 C2.333492 16.83411155 2.333492 16.83411155 5 19 C5.33 19.99 5.66 20.98 6 22 C2.18220043 21.04555011 1.0435405 20.06001529 -1.3125 16.8125 C-3.20742102 13.09968727 -3.53204156 10.18032656 -3 6 C-1.5 2.5625 -1.5 2.5625 0 0 Z " fill="#DDF0FD" transform="translate(112,209)"/>
<path d="M0 0 C2.475 0.495 2.475 0.495 5 1 C4.979375 1.763125 4.95875 2.52625 4.9375 3.3125 C4.87057159 6.10185786 4.87057159 6.10185786 6 9 C6.66 9 7.32 9 8 9 C8 10.32 8 11.64 8 13 C8.66 13 9.32 13 10 13 C11.0625 14.8125 11.0625 14.8125 12 17 C11.67 17.99 11.34 18.98 11 20 C9.72881267 17.93771746 8.45804035 15.87518109 7.1875 13.8125 C6.83107422 13.23435547 6.47464844 12.65621094 6.10742188 12.06054688 C5.06944825 10.37503007 4.03468147 8.68753975 3 7 C2.41863281 6.07574219 1.83726562 5.15148437 1.23828125 4.19921875 C0 2 0 2 0 0 Z " fill="#3768D3" transform="translate(357,154)"/>
<path d="M0 0 C0 3 0 3 -1.375 5.125 C-5.30986838 7.93562027 -9.21810113 8.35337932 -14 8 C-16.48743132 6.94724856 -17.93103342 5.79673413 -20 4 C-19.67 3.01 -19.34 2.02 -19 1 C-18.16275391 1.72896484 -18.16275391 1.72896484 -17.30859375 2.47265625 C-13.45869461 5.01971304 -9.45902161 4.68434096 -5 4 C-1.91308423 2.20482277 -1.91308423 2.20482277 0 0 Z " fill="#EAF9FD" transform="translate(172,399)"/>
<path d="M0 0 C0.66 0 1.32 0 2 0 C2 0.99 2 1.98 2 3 C2.66 3.33 3.32 3.66 4 4 C12 15.06270627 12 15.06270627 12 20 C12.66 20.33 13.32 20.66 14 21 C13.34 21.66 12.68 22.32 12 23 C9.99304709 19.54565686 7.99563221 16.0858937 6 12.625 C5.42765625 11.64015625 4.8553125 10.6553125 4.265625 9.640625 C3.72421875 8.69960937 3.1828125 7.75859375 2.625 6.7890625 C2.12226563 5.91975098 1.61953125 5.05043945 1.1015625 4.15478516 C0 2 0 2 0 0 Z " fill="#3E6AD2" transform="translate(319,88)"/>
<path d="M0 0 C0.99 0.33 1.98 0.66 3 1 C-2.50766871 7.81211656 -2.50766871 7.81211656 -6.171875 8.2734375 C-13.98663847 8.58129182 -13.98663847 8.58129182 -17.625 5.5 C-18.40875 4.675 -19.1925 3.85 -20 3 C-17 3 -17 3 -15.140625 4.48828125 C-12.4714678 6.37325176 -10.97585886 6.31483653 -7.75 6.1875 C-6.85796875 6.16042969 -5.9659375 6.13335937 -5.046875 6.10546875 C-4.03367187 6.05326172 -4.03367187 6.05326172 -3 6 C-2.67 4.68 -2.34 3.36 -2 2 C-1.34 2.33 -0.68 2.66 0 3 C0 2.01 0 1.02 0 0 Z " fill="#416CD3" transform="translate(347,396)"/>
<path d="M0 0 C1.0554439 4.22177562 1.07636784 4.630021 -0.8125 8.1875 C-1.16957031 8.88230469 -1.52664062 9.57710937 -1.89453125 10.29296875 C-3 12 -3 12 -5 13 C-5 13.99 -5 14.98 -5 16 C-7 18.1875 -7 18.1875 -9 20 C-9.66 19.67 -10.32 19.34 -11 19 C-7.37 12.73 -3.74 6.46 0 0 Z " fill="#E2F2FD" transform="translate(147,149)"/>
<path d="M0 0 C4.06498881 1.37184347 6.67396561 3.22068459 9.8125 6.125 C10.99779297 7.21167969 10.99779297 7.21167969 12.20703125 8.3203125 C12.79871094 8.87460937 13.39039063 9.42890625 14 10 C13.01 10.33 12.02 10.66 11 11 C10.34 10.67 9.68 10.34 9 10 C9 9.01 9 8.02 9 7 C7.68 7.33 6.36 7.66 5 8 C4.67 6.68 4.34 5.36 4 4 C3.01 4.33 2.02 4.66 1 5 C0.34 4.34 -0.32 3.68 -1 3 C-0.67 2.01 -0.34 1.02 0 0 Z " fill="#2F61D1" transform="translate(455,17)"/>
<path d="M0 0 C1.4370809 -0.05422947 2.87475462 -0.09289723 4.3125 -0.125 C5.11300781 -0.14820313 5.91351563 -0.17140625 6.73828125 -0.1953125 C9 0 9 0 12 2 C12 2.99 12 3.98 12 5 C14.97 5.495 14.97 5.495 18 6 C17.34 6.66 16.68 7.32 16 8 C10.72 5.69 5.44 3.38 0 1 C0 0.67 0 0.34 0 0 Z " fill="#3867D7" transform="translate(53,488)"/>
<path d="M0 0 C2.48982535 2.27745789 4.10368997 4.62335238 5.75 7.5625 C6.19859375 8.34753906 6.6471875 9.13257813 7.109375 9.94140625 C7.40328125 10.62074219 7.6971875 11.30007812 8 12 C7.67 12.66 7.34 13.32 7 14 C6.34 13.34 5.68 12.68 5 12 C5 11.01 5 10.02 5 9 C4.34 9 3.68 9 3 9 C2.34 8.34 1.68 7.68 1 7 C-0.98 7.99 -0.98 7.99 -3 9 C-2.30058404 5.85262818 -1.23921302 2.97411124 0 0 Z " fill="#3468D9" transform="translate(343,183)"/>
<path d="M0 0 C8.47443032 2.33777388 15.5147726 6.5173816 23 11 C22.01 11.495 22.01 11.495 21 12 C17.69598656 10.3662475 14.54957929 8.50908848 11.359375 6.6640625 C8.1208959 4.84295321 8.1208959 4.84295321 4.703125 4.5234375 C3.81109375 4.35070312 2.9190625 4.17796875 2 4 C0.625 1.9375 0.625 1.9375 0 0 Z " fill="#3460C7" transform="translate(432,5)"/>
<path d="M0 0 C0 0.99 0 1.98 0 3 C-0.66 3.66 -1.32 4.32 -2 5 C-2.64767793 7.57061311 -2.64767793 7.57061311 -3 10 C-3.99 10.33 -4.98 10.66 -6 11 C-6.66 10.67 -7.32 10.34 -8 10 C-8.66 11.65 -9.32 13.3 -10 15 C-10.66 15 -11.32 15 -12 15 C-10.58397787 11.85093585 -8.86264918 9.50476328 -6.5625 6.9375 C-5.96566406 6.26589844 -5.36882813 5.59429687 -4.75390625 4.90234375 C-3.20703058 3.2245521 -1.62828434 1.59840757 0 0 Z " fill="#3360CE" transform="translate(31,27)"/>
<path d="M0 0 C1.32 0 2.64 0 4 0 C2.35821735 4.77609498 -0.26546702 8.79382904 -3 13 C-3.66 12.67 -4.32 12.34 -5 12 C-4.67 10.68 -4.34 9.36 -4 8 C-3.34 8.33 -2.68 8.66 -2 9 C-2.309375 8.071875 -2.309375 8.071875 -2.625 7.125 C-2.810625 6.073125 -2.810625 6.073125 -3 5 C-2.34 4.34 -1.68 3.68 -1 3 C-0.67 2.01 -0.34 1.02 0 0 Z " fill="#3568DB" transform="translate(117,194)"/>
<path d="M0 0 C0.66 0 1.32 0 2 0 C2 0.66 2 1.32 2 2 C3.32 2.33 4.64 2.66 6 3 C3.36 7.62 0.72 12.24 -2 17 C-2.33 17 -2.66 17 -3 17 C-3 15.35 -3 13.7 -3 12 C-2.01 11.67 -1.02 11.34 0 11 C0.75325862 7.3174023 1.19873301 4.59619903 0 1 C0 0.67 0 0.34 0 0 Z " fill="#3B67D3" transform="translate(124,177)"/>
<path d="M0 0 C0.66 0 1.32 0 2 0 C2.67413211 1.91405367 3.3390332 3.83136026 4 5.75 C4.37125 6.81734375 4.7425 7.8846875 5.125 8.984375 C6 12 6 12 6 16 C6.66 16 7.32 16 8 16 C9.38938077 17.96147874 10.7260411 19.96166576 12 22 C9.75 21.5625 9.75 21.5625 7 20 C3.19653707 14.042128 1.67372878 6.78367348 0 0 Z " fill="#DBEEFE" transform="translate(110,416)"/>
<path d="M0 0 C0.33 0.66 0.66 1.32 1 2 C-0.14910551 4.33426139 -1.51062688 6.49415497 -2.87109375 8.7109375 C-4.2948729 11.172525 -4.2948729 11.172525 -4 15 C-4.99 15 -5.98 15 -7 15 C-7.103125 15.61875 -7.20625 16.2375 -7.3125 16.875 C-8 19 -8 19 -11 21 C-9.53171057 15.82064939 -7.18508737 11.65626588 -4.375 7.125 C-3.95476562 6.43664062 -3.53453125 5.74828125 -3.1015625 5.0390625 C-2.07307528 3.35608342 -1.037279 1.67757468 0 0 Z " fill="#416ED4" transform="translate(176,150)"/>
<path d="M0 0 C0.33 0 0.66 0 1 0 C1.328125 2.2109375 1.328125 2.2109375 1 5 C-1.265625 7.3515625 -1.265625 7.3515625 -4.25 9.625 C-5.22453125 10.38039062 -6.1990625 11.13578125 -7.203125 11.9140625 C-8.12609375 12.60242188 -9.0490625 13.29078125 -10 14 C-10.77859375 14.58523437 -11.5571875 15.17046875 -12.359375 15.7734375 C-13.17148438 16.38058594 -13.17148438 16.38058594 -14 17 C-14 16.34 -14 15.68 -14 15 C-14.66 14.67 -15.32 14.34 -16 14 C-15.41992188 13.72027344 -14.83984375 13.44054687 -14.2421875 13.15234375 C-8.05919663 9.97922468 -3.16743774 6.33487549 0 0 Z " fill="#E1F1FE" transform="translate(150,235)"/>
<path d="M0 0 C4.92908146 3.87792288 8.5423711 7.76116833 12 13 C11.38125 12.814375 10.7625 12.62875 10.125 12.4375 C7.95839822 11.76313824 7.95839822 11.76313824 6 13 C6.04125 12.21625 6.0825 11.4325 6.125 10.625 C6.28728734 7.83883881 6.28728734 7.83883881 4 6 C1.39719432 6.32041397 1.39719432 6.32041397 -1 7 C-1 6.01 -1 5.02 -1 4 C-0.34 4 0.32 4 1 4 C0.67 2.68 0.34 1.36 0 0 Z " fill="#3162D1" transform="translate(469,28)"/>
<path d="M0 0 C0.33 0 0.66 0 1 0 C2.68561267 5.21443596 3.38512698 9.97539135 3.625 15.4375 C3.66367187 16.16904297 3.70234375 16.90058594 3.7421875 17.65429688 C3.83533984 19.43583532 3.91870286 21.21788122 4 23 C0.10266867 15.84397566 -0.25779971 7.99179101 0 0 Z " fill="#527ED8" transform="translate(0,405)"/>
<path d="M0 0 C0.99 0.33 1.98 0.66 3 1 C4 4 4 4 2.75 6.5625 C1 9 1 9 -2 11 C-3.13643966 7.59068103 -2.86747764 6.99664544 -1.5625 3.8125 C-1.13130859 2.73935547 -1.13130859 2.73935547 -0.69140625 1.64453125 C-0.46324219 1.10183594 -0.23507812 0.55914062 0 0 Z " fill="#316BDC" transform="translate(419,309)"/>
<path d="M0 0 C0.80566406 0.07863281 1.61132812 0.15726562 2.44140625 0.23828125 C3.42947266 0.46064453 3.42947266 0.46064453 4.4375 0.6875 C4.7675 1.3475 5.0975 2.0075 5.4375 2.6875 C3.643125 2.3471875 3.643125 2.3471875 1.8125 2 C-2.483617 1.47534146 -4.94237406 2.16183074 -8.5625 4.6875 C-10.29740246 7.27193323 -10.29740246 7.27193323 -11.5625 9.6875 C-12.2225 9.6875 -12.8825 9.6875 -13.5625 9.6875 C-12.20967831 5.26008356 -10.32951112 3.32440779 -6.5625 0.6875 C-4.07849398 -0.55450301 -2.74042364 -0.29471651 0 0 Z " fill="#4A75D5" transform="translate(163.5625,296.3125)"/>
<path d="M0 0 C0.66 0.66 1.32 1.32 2 2 C-2.41896363 3.10474091 -6.47218883 3.07302921 -11 3 C-11.99 3 -12.98 3 -14 3 C-8.95379787 -1.16311675 -6.38531272 -1.4899063 0 0 Z " fill="#3B6CD8" transform="translate(343,297)"/>
<path d="M0 0 C0.66 0 1.32 0 2 0 C0.65072455 4.53847198 -1.19159348 8.31932246 -3.625 12.375 C-4.25664062 13.43460938 -4.88828125 14.49421875 -5.5390625 15.5859375 C-6.02117187 16.38257812 -6.50328125 17.17921875 -7 18 C-7.88336837 15.5332355 -8.1312406 14.36140628 -7.22265625 11.859375 C-6.83980469 11.16328125 -6.45695313 10.4671875 -6.0625 9.75 C-5.68222656 9.04359375 -5.30195313 8.3371875 -4.91015625 7.609375 C-4.60980469 7.07828125 -4.30945313 6.5471875 -4 6 C-3.34 6 -2.68 6 -2 6 C-2 5.01 -2 4.02 -2 3 C-1.34 3 -0.68 3 0 3 C0 2.01 0 1.02 0 0 Z " fill="#3E68D4" transform="translate(191,69)"/>
<path d="M0 0 C3.7874305 4.77545584 4.11799367 8.13869036 4.0625 14.1875 C4.05347656 15.45980469 4.04445313 16.73210937 4.03515625 18.04296875 C4.02355469 19.01878906 4.01195312 19.99460938 4 21 C3.67 21 3.34 21 3 21 C2.90912109 20.04287109 2.90912109 20.04287109 2.81640625 19.06640625 C2.73261719 18.24011719 2.64882813 17.41382813 2.5625 16.5625 C2.44068359 15.32693359 2.44068359 15.32693359 2.31640625 14.06640625 C2.21069185 12.01337975 2.21069185 12.01337975 1 11 C0.76636119 9.15108054 0.58696365 7.29511969 0.4375 5.4375 C0.35371094 4.42558594 0.26992188 3.41367188 0.18359375 2.37109375 C0.12300781 1.58863281 0.06242187 0.80617187 0 0 Z " fill="#3C6AD5" transform="translate(408,204)"/>
<path d="M0 0 C0.99 0 1.98 0 3 0 C2.34097701 3.57040303 0.83770842 6.17732255 -1.0625 9.25 C-1.61035156 10.14203125 -2.15820312 11.0340625 -2.72265625 11.953125 C-3.14417969 12.62859375 -3.56570312 13.3040625 -4 14 C-4.5859375 12.0859375 -4.5859375 12.0859375 -5 10 C-4 9 -3 8 -2 7 C-1.60235737 5.01178687 -1.26224651 3.01055661 -1 1 C-0.67 0.67 -0.34 0.34 0 0 Z " fill="#3B67D8" transform="translate(140,155)"/>
<path d="M0 0 C2.99999941 2.63076871 4.72382055 5.74179832 6.6875 9.1875 C7.31011719 10.27417969 7.93273437 11.36085937 8.57421875 12.48046875 C9.04472656 13.31191406 9.51523437 14.14335937 10 15 C9.34 15.66 8.68 16.32 8 17 C8 16.01 8 15.02 8 14 C7.01 13.67 6.02 13.34 5 13 C4.67 11.02 4.34 9.04 4 7 C3.34 7 2.68 7 2 7 C2 6.01 2 5.02 2 4 C1.34 3.67 0.68 3.34 0 3 C0 2.01 0 1.02 0 0 Z " fill="#3D6BD2" transform="translate(307,121)"/>
<path d="M0 0 C1.94188761 6.36661722 -1.40315909 12.21612707 -4 18 C-4.66 18 -5.32 18 -6 18 C-4.23536928 11.89262558 -2.30442525 5.92566493 0 0 Z " fill="#406FD4" transform="translate(431,276)"/>
<path d="M0 0 C6.6 0 13.2 0 20 0 C20.66 1.98 21.32 3.96 22 6 C21.01 6.495 21.01 6.495 20 7 C19.87625 6.360625 19.7525 5.72125 19.625 5.0625 C19.41875 4.381875 19.2125 3.70125 19 3 C15.70039859 1.3501993 12.00872116 1.61741639 8.375 1.4375 C7.57320312 1.39431641 6.77140625 1.35113281 5.9453125 1.30664062 C3.9637489 1.20048543 1.98189729 1.09973145 0 1 C0 0.67 0 0.34 0 0 Z " fill="#3567D1" transform="translate(41,260)"/>
<path d="M0 0 C0.845625 0.309375 1.69125 0.61875 2.5625 0.9375 C6.04680608 2.01446733 9.39471328 2.50515672 13 3 C13.33 3.33 13.66 3.66 14 4 C15.34747084 4.23075082 16.70377565 4.41153063 18.0625 4.5625 C19.361875 4.706875 20.66125 4.85125 22 5 C22 5.33 22 5.66 22 6 C14.3461044 6.59770117 7.91661722 5.43947934 1 2 C0.67 1.34 0.34 0.68 0 0 Z " fill="#4773D5" transform="translate(104,246)"/>
<path d="M0 0 C-1.76429199 4.97209562 -4.3939166 9.43438061 -7 14 C-7.33 14 -7.66 14 -8 14 C-8 12.35 -8 10.7 -8 9 C-7.67 9 -7.34 9 -7 9 C-6.87625 7.88625 -6.87625 7.88625 -6.75 6.75 C-5.79113195 3.23415048 -3.97054162 0 0 0 Z " fill="#366AD6" transform="translate(159,128)"/>
<path d="M0 0 C0.33 0.66 0.66 1.32 1 2 C0.06421005 4.35981813 -0.93347808 6.69631264 -2 9 C-2.66 9 -3.32 9 -4 9 C-4.33 10.65 -4.66 12.3 -5 14 C-5.66 14 -6.32 14 -7 14 C-7 14.99 -7 15.98 -7 17 C-7.66 17 -8.32 17 -9 17 C-7.51481201 12.95698825 -5.57122002 9.38853744 -3.375 5.6875 C-2.74335938 4.61886719 -2.11171875 3.55023438 -1.4609375 2.44921875 C-0.97882813 1.64097656 -0.49671875 0.83273438 0 0 Z " fill="#3869D6" transform="translate(204,102)"/>
<path d="M0 0 C1.45047396 2.90094791 0.45356803 4.55972596 -0.4375 7.625 C-0.72496094 8.62789063 -1.01242187 9.63078125 -1.30859375 10.6640625 C-1.65083984 11.82035156 -1.65083984 11.82035156 -2 13 C-3.32 13 -4.64 13 -6 13 C-6 12.01 -6 11.02 -6 10 C-5.34 10 -4.68 10 -4 10 C-3.71125 8.906875 -3.4225 7.81375 -3.125 6.6875 C-2 3 -2 3 0 0 Z " fill="#4A77D5" transform="translate(498,418)"/>
<path d="M0 0 C2.87255066 2.42195448 3.70838919 4.59742703 4.6875 8.1875 C4.93886719 9.08855469 5.19023437 9.98960938 5.44921875 10.91796875 C5.63097656 11.60503906 5.81273437 12.29210937 6 13 C4.68 13 3.36 13 2 13 C1.93941406 12.39671875 1.87882812 11.7934375 1.81640625 11.171875 C1.69072266 9.97304687 1.69072266 9.97304687 1.5625 8.75 C1.48128906 7.96109375 1.40007812 7.1721875 1.31640625 6.359375 C1.02365007 4.17635361 0.57935581 2.1226818 0 0 Z " fill="#2E65DE" transform="translate(303,114)"/>
<path d="M0 0 C2.9552728 2.61778794 4.75832727 5.67583335 6.75 9.0625 C7.38421875 10.12597656 8.0184375 11.18945312 8.671875 12.28515625 C9.11015625 13.18105469 9.5484375 14.07695313 10 15 C9.67 15.66 9.34 16.32 9 17 C4.83162147 12.4842566 0 6.45372869 0 0 Z " fill="#3F6DD0" transform="translate(288,88)"/>
<path d="M0 0 C1.24546405 2.49092811 0.7767578 3.41080733 0 6 C0.66 6 1.32 6 2 6 C1.67 7.32 1.34 8.64 1 10 C-0.65 9.67 -2.3 9.34 -4 9 C-2.94124926 5.59687262 -1.99097846 2.98646769 0 0 Z " fill="#3169DD" transform="translate(213,86)"/>
<path d="M0 0 C1.84851083 2.77276624 2.5205764 4.39992766 3.25 7.5625 C3.44078125 8.34753906 3.6315625 9.13257813 3.828125 9.94140625 C3.88484375 10.62074219 3.9415625 11.30007813 4 12 C3.34 12.66 2.68 13.32 2 14 C1.67 12.35 1.34 10.7 1 9 C0.34 9 -0.32 9 -1 9 C-0.67 6.03 -0.34 3.06 0 0 Z " fill="#3A6BD9" transform="translate(91,357)"/>
<path d="M0 0 C-0.33 0.66 -0.66 1.32 -1 2 C-1.56847656 1.88140625 -2.13695312 1.7628125 -2.72265625 1.640625 C-8.94885347 0.60119308 -11.8418536 1.37832274 -17 5 C-16.8125 3.125 -16.8125 3.125 -16 1 C-11.67870614 -1.70080866 -4.62275149 -2.31137575 0 0 Z " fill="#E5F7FE" transform="translate(169,296)"/>
<path d="M0 0 C0.33 0.99 0.66 1.98 1 3 C0.33613281 2.89300781 -0.32773438 2.78601563 -1.01171875 2.67578125 C-6.65887561 1.82084551 -6.65887561 1.82084551 -12 3.4375 C-12.99 4.2109375 -12.99 4.2109375 -14 5 C-14.66 5 -15.32 5 -16 5 C-16 4.34 -16 3.68 -16 3 C-11.37347931 -1.1479151 -5.81806416 -0.27510986 0 0 Z " fill="#E2F5FE" transform="translate(227,295)"/>
<path d="M0 0 C2.31 0 4.62 0 7 0 C7.99 2.97 8.98 5.94 10 9 C9.34 9 8.68 9 8 9 C7.566875 8.2575 7.13375 7.515 6.6875 6.75 C4.83322286 3.72821504 2.84378057 2.07519122 0 0 Z " fill="#3B68D3" transform="translate(461,204)"/>
<path d="M0 0 C2.27678571 6.96428571 2.27678571 6.96428571 1 11 C0.16121545 9.71186658 -0.67086783 8.41936744 -1.5 7.125 C-1.9640625 6.40570313 -2.428125 5.68640625 -2.90625 4.9453125 C-4 3 -4 3 -4 1 C-2 0 -2 0 0 0 Z " fill="#3768DC" transform="translate(340,117)"/>
<path d="M0 0 C2.31 0 4.62 0 7 0 C7 0.66 7 1.32 7 2 C7.99 2 8.98 2 10 2 C10 2.66 10 3.32 10 4 C11.32 4.66 12.64 5.32 14 6 C13.67 6.99 13.34 7.98 13 9 C12.34644531 8.38511719 12.34644531 8.38511719 11.6796875 7.7578125 C7.95637366 4.38909998 4.99214035 2.21759521 0 1 C0 0.67 0 0.34 0 0 Z " fill="#3E6BD3" transform="translate(294,59)"/>
<path d="M0 0 C2.94721162 2.74395564 5.19168608 5.38337216 7 9 C6.67 9.66 6.34 10.32 6 11 C5.34 10.67 4.68 10.34 4 10 C4 9.01 4 8.02 4 7 C2.68 7.33 1.36 7.66 0 8 C0.2784375 7.13375 0.2784375 7.13375 0.5625 6.25 C1.04023546 3.79307475 0.75729364 2.35602466 0 0 Z " fill="#2F60D0" transform="translate(481,42)"/>
<path d="M0 0 C0.83829874 3.35319494 1.25998454 5.62020104 1 9 C0.01 10.485 0.01 10.485 -1 12 C-1.66 12 -2.32 12 -3 12 C-3 12.66 -3 13.32 -3 14 C-3.66 13.67 -4.32 13.34 -5 13 C-3.35 8.71 -1.7 4.42 0 0 Z " fill="#3E6DD9" transform="translate(379,419)"/>
<path d="M0 0 C2 1 2 1 2.75 2.625 C3.10912151 6.03665437 2.05444067 8.77465208 1 12 C0.34 11.34 -0.32 10.68 -1 10 C-0.9765625 7.6171875 -0.9765625 7.6171875 -0.625 4.875 C-0.51414063 3.96492188 -0.40328125 3.05484375 -0.2890625 2.1171875 C-0.19367187 1.41851562 -0.09828125 0.71984375 0 0 Z " fill="#3C6DD5" transform="translate(1,81)"/>
<path d="M0 0 C2.31 0.33 4.62 0.66 7 1 C6.67 3.31 6.34 5.62 6 8 C1.125 3.375 1.125 3.375 0 0 Z " fill="#2F62D2" transform="translate(19,458)"/>
<path d="M0 0 C0.66 0 1.32 0 2 0 C2.39600661 3.46505783 2.14386351 4.78172433 0.1875 7.75 C-2 10 -2 10 -5 11 C-5 10.34 -5 9.68 -5 9 C-4.34 8.67 -3.68 8.34 -3 8 C-2.09656316 6.11736119 -2.09656316 6.11736119 -1.375 3.9375 C-1.11460937 3.20402344 -0.85421875 2.47054688 -0.5859375 1.71484375 C-0.39257812 1.14894531 -0.19921875 0.58304687 0 0 Z " fill="#3A66D0" transform="translate(231,392)"/>
<path d="M0 0 C3.28465896 2.79196011 5.01321958 6.23196817 7 10 C7 10.66 7 11.32 7 12 C6.34 12 5.68 12 5 12 C4.34 10.68 3.68 9.36 3 8 C2.01 8 1.02 8 0 8 C0 5.36 0 2.72 0 0 Z " fill="#3B6AD6" transform="translate(332,164)"/>
<path d="M0 0 C1.2380014 3.57644848 0.74926071 6.33694766 0 10 C-0.66 10 -1.32 10 -2 10 C-2 11.32 -2 12.64 -2 14 C-2.66 14 -3.32 14 -4 14 C-3.00956295 9.16371695 -2.04301154 4.52381127 0 0 Z " fill="#3F6BD6" transform="translate(399,364)"/>
<path d="M0 0 C0 0.66 0 1.32 0 2 C-4.42778844 4.74522883 -7.71862571 6.48474397 -13 7 C-10.84545751 4.64283596 -8.80280126 3.21033856 -5.9375 1.8125 C-5.24527344 1.46832031 -4.55304687 1.12414062 -3.83984375 0.76953125 C-2 0 -2 0 0 0 Z " fill="#3663C8" transform="translate(59,9)"/>
<path d="M0 0 C0.33 0 0.66 0 1 0 C1.43177893 6.26079448 0.92739438 9.09075703 -3 14 C-4 12 -4 12 -3.22265625 9.1796875 C-2.83980469 8.08914063 -2.45695312 6.99859375 -2.0625 5.875 C-1.68222656 4.77929688 -1.30195313 3.68359375 -0.91015625 2.5546875 C-0.60980469 1.71164062 -0.30945313 0.86859375 0 0 Z " fill="#436ED7" transform="translate(386,399)"/>
<path d="M0 0 C0.66 0 1.32 0 2 0 C0.55049545 3.7910119 -1.15172566 7.3874638 -3 11 C-3.33 11 -3.66 11 -4 11 C-4 8.69 -4 6.38 -4 4 C-2.68 3.67 -1.36 3.34 0 3 C0 2.01 0 1.02 0 0 Z " fill="#3C6AD9" transform="translate(166,204)"/>
<path d="M0 0 C2.50037734 2.17424117 3.43628586 3.73045798 4 7 C1.69 7.33 -0.62 7.66 -3 8 C-2.5359375 7.13375 -2.5359375 7.13375 -2.0625 6.25 C-1.07416636 4.15705816 -0.4831387 2.25464725 0 0 Z " fill="#2E67DB" transform="translate(325,152)"/>
<path d="M0 0 C1.32 0.33 2.64 0.66 4 1 C2.54735962 1.8638129 1.0876837 2.71580454 -0.375 3.5625 C-1.59316406 4.27599609 -1.59316406 4.27599609 -2.8359375 5.00390625 C-3.55007813 5.33261719 -4.26421875 5.66132813 -5 6 C-5.66 5.67 -6.32 5.34 -7 5 C-7 4.34 -7 3.68 -7 3 C-3.535 2.505 -3.535 2.505 0 2 C0 1.34 0 0.68 0 0 Z " fill="#3662CF" transform="translate(448,485)"/>
<path d="M0 0 C2.64 0 5.28 0 8 0 C8 1.65 8 3.3 8 5 C4.62496331 3.8141763 2.35277269 2.72426311 0 0 Z " fill="#3364D4" transform="translate(45,483)"/>
<path d="M0 0 C0 3 0 3 -1.4375 5.25 C-4.91948743 7.62794263 -7.13470533 7.0105314 -11.171875 6.359375 C-11.77515625 6.24078125 -12.3784375 6.1221875 -13 6 C-13 5.67 -13 5.34 -13 5 C-11.96939453 4.83564453 -11.96939453 4.83564453 -10.91796875 4.66796875 C-10.01691406 4.50941406 -9.11585938 4.35085938 -8.1875 4.1875 C-6.84751953 3.96126953 -6.84751953 3.96126953 -5.48046875 3.73046875 C-2.81678744 2.94604607 -1.74309678 2.11372201 0 0 Z " fill="#D0E4FD" transform="translate(172,399)"/>
<path d="M0 0 C0.66 0.33 1.32 0.66 2 1 C0.25 7.75 0.25 7.75 -2 10 C-2.25 3.375 -2.25 3.375 0 0 Z " fill="#3D6BD6" transform="translate(211,300)"/>
<path d="M0 0 C2.2477975 2.05233685 3.0022242 3.00667261 4 6 C2.68 6.99 1.36 7.98 0 9 C-0.84454356 5.62182575 -1.10844919 3.32534757 0 0 Z " fill="#3367DB" transform="translate(299,107)"/>
<path d="M0 0 C0.99 0.33 1.98 0.66 3 1 C0.69 3.64 -1.62 6.28 -4 9 C-4.33 7.68 -4.66 6.36 -5 5 C-4.01 5 -3.02 5 -2 5 C-2 4.01 -2 3.02 -2 2 C-1.34 2 -0.68 2 0 2 C0 1.34 0 0.68 0 0 Z " fill="#3960CB" transform="translate(477,460)"/>
<path d="M0 0 C3.3125 0.1875 3.3125 0.1875 7 1 C8.9375 3.5625 8.9375 3.5625 10 6 C9.01 5.67 8.02 5.34 7 5 C7 4.34 7 3.68 7 3 C5.02 3 3.04 3 1 3 C0.67 2.01 0.34 1.02 0 0 Z " fill="#3668DA" transform="translate(281,298)"/>
<path d="M0 0 C1.32 0.33 2.64 0.66 4 1 C4 1.66 4 2.32 4 3 C4.66 3 5.32 3 6 3 C5.67 4.65 5.34 6.3 5 8 C2.74754119 5.31158141 1.11786042 3.35358125 0 0 Z " fill="#3369D6" transform="translate(352,146)"/>
<path d="M0 0 C3.28465896 2.79196011 5.01321958 6.23196817 7 10 C7 10.66 7 11.32 7 12 C6.34 12 5.68 12 5 12 C4.16180842 10.37750059 3.3295884 8.75191503 2.5 7.125 C2.0359375 6.22007813 1.571875 5.31515625 1.09375 4.3828125 C0 2 0 2 0 0 Z " fill="#DAEFFE" transform="translate(328,106)"/>
<path d="M0 0 C0.33 0.66 0.66 1.32 1 2 C0.00390625 4.1640625 0.00390625 4.1640625 -1.4375 6.625 C-1.91058594 7.44226563 -2.38367188 8.25953125 -2.87109375 9.1015625 C-3.24363281 9.72804688 -3.61617188 10.35453125 -4 11 C-4.33 11 -4.66 11 -5 11 C-5 9.35 -5 7.7 -5 6 C-4.34 6 -3.68 6 -3 6 C-2.690625 5.195625 -2.38125 4.39125 -2.0625 3.5625 C-1 1 -1 1 0 0 Z " fill="#3660C9" transform="translate(490,441)"/>
<path d="M0 0 C3.80666984 1.44390925 5.26602582 3.34952803 7 7 C6.67 7.66 6.34 8.32 6 9 C4.99406757 7.8803014 3.9954151 6.7540588 3 5.625 C2.443125 4.99851563 1.88625 4.37203125 1.3125 3.7265625 C0 2 0 2 0 0 Z " fill="#406CD3" transform="translate(351,235)"/>
<path d="M0 0 C0.99 0.33 1.98 0.66 3 1 C-0.69172595 4.53790403 -4.09390595 4.59115883 -9 5 C-8.443125 4.731875 -7.88625 4.46375 -7.3125 4.1875 C-4.90694879 3.00469337 -4.90694879 3.00469337 -2.4375 1.3125 C-1.633125 0.879375 -0.82875 0.44625 0 0 Z " fill="#CFE8FC" transform="translate(128,227)"/>
<path d="M0 0 C1.875 0.625 1.875 0.625 4 2 C5.25 5.125 5.25 5.125 6 8 C5.01 8.495 5.01 8.495 4 9 C0 2.25 0 2.25 0 0 Z " fill="#3C6ED2" transform="translate(376,187)"/>
<path d="M0 0 C0.66 0 1.32 0 2 0 C2 0.66 2 1.32 2 2 C3.32 2.33 4.64 2.66 6 3 C5.01 4.32 4.02 5.64 3 7 C2.01 6.34 1.02 5.68 0 5 C-0.1875 2.375 -0.1875 2.375 0 0 Z " fill="#3168E0" transform="translate(124,177)"/>
<path d="M0 0 C0.66 0 1.32 0 2 0 C2.66 2.97 3.32 5.94 4 9 C3.34 9 2.68 9 2 9 C2 8.01 2 7.02 2 6 C1.34 6 0.68 6 0 6 C0 4.02 0 2.04 0 0 Z " fill="#5080D6" transform="translate(495,72)"/>
<path d="M0 0 C-0.66 2.31 -1.32 4.62 -2 7 C-4.2477975 4.94766315 -5.0022242 3.99332739 -6 1 C-3 0 -3 0 0 0 Z " fill="#3366DA" transform="translate(317,74)"/>
<path d="M0 0 C0.33 0 0.66 0 1 0 C1.41176754 3.60296594 1.1535853 4.78402067 -1 7.8125 C-1.66 8.534375 -2.32 9.25625 -3 10 C-3.66 9.67 -4.32 9.34 -5 9 C-3.35 6.03 -1.7 3.06 0 0 Z " fill="#E0F4FE" transform="translate(195,66)"/>
<path d="M0 0 C1 3 1 3 0.22265625 4.82421875 C-0.8515625 6.54947917 -1.92578125 8.27473958 -3 10 C-3.66 10 -4.32 10 -5 10 C-3.66511872 6.40608886 -2.03977277 3.24509304 0 0 Z " fill="#DCEEFE" transform="translate(124,189)"/>
<path d="M0 0 C0.33 0.66 0.66 1.32 1 2 C0.22265625 3.9453125 0.22265625 3.9453125 -0.9375 6.125 C-1.31777344 6.84945312 -1.69804687 7.57390625 -2.08984375 8.3203125 C-2.39019531 8.87460938 -2.69054687 9.42890625 -3 10 C-3.99 10 -4.98 10 -6 10 C-4.02 6.7 -2.04 3.4 0 0 Z " fill="#D8EDFD" transform="translate(135,170)"/>
<path d="M0 0 C0.66 0.33 1.32 0.66 2 1 C0.02 3.31 -1.96 5.62 -4 8 C-4.33 6.68 -4.66 5.36 -5 4 C-4.34 4 -3.68 4 -3 4 C-3 3.01 -3 2.02 -3 1 C-2.01 0.67 -1.02 0.34 0 0 Z " fill="#446ED1" transform="translate(198,61)"/>
<path d="M0 0 C1.9375 0.8125 1.9375 0.8125 4 2 C4.33 2.99 4.66 3.98 5 5 C2 5 2 5 0.3125 3.5 C-0.120625 3.005 -0.55375 2.51 -1 2 C-0.67 1.34 -0.34 0.68 0 0 Z " fill="#3B6DD9" transform="translate(169,299)"/>
<path d="M0 0 C0.99 0.495 0.99 0.495 2 1 C2.4140625 3.06640625 2.4140625 3.06640625 2.625 5.5625 C2.69976562 6.38878906 2.77453125 7.21507812 2.8515625 8.06640625 C2.92503906 9.02353516 2.92503906 9.02353516 3 10 C0.64551835 7.44931155 0.01672076 6.28982642 -0.1875 2.75 C-0.125625 1.8425 -0.06375 0.935 0 0 Z " fill="#3B6DD6" transform="translate(67,282)"/>
<path d="M0 0 C1.32 0.33 2.64 0.66 4 1 C3.39816251 3.02045442 2.72693904 5.02111039 2 7 C1.01 7.495 1.01 7.495 0 8 C0 5.36 0 2.72 0 0 Z " fill="#3569D3" transform="translate(130,170)"/>
<path d="M0 0 C2.475 0.495 2.475 0.495 5 1 C5.33 2.32 5.66 3.64 6 5 C3.03 4.505 3.03 4.505 0 4 C0 2.68 0 1.36 0 0 Z " fill="#3E71DD" transform="translate(427,3)"/>
<path d="M0 0 C0 3.61029169 -0.96092582 6.55806676 -2 10 C-2.66 9.01 -3.32 8.02 -4 7 C-3.1025444 3.93369336 -2.26961192 2.26961192 0 0 Z " fill="#4571D3" transform="translate(271,299)"/>
<path d="M0 0 C2.4375 0.75 2.4375 0.75 5 2 C5.9375 4 5.9375 4 6 6 C5.34 6.66 4.68 7.32 4 8 C2.66666667 5.33333333 1.33333333 2.66666667 0 0 Z " fill="#DDF1FD" transform="translate(287,298)"/>
<path d="M0 0 C0.268125 0.556875 0.53625 1.11375 0.8125 1.6875 C2.10122647 4.19712523 3.52926478 6.59334236 5 9 C4.01 9 3.02 9 2 9 C0.4375 6.1875 0.4375 6.1875 -1 3 C-0.67 2.01 -0.34 1.02 0 0 Z " fill="#3E68D1" transform="translate(92,229)"/>
<path d="M0 0 C0.33 1.32 0.66 2.64 1 4 C-0.9375 6.75 -0.9375 6.75 -3 9 C-3.66 8.67 -4.32 8.34 -5 8 C-3.35 5.36 -1.7 2.72 0 0 Z " fill="#4772D4" transform="translate(146,202)"/>
<path d="M0 0 C2.50037734 2.17424117 3.43628586 3.73045798 4 7 C3.34 7 2.68 7 2 7 C2 6.01 2 5.02 2 4 C1.01 4.33 0.02 4.66 -1 5 C-0.67 3.35 -0.34 1.7 0 0 Z " fill="#3769D6" transform="translate(321,145)"/>
<path d="M0 0 C0.66 0.66 1.32 1.32 2 2 C1.625 4.125 1.625 4.125 1 6 C0.01 6 -0.98 6 -2 6 C-2.33 5.34 -2.66 4.68 -3 4 C-2.01 2.68 -1.02 1.36 0 0 Z " fill="#3361CF" transform="translate(18,42)"/>
<path d="" fill="#FFFFFF" transform="translate(0,0)"/>
<path d="" fill="#FFFFFF" transform="translate(0,0)"/>
<path d="" fill="#FFFFFF" transform="translate(0,0)"/>
</svg>
